<svg xmlns="http://www.w3.org/2000/svg" viewBox="0 0 613 793" xmlns:v="https://vecta.io/nano"><style><![CDATA[.H{letter-spacing:.11em}.k{letter-spacing:.08em}.AV,.e,.W{letter-spacing:.11em}.j{letter-spacing:.04em}.AH{letter-spacing:.11em}.S{letter-spacing:.11em}.l{letter-spacing:.1em}.a{letter-spacing:.11em}.I{letter-spacing:.11em}.Y{letter-spacing:.1em}.V{letter-spacing:.03em}.Q,.AC{letter-spacing:.1em}.AA,.w{letter-spacing:.1em}.AI,.AW{letter-spacing:.11em}.g{letter-spacing:.11em}.m,.AY{letter-spacing:.09em}.b,.x,.AU{letter-spacing:.09em}.M{letter-spacing:.1em}.AG{letter-spacing:.11em}.s,.n{letter-spacing:.11em}.AJ{letter-spacing:.1em}.y{letter-spacing:.1em}.O,.L,.AT{letter-spacing:.11em}.AB{letter-spacing:.06em}.R,.t{letter-spacing:.11em}.d,.AO{letter-spacing:.09em}.p,.AL{letter-spacing:.11em}.P,.Z{letter-spacing:.11em}.AX,.v{letter-spacing:.11em}.z{letter-spacing:.05em}.AR,.c{letter-spacing:.05em}.r{letter-spacing:.1em}.AF{letter-spacing:.11em}.C{letter-spacing:.12em}.F{letter-spacing:.11em}.AE{letter-spacing:.1em}.AQ{letter-spacing:.1em}.AM{letter-spacing:.05em}.AN{letter-spacing:.11em}.X,.K{letter-spacing:.11em}.q{letter-spacing:.06em}.o{letter-spacing:0em}.u{letter-spacing:.02em}.U{letter-spacing:.1em}.AK{letter-spacing:.1em}.i{letter-spacing:.09em}.E{letter-spacing:.11em}.AP{letter-spacing:.1em}.AD{letter-spacing:.08em}.h{letter-spacing:.1em}.AZ{fill:#231f20}.Aa{font-size:9.5px}.Ab{font-family:Rift-Medium,Rift}.Ac{font-weight:500}.Ad{font-family:Rift-Light,Rift}.Ae{font-weight:300}.Af{font-family:Rift-Bold,Rift}.Ag{font-weight:700}.Ah{font-size:11px}.Ai{font-size:10px}.Aj{font-size:9.25px}]]></style><path d="M.5.5h612v792H.5z" fill="#fff" stroke="#231f20" stroke-miterlimit="10"/><g class="AZ"><path d="M321.09 664.46q.21.07.43.13c-.19.09-.1.04-.26.16q-.08-.15-.16-.29h0zm-16.86-.27l.29.27h-.43l.14-.27h0zm-4.43 0l.14.27.29-.13v.4l-.43-.54h0zm21.29-.13l.43.13-.29.13-.14-.27h0zm-30.58 0c-.17.91.22.58.71.13-.14.52-.3.57-.86.67q.07-.4.14-.8h0zm-1.14 0q.14.27.29.54c-.33-.25-.45-.22-.29-.54h0zm-7.14-.4l.29.13c-.07.05-.36.22-.43.27.02-.07.12-.33.14-.4h0zm17.15-.27c.02.07.12.33.14.4l-.43-.13.29-.27h0zm-8.43 0q.07.2.14.4c-.3-.08-.4-.12-.64.07q.25-.23.5-.47h0zm32.44-.27l.43.13-.43.13v-.27h0zm-2.71-.13h.71v.27l-.71-.27h0zm2.43-.27v.27h-.72c.16-.3.37-.26.72-.27h0zm-33.87 0l.29.54h-.29v-.54h0zm.29-.27l.29.4h-.29v-.4h0zm2.29-.13h.29v.4l-.29-.4h0zm-3.29 0h.43l-.14.54-.29-.54h0zm35.15-.4c.3.14.24.26.14.54q-.07-.27-.14-.54h0zm-34.29 0l.29.13-.14.27c-.02-.07-.12-.33-.14-.4h0zm-7 0l.14.54h-.29l.14-.54h0zm38.72-.27c.02.07.12.33.14.4l-.29-.13.14-.27h0zm14.86-.27l.29.13-.43.13.14-.27h0zm-44.58 0l.29.27h-.43l.14-.27h0zm-.86-.27c.46.22.56.33.43.8q.36.07.71.13-.22.07-.43.13.07.13.14.27.14-.07.29-.13c-.19.32-.32.3-.71.4v-.81q-.21.07-.43.13.14-.34.28-.67-.14.07-.28.13v-.4h0zm30.72-.13l.14.27.29-.13-.14.27-.29-.4h0zm-29.87-.13c.02.07.12.33.14.4h-.29c.02-.07.12-.33.14-.4h0zm-.57-.13l.29.4-.43-.13c.02-.05.12-.22.14-.27h0zm44.3-.13l.29.13-.43.13.14-.27h0zm-43.15-.13c.02.07.12.33.14.4l-.29-.13c.02-.05.12-.22.14-.27h0zm7.29-.13c.36.03.35.24.43.54-.36-.03-.35-.24-.43-.54h0zm-8.72 0h.28c-.02.07-.12.34-.14.4-.02-.07-.12-.33-.14-.4h0zm6.72-.13l.29.4h-.29v-.4h0zm9.86-.13l.29.4c-.02-.05-.12-.22-.14-.27l-.29.13.14-.27h0zm24.86-.13h.43v.27c-.07-.05-.36-.22-.43-.27h0zm2.43-.13h.43l-.14.67-.29-.67h0zm-12.29 0h.57c-.37.22-.22.4-.14.8h-.43c.2-.46.33-.5 0-.8h0zm-30.86 0q.29.27.57.54-.14-.07-.29-.13c-.19.38-.16.4-.57.4q.29-.2.57-.4-.29-.07-.57-.13.14-.13.29-.27h0zm-2.14 0h.29l-.14.27-.14-.27h0zm35.44-.13c.09.36.17.39-.14.54q.14.13.28.27c-.43-.3-.36-.39-.14-.8h0zm-3.43 0h.29l-.14.27c-.02-.05-.12-.22-.14-.27h0zm-29.29-.13h.29c-.02.07-.12.34-.14.4-.02-.07-.12-.34-.14-.4h0zm44.15-.27l.14.27h-.29l.14-.27h0zm-2.71-.27l.14.27-.29.13c.02-.07.12-.33.14-.4h0zm-42.15.27h-.57q.21.2.43.4-.21.07-.43.13c-.1-.57-.07-.91.57-.54h0zm43.15-.54c.41.18.43.16.43.54q-.21-.27-.43-.54h0zm-19.72 0l.29.27-.43.13.29-.13-.14-.27h0zm20.43-.13c.47.26.57.23.57.67q-.21-.07-.43-.13.14-.13.29-.27-.21-.13-.43-.27h0zm-46.3 0l.29.54h-.29v-.54h0zm53.01-.27l.29.13c-.07.05-.36.22-.43.27.02-.07.12-.34.14-.4h0zm-52.44 0c.08.41.21.51-.14.67q.07-.34.14-.67h0zm33.58-.13v.8l-.43-.27c-.02.05-.12.22-.14.27l.57-.8h0zm-2 0c.16.28.68 1.01 1 .4-.06.42-.04.42-.43.54q.07.13.14.27.21-.13.43-.27-.07.13-.14.27.21.07.43.13c-.26.17-.44.24-.29.54h-.43q.07.2.14.4-.21-.2-.43-.4.36-.27.71-.54-.43-.13-.86-.27.21-.2.43-.4h-.71v-.67h0zm-24.01 0l.43.13c-.02.05-.12.22-.14.27l-.29-.4h0zm-8.29 0l.57.13-.57.13v-.27h0zm43.73-.13l.14.27h-.29l.14-.27h0zm-11 0h.57v.4h-.57v-.4h0zm10.57-.13h.29l-.14.27-.14-.27h0zm-39.73-.13h.29v.4h-.29v-.4h0zm20.86-.13l.29.27h-.43l.14-.27h0zm16-.13l.29.4-.43-.13.14-.27h0zm-4.86 0c-.07.65.11 1.46-.71 1.47.3.45.25.55.71.4q-.21.4-.43.81.22-.27.43-.54v1.07h.14c0 .23.04.11-.29.27v-.8c-.72.34-.64 1.02.14 1.21h-.43v.4c-1.05-.66.41-1.89-.43-2.41q.14-.13.29-.27-.29-.13-.57-.27.36-.4.71-.8-.21.4-.43.8c.78 0 .73-.74.86-1.34h0zm-33.44 0c.14.58.46 1.15-.29 1.34.54-.34.36-.78.29-1.34h0zm30.72-.27l.71.27-.43.13.14.27-.43-.67h0zm-.43 0l.43.4h-.57c.02-.07.12-.33.14-.4h0zm2.29-.13l.29.54h-.29v-.54h0zm17.29-.13l.29.27h-.43l.14-.27h0zm-11.72-.13l.43.13-.29.13c-.02-.05-.12-.22-.14-.27h0zm-6-.27l.14.27-.29.13c.02-.07.12-.34.14-.4h0zm-.71 0l.14.27-.43.13.29-.4h0zm-25.58 0c.39.04.36.36.43.67q-.21-.34-.43-.67h0zm-7.57-.13c.39.04.36.35.43.67q-.21-.34-.43-.67h0zm35.72.13q-.14-.07-.28-.13-.07.13-.14.27-.07-.13-.14-.27c.28-.13.35-.06.57.13h0zm-33.58-.27c.39.36.43.56.43 1.07h.86c-.27.51-.87-.24-1.14.27q-.07-.67-.14-1.34h0zm5.14-.13l.14.27h-.29l.14-.27h0zm-4.14 0h.29l-.14.27-.14-.27h0zm-3.43 0l.14.27h-.29l.14-.27h0zm53.87-.54l.29.13-.14.27c-.02-.07-.12-.34-.14-.4h0zm-14.15 0v.27l-.43.13.43-.4h0zm-46.44 0l.43.13-.14.27-.29-.4h0zm42.15-.13c-.03.58-.63.9-.43 1.47-.48-.02-.54-1.15-.14-1.34-.08.47-.17.51.14.8.04-.27 0-.94.43-.94h0zm-40.44 0a9.96 9.96 0 0 1 .57.27l-.57.13v-.4h0zm38.3-.13c.47.03.67-.09.86.27q-.14-.07-.29-.13-.07.13-.14.27-.21-.2-.43-.4h0zm-15.72 0h.29l-.14.27-.14-.27h0zm-9.29 0h.43l-.29.54-.14-.54h0zm43.3-.13l.29.13c-.02.05-.12.22-.14.27-.02-.07-.12-.33-.14-.4h0zm-19.15 0c.02.07.12.34.14.4l-.29-.13c.02-.05.12-.22.14-.27h0zm-29.44-.13l.29.13-.43.13.14-.27h0zm-9.72 0l.29.4h-.29v-.4h0zm41.15-.13c.46.02.47.15.57.54q-.14-.13-.29-.27-.07.13-.14.27-.07-.27-.14-.54h0zm-33.58-.13c.1.27.15.4-.14.54q.07-.27.14-.54h0zm34.3-.13l.57.4h-.72l.29-.13c-.02-.05-.12-.22-.14-.27h0zm4.86-.13c.37.28.43.27.43.67q-.14-.07-.29-.13.07-.13.14-.27-.21.07-.43.13.07-.2.14-.4h0zm-5.43 0h.29l-.14.27-.14-.27h0zm-39.87 0c.33.19.23.35.14.67q-.07-.34-.14-.67h0zm57.73-.13q.22.07.43.13-.14.2-.29.4c.09-.36.17-.39-.14-.54h0zm-19.58 0q.21.2.43.4c-.31-.2-.44-.26-.71 0q.14-.2.29-.4h0zm-24.43 0c.21.4.27.54-.14.8.29-.3.24-.43.14-.8h0zm-15-.13c.48.11.57.21.57.67h-.29q.07-.2.14-.4h-.43v-.27h0zm39.73-.13q.14.2.29.4c.42-.3.71-.26.71.27-.42-.21-.42-.28-.71 0q-.14-.33-.29-.67h0zm-31.15.13l.43-.13-.14.27h.43l-.43-.54-.29.4h0zm31.29-.54l.14.27h-.29l.14-.27h0zm-7.57.13q-.29.07-.57.14c.21-.2.29-.25.57-.14h0zm-22.86 0q-.07.2-.14.4.21-.2.43-.4c-.21.27-.46.47-.29.8q-.14-.07-.29-.13.14.2.29.4-.21.13-.43.27c-.1-.5-.05-.78-.57-.94.27-.51.41-.51 1-.4h0zm32.87-.27l.14.81-.29-.4a7.15 7.15 0 0 0-.29.27l.43-.67h0zm-42.58 0q.14.13.29.27-.14-.07-.29-.13c.03.34.25.33.57.4q-.36.13-.72.27.07-.4.14-.81h0zm41.3-.13l.57.13h-.43l.14.54-.29-.67h0zm-18.29 0l.57.27-.57.13v-.4h0zm16.58-.13c.02.07.12.34.14.4l.29-.13c-.02.05-.12.22-.14.27l-.29-.54h0zm21.86-.13l.14.27-.29.13c.02-.07.12-.33.14-.4h0zm-1.57 0l.14.67-.29-.13.14-.27c-.07.05-.36.22-.43.27l.43-.54h0zm-58.44 0h.57v.27h-.57v-.27h0zm41.15-.13l.28.4-.14-.27-.14.27-.29-.13a7.15 7.15 0 0 0 .29-.27h0zm-1.29 0l.43.13-.29.13-.14-.27h0zm-32.58 0h.43l-.29.67-.14-.67h0zm-8.29 0q.07.4.14.8c-.29-.3-.24-.43-.14-.8h0zm40.01-.13q-.07.33-.14.67-.21-.07-.43-.13.21-.07.43-.13-.07-.13-.14-.27-.14.07-.29.13c.14-.26.26-.26.57-.27h0zm-33.01-.13c.59.55.71.83.71 1.61-.37-.21-.22-.4-.14-.81-.28.63-.48.93-.71.13h.43q-.21-.13-.43-.27c.33-.19.23-.35.14-.67h0zm31.58-.13l.14.27-.29.13c.02-.07.12-.33.14-.4h0zm-5.86 0c.02.07.12.33.14.4h-.29c.02-.07.12-.33.14-.4h0zm-24.44 0l.28.27h-.43l.14-.27h0zm-7.57 0l.29.13-.14.27c-.02-.07-.12-.33-.14-.4h0zm41.15-.13l.29.4h-.43c.02-.07.12-.34.14-.4h0zm-40.58 0l.29.27h-.43l.14-.27h0zm47.01-.13l.43.27h-.57l.14-.27h0zm-18.29.94q.14-.07.29-.13l-.08 7.08c0 1.15-.17 2.4.36 3.44.8 1.56 3.05 1.76 4.62 1.56.42-.05.82-.22 1.19-.42.72-.39 1.37-.89 2.05-1.34v1.88c.17 0 2.28-.96 2.29-1.34q.07.2.14.4.14-.13.29-.27.07.13.14.27.07-.13.14-.27c.59.51 3.53.3 3.57-.54-.55.01-.66-.06-.86.4v-.4c-.32.01-1.39.23-1.46-.42l-.24-3.12-.02-7.73h-.86v.8c-.4-1.21-1.78-.79-3-.8v.27c-.68-.23-.41-.31-.86.13q-.07-.13-.14-.27.14-.07.29-.13c-.79.06-.54-.12-.86.4-.47-.32-.19-.24-.86-.13 1.06.79 2.55-.45 2.29 1.61h.29c-.07.15-.2.28-.2.44l-.1 5.64c-.04.88-.02 1.78-.27 2.62-.31 1.05-2.19 1.67-3.12 1.03-.27-.19-.58-.76-.59-1.02l-.11-7.67c-.02-.68-.13-1.83-.5-2.51-.41-.76-1.73-.13-2.25-.14-1.15-.01-2.29-.18-3.43-.27.25.93 1.39.09 1.86.94h0zm-22.43-.13q-.14-.34-.29-.67-.14.07-.29.13c.37-.7.65.18.57.54h0zm55.87-.94c.11.37.34.25.55.54.25.34.25.78.59 1.07.04.03.1 0 .14 0q-.07 1.34-.14 2.68l-2.17-.08c-.44-.01-.86-.01-1.12.35q.07-.2.14-.4-.21.07-.43.13c.04-1.16.96-2.39.57-3.49.28.08 1.1-.77 1.86-.8h0zm-57.16 0c-.02.4-.03.39-.43.54q.22.13.43.27-.43.13-.86.27.14-.13.29-.27-.14-.13-.29-.27.14.07.29.13c.12-.28.18-.67.57-.67h0zm52.16 1.88h-.43q.07.13.14.27c-1.74.5-2.11 4.36-1.86 5.76 1.04 5.69 11.19 7.31 12.29 1.07-.52.46-1.71 1.82-1.86 2.41-.32-.1-1.97.58-2.74.53-2.4-.15-3.26-3.1-3.12-4.95h-.29c.93-.49-.41-2.36 1.11-2.36.77 0 1.55.06 2.32.08v-.27c.33.43 1.08.27 1.57.27v-.27q1.43.07 2.86.14c-.04-1.8-.9-3.15-2.53-4.14-.39-.24-.46-.08-.75.12q.07-.2.14-.4c-1.39-.36-4.24-.35-5.57.41-.32.18-1.46.75-1.29 1.33h0zm-42.73-.27q-.21-.07-.43-.13-.07.34-.14.67l-.29-.27c-.63 1.01-2.87 3.59-1.57 4.56h-.43c.05 1.18.43 3.14 1.45 3.96.2.16.52.16.7.33.08.08-.09.23-.04.32.11.19.3.35.51.47.53.32 1.1.58 1.67.82 1.52.63 2.91.78 4.57.6.34-.04.27-.26.29-.47 1.42.37 2.53-.89 3.49-1.76 1.62-1.48 1.83-3.63 1.46-5.64-.19-1.04-.62-2.73-1.95-2.78q.21-.13.43-.27c-.52-.48-2.47-2.09-2.86-1.47-.01-.26.06-.32-.32-.39-.75-.13-1.5-.19-2.25-.29v.27q.29-.07.57-.13c.19.48.87.7 1.29 1.34q.14-.07.29-.13c.08.69.16 1.43.57 2.01-.31.24-.22.1-.21.69.02 1.31.12 2.61.09 3.92a12.62 12.62 0 0 1-.23 2.03c-.14.68-.35 1.35-.58 2.01-.3.87-1.73.41-2.35.87-.32-.45-.65-.94-1.14-1.21q.07-.13.14-.27c-.34-.21-.4-.69-.43-1.07h-.43c.48-.39.37-2.48-.29-2.55.89-.5.16-1.93.2-2.9.02-.44.06-.89.18-1.32.2-.69.67-2.07 1.34-2.74.28-.28.79-.44.85-.82-1.12.02-4.06.56-4.14 1.74h0zm-12.43-1.07q.07.13.14.27c-.46.26-.89.63-1.14 1.07q-.14-.07-.29-.13.14.47.29.94c.27-.5.51-1.02.8-1.51.18-.3.52-.18.77-.5.31.27.84.19 1.23.35.3.12.51.39.77.59q.07-.2.14-.4-.14.07-.29.13v-.27h.43v7.64q.21-.07.43-.13-.07.27-.14.54-.14-.13-.29-.27c0 .95.11 2.14-.21 3.11-.17.52-.85.14-.94.65q-.29-.13-.57-.27v.4h2.71v-.4c.13.3.06.33.54.35.96.05 1.93.03 2.89.05v-.27c.35.47.68.25 1.43.27-.06-.62-1.2-.24-1.64-.74-.59-.66.46-2.17-.36-2.61h.29c0-.31-.06-.44-.29-.67q.14.07.29.13v-1.47q-.14.13-.29.27c0-.29.02-.39.29-.54h-.71c.28-.5.06-.34.71-.4l-.04-3.53c-.02-.54.05-.44-.25-.62q.07-.13.14-.27-.21.07-.43.13c.28-.84.3-.44 0-1.21-.35.39-.1.23-.86.27.26-.32.08-.24.57-.13q-.14-.07-.29-.13.14-.13.29-.27c-.57-.1-.35.05-.57-.54-.46.11-.42-.18-.91-.25-.62-.09-1.25-.17-1.88-.19-1.06-.03-1.81.25-2.78.57h0zm-2.57-.67a14.91 14.91 0 0 1 .71.27c-.1.02-.48.11-.57.13.02-.04.12-.22.14-.27-.05-.02-.24-.11-.29-.13h0zm52.73.27c-.31-.06-.62.17-.95.17-.74 0-1.46-.21-2.2-.17v-.27c-1.6.15-3.33.3-4.14 1.83-.24.44-.35 1.5-.71 1.79.29.71.29.36 0 1.07.53.02.49 1.06.75 1.46.33.5 1.24 1.12 1.54 1.36q.14-.2.29-.4v.54c.79-.07 1.31.51 2.14.54v.27q.14-.13.29-.27c.35.34.91.43 1.32.7 1.41.93 1.42 2.49.01 3.39a2.4 2.4 0 0 1-.89.33c-.52.1-1.06.09-1.59.13-.23-.73-1.33-.87-2.02-1.27-.44-.25-.51-.63-.98-.87q.14-.13.29-.27c-.72-.03-.28-1.28-1-1.61v.4h.29c-.26.3-.24.2-.25.7-.03 1.11-.02 2.21-.04 3.32 1.22-1.26 2.94-.38 4.45-.03.75.17 1.66-.11 2.34-.37.74-.28 1.07-.43 1.36-1.07 1.38.14 1.36-3.08 1.22-3.85-.3-1.54-2.9-3.08-4.5-2.98q.07-.13.14-.27c-1.61-.49-3.47-1.11-2.88-3.1.05-.16.15-.32.29-.42.76-.59 2.13-.56 3.02-.64.03.23-.02.2.23.35.5.31 1.05.56 1.53.9.58.42.4 2.02 1.24 2.1-.07-.62-.18-1.25-.2-1.88-.01-.57.64-1.98-.23-2.28q-.07.33-.14.67h0zm-52.01-.94v.54h-.71l.71-.54h0zm-.43-.54l.29.27a7.15 7.15 0 0 0-.29.27c-.02-.05-.12-.22-.14-.27-.05.02-.24.11-.29.13a15.7 15.7 0 0 1 .43-.4h0zm-.43-.27a5.76 5.76 0 0 0 .14.27c-.07.02-.36.11-.43.13l.29-.4h0zm-1.14-.4h.43c-.02.18-.12.89-.14 1.07l-.29-1.07h0zm1.14-.67c.13.44.06.46-.29.8q-.07-.33-.14-.67.14.13.29.27.07-.2.14-.4h0zm0-.54c.14.07.71.34.86.4h-.86v-.4h0zm-1-.13c.19.43.54.83.14 1.21q-.07-.6-.14-1.21h0zm1.71-1.21c.02.07.12.34.14.4h-.29c.02-.07.12-.34.14-.4h0zm-.43-.13v1.07q.29-.2.57-.4-.21.33-.43.67c-.53-.4-.3-.75-.14-1.34h0zm-1.57-.13h.29v.81c-.05-.13-.24-.67-.29-.81h0zm2.43.27c-.42-.33-.4-.41-.86-.27.38-.35.86-.25.86.27h0zm-2.29-.8q.21.34.43.67c-.37-.28-.43-.27-.43-.67h0zm.57-.13c.02.07.12.33.14.4-.05-.02-.24-.11-.29-.13.02-.04.12-.22.14-.27h0zm-1.29 0l.29.27c-.1.02-.48.11-.57.13l.29-.4h0zm3.14-.67q.07.4.14.8c-.29-.3-.24-.43-.14-.8h0zm-.71-.54h.29s-.12.22-.14.27c-.02-.04-.12-.22-.14-.27h0zm-2.43-.27c.07.02.36.11.43.13-.02.07-.12.34-.14.4l-.29-.54h0zm-3 .27c.6.45 1.59-.05 2.07.47.54.57-.16 2.29.64 2.35-.67.31-.24 1.38-.25 2.08l-.05 9.35c-.02 1.35-.08 2.7-.14 4.05-.05 1.07-1.08.86-1.98.88v.27h7.72c-.14-.62-.94-.28-1.13-1.05-.66-2.71-.3-6.31-.3-8.87h-.43c.07-.75.21-1.51.2-2.26 0-.22-.24-.4-.25-.62 0-.25.13-.49.2-.74-.11.75-.22.45.14.94-.02-2.53.05-5.05-.07-7.57-.01-.28-2.03.07-2.36.13a36.07 36.07 0 0 1-4 .6h0zm54.01-5.5l.29.13c-.07.02-.36.11-.43.13.02-.04.12-.22.14-.27h0zm20.86 0h1v-.4h-1v.4h0zm-5.29-.4l.29.13c-.02.04-.12.22-.14.27-.02-.07-.12-.33-.14-.4h0zm-17.29 0l.29.27h-.43s.12-.22.14-.27h0zm-27.29-.13l.57.4c-.07-.05-.36-.22-.43-.27-.02.04-.12.22-.14.27v-.4h0zm-5.86 0c.02.07.12.34.14.4-.05-.02-.24-.11-.29-.13.02-.05.12-.22.14-.27h0zm48.01-.13a15.7 15.7 0 0 0 .43.4h-.43v-.4h0zm-23.58-.13c.4.04.34.3.43.67q-.21-.34-.43-.67h0zm-9.15 0a15.7 15.7 0 0 0 .43.4c-.1-.02-.48-.11-.57-.13.02-.04.12-.22.14-.27h0zm-27.29 0v.4q-.14-.13-.29-.27-.07.2-.14.4c-.11-.46-.04-.54.43-.54h0zm11.72-.13l.29.27c-.07.02-.36.11-.43.13.02-.07.12-.33.14-.4h0zm68.59-.13c.02.07.12.34.14.4-.05-.02-.24-.11-.29-.13.02-.04.12-.22.14-.27h0zm-36.44 0l.29.13c-.02.04-.12.22-.14.27-.02-.07-.12-.33-.14-.4h0zm-19.43 0q.14.34.29.67.14-.07.29-.13c-.36.67-.57-.26-.57-.54h0zm34.87-.13h.29s-.12.22-.14.27c-.02-.04-.12-.22-.14-.27h0zm-60.02 0q-.07.27-.14.54c-.09-.36-.17-.39.14-.54h0zm49.87-.13l.43.54c-.1-.02-.48-.11-.57-.13.02-.07.12-.33.14-.4h0zm1.43-.27c0 .46 0 .67-.43.94q.14-.4.28-.8h-.43c.2-.09.35-.13.57-.13h0zm-41.15 0q.29.13.57.27c-.5.47-.89.62-1.57.8.27-.26.62-.44.43-.8h.86q-.14-.13-.29-.27h0zm23.86-.13a5.76 5.76 0 0 0 .14.27h-.29s.12-.22.14-.27h0zm-21.29 0c.15.36-.13.46-.43.67q.21-.33.43-.67h0zm32.44.27q-.21-.07-.43-.13v.4h-.57c.38-.34.49-.56 1-.4v.13h0zm-16.58-.4l.29.27h-.43s.12-.22.14-.27h0zm-19.29 0q.07.27.14.54c-.29-.14-.24-.26-.14-.54h0zm18.01.13l.29-.13c-.02.07-.12.33-.14.4-.05-.09-.17-.31-.14-.27h0zm.57-.4l.29.4c-.07.02-.36.11-.43.13.02-.09.12-.45.14-.54h0zm9.15-.13c.02.09.12.45.14.54h-.29c.02-.09.12-.45.14-.54h0zm-19.15 0h.29s-.12.22-.14.27c-.02-.04-.12-.22-.14-.27h0zm-21.72-.13c.07.07.19.18.14.13-.02.04-.12.22-.14.27v-.4h0zm55.01-.27c.02.16.12.78.14.94a20.58 20.58 0 0 1-.71-.27 10.15 10.15 0 0 0 .43-.27c-.07-.02-.36-.11-.43-.13a9.96 9.96 0 0 0 .57-.27h0zm-8.43 0a5.76 5.76 0 0 0 .14.27c-.07.02-.36.11-.43.13l.29-.4h0zm-44.3 0c.02.07.12.34.14.4-.05-.02-.24-.11-.29-.13.02-.04.12-.22.14-.27h0zm46.3-.13l.57.4c-.12-.02-.6-.11-.71-.13.02-.04.12-.22.14-.27h0zm-33.29-.13a5.76 5.76 0 0 0 .14.27c-.05.02-.24.11-.29.13.02-.07.12-.33.14-.4h0zm31.58-.13h.29s-.12.22-.14.27c-.02-.05-.12-.22-.14-.27h0zm17.58-.13c.41 0 .38.53.43.8-.47-.15-.43-.38-.43-.8h0zm-7.29 0a10.15 10.15 0 0 1 .43.27c-.05.02-.24.11-.29.13-.02-.05-.12-.22-.14-.27-.02.09-.12.45-.14.54.02-.11.12-.56.14-.67h0zm-57.59 0q-.21.47-.43.94-.07-.13-.14-.27c.39 0 .45-.39.57-.67h0zm56.3-.13c.31.17.25.21.14.54q-.07-.27-.14-.54h0zm-14.72 0l.29.4c-.07-.02-.36-.11-.43-.13.02-.05.12-.22.14-.27h0zm-.57 0l.29.4c-.07-.02-.36-.11-.43-.13.02-.05.12-.22.14-.27h0zm-1.71 0h.43c-.35.21-.22.46-.14.8q-.14-.4-.29-.8h0zm23.15.27c-.3-.56-.57.06-.57.4q.14-.07.29-.13-.07-.13-.14-.27.14.13.29.27-.21.13-.43.27-.14-.4-.29-.8c.42-.13.54-.01.86.27h0zm-7.57-.4c.07.02.36.11.43.13-.07.02-.36.11-.43.13v-.27h0zm-8.86 0l.29.4h-.29v-.4h0zm-29.44 0l.29.27c-.05-.02-.24-.11-.29-.13-.02.07-.12.33-.14.4.02-.09.12-.45.14-.54h0zm-16.15 0h.43v.54l-.43-.54h0zm47.87-.13l.29.13c-.07.02-.36.11-.43.13.02-.05.12-.22.14-.27h0zm-33.29 0h.29v.54l-.29-.54h0zm-.86 0q.14.13.29.27-.14-.07-.29-.13-.07.2-.14.4.21-.07.43-.13c-.17.38.25.78 0 1.47v-.27q-.29.07-.57.13.14-.27.29-.54-.29.13-.57.27.36-.34.72-.67h-.43q.14-.4.29-.81h0zm-14.29 0l.29.13c-.07.02-.36.11-.43.13.02-.05.12-.22.14-.27h0zm39.3-.27a5.76 5.76 0 0 0 .14.27c-.07.02-.36.11-.43.13l.29-.4h0zm-23.01 0l.29.27h-.43s.12-.22.14-.27h0zm-14 0q.21.27.43.54h-.29c.27.28.26.3.14.67-.3-.32-.46-.34-.29-.67h-.29q.14-.27.29-.54h0zm59.59-.13a5.76 5.76 0 0 0 .14.27h-.29s.12-.22.14-.27h0zm-29.58 0h.43v.4c-.07-.07-.36-.33-.43-.4h0zm31.15-.13q.21.2.43.4c-.3.32-.19.45 0 .8-.34-.43-.43-.67-.43-1.21h0zm-.43 0c.02.11.12.56.14.67h-.29c.02-.11.12-.56.14-.67h0zm2-.13h.29c-.28.26-.21.38 0 .67h-.43c.33-.19.23-.35.14-.67h0zm-8.86 0l.29.4c-.02-.04-.12-.22-.14-.27-.05.02-.24.11-.29.13.02-.04.12-.22.14-.27h0zm-57.16 0a15.7 15.7 0 0 0 .43.4h-.57l.29-.13c-.02-.04-.12-.22-.14-.27h0zm42.15-.13a5.76 5.76 0 0 0 .14.27c-.05.02-.24.11-.29.13.02-.07.12-.34.14-.4h0zm-25.01 0c.07.07.36.33.43.4h-.43v-.4h0zm-16.58 0h.43v.27a10.15 10.15 0 0 1-.43-.27h0zm55.44-.13c.18.25.26.42.57.27q-.07.27-.14.54-.21-.4-.43-.8h0zm-8.14 0a5.76 5.76 0 0 0 .14.27c-.05.02-.24.11-.29.13.02-.07.12-.33.14-.4h0zm-32.15.67a29.88 29.88 0 0 0 .57-.54c-.05-.02-.24-.11-.29-.13a19.05 19.05 0 0 0-.28.67h0zm-13.58-.67q.14.34.29.67c-.43-.13-.39-.28-.29-.67h0zm-.86 0q.07.27.14.54c-.29-.14-.24-.26-.14-.54h0zm58.44-.13a5.76 5.76 0 0 0 .14.27c-.05.02-.24.11-.29.13-.02-.04-.12-.22-.14-.27.05.02.24.11.29.13v-.27h0zm-3.72-.13c.42 0 .58.02.71.4q-.36-.2-.71-.4h0zm-6.14-.13c.07.02.36.11.43.13-.05.02-.24.11-.29.13-.02-.04-.12-.22-.14-.27h0zm-16.43 0c.07.02.36.11.43.13-.07.02-.36.11-.43.13v-.27h0zm-17.58 1.61c-.19-.44-.24-.69-.07-1.14 1.04-1.08.14 1.02.07 1.14h0zm-.71-1.61c.37.46.63 1.1-.14 1.34q.07-.67.14-1.34h0zm-14.86 0h.43v.4c-.07-.07-.36-.33-.43-.4h0zm58.44-.13l.29.27q-.14.07-.29.13.21.07.43.13c-.45.1-.6.1-.86-.27q.14.07.29.13.07-.2.14-.4h0zm-1.14.13q-.36.13-.71.27c.22-.32.32-.39.71-.27h0zm-17.43-.13c.07.05.36.22.43.27h-.43v-.27h0zm-.29 0v.27h-.57c.09-.04.48-.22.57-.27h0zm-22.01 0c.1.27.15.4-.14.54q.07-.13.14-.27-.14-.07-.29-.13.14-.07.29-.13h0zm48.01-.13h.29c-.02.07-.12.34-.14.4-.02-.07-.12-.33-.14-.4h0zm-17.72 0c-.11.32-.11.43.14.67q-.22-.13-.43-.27.14-.2.29-.4h0zm-1.43 0c.43.3.36.39.14.8.08-.47.17-.51-.14-.8h0zm-45.01-.13c.3.14.24.26.14.54q-.07-.27-.14-.54h0zm80.59-.13l.29.13c-.07.02-.36.11-.43.13.02-.04.12-.22.14-.27h0zm-17.15 0a5.76 5.76 0 0 0 .14.27h-.29s.12-.22.14-.27h0zm-6.86 0c.07.02.36.11.43.13-.05.02-.24.11-.29.13-.02-.04-.12-.22-.14-.27h0zm.71-.13c.42.21.42.28.71 0q.07.13.14.27c-.44.08-.7.18-.86-.27h0zm-2 0c.07.07.36.33.43.4a28.39 28.39 0 0 0-.86.27l.43-.67h0zm-9.43 0l.29.27h-.43s.12-.22.14-.27h0zm-16.15 0l.29.27c-.07.05-.36.22-.43.27.02-.09.12-.45.14-.54h0zm31.44-.13c.15.41.4.62 0 .8q.14.07.29.13h-.43q.07-.47.14-.94h0zm-13.43 0l.29.54h-.43c.02-.09.12-.45.14-.54h0zm-6.57 0c.02.07.12.33.14.4h-.29c.02-.07.12-.33.14-.4h0zm23.01-.13q-.07.2-.14.4-.21-.07-.43-.13c.19-.18.3-.27.57-.27h0zm-7.15-.13a5.76 5.76 0 0 0 .14.27c-.05.02-.24.11-.29.13.02-.07.12-.34.14-.4h0zm-2 0c-.16.4-.29.44-.71.54q.36-.27.71-.54h0zm1.72-.13q-.21.4-.43.8c-.19-.36.18-.57.43-.8h0zm-43.87 0h.43c-.13.37-.06.54-.43.54v-.54h0zm25.86-.13l.29.4c-.07-.02-.36-.11-.43-.13.02-.04.12-.22.14-.27h0zm-22.86 0q.22.07.43.13-.14.13-.29.27.25.23.5.47c-.29-.21-.5-.07-.79.07.47-.29.33-.5.14-.94h0zm24.58-.13l.29.4h-.29v-.4h0zm-41.58 0c.34.21.42.3.29.67q-.14-.34-.29-.67h0zm62.02-.13l.29.4c.05-.05.24-.22.29-.27-.02.09-.12.45-.14.54l-.43-.67h0zm-3.71 0c.77 0 .91.32 1.29.94-.45-.21-.57-.33-.57-.81q-.14.13-.29.27v-.27h-.43v-.13h0zm-24.86 0h.29s-.12.22-.14.27c-.02-.04-.12-.22-.14-.27h0zm23.01-.13c.63.15.52.41.43.94v-.4q-.21.07-.43.13v-.67h0zm-14.43 0h.29v.4h-.29v-.4h0zm-26.86 0c-.1.27-.15.4.14.54q-.21.07-.43.13-.07-.27-.14-.54.14.07.29.13.07-.13.14-.27h0zm40.01-.13c.07.02.36.11.43.13-.05.02-.24.11-.29.13-.02-.04-.12-.22-.14-.27h0zm-15.72 0h.29v.4l-.29-.4h0zm-14.58 0c.33.19.23.35.14.67q-.07-.34-.14-.67h0zm39.44-.13h.29s-.12.22-.14.27c-.02-.04-.12-.22-.14-.27h0zm-48.58 0q.07.27.14.54c-.3-.14-.24-.26-.14-.54h0zm-1.43 0a5.76 5.76 0 0 0 .14.27c-.05.02-.24.11-.29.13-.02-.04-.12-.22-.14-.27.05-.02.24-.11.29-.13h0zm61.73-.13q.28.2.57.4c-.37 0-.45-.07-.57-.4h0zm-17.72 0h.57c-.05.34.04.21-.29.4q.07-.13.14-.27-.21-.07-.43-.13h0zm-1.43 0a5.76 5.76 0 0 0 .14.27h-.29s.12-.22.14-.27h0zm-56.02-.13h.43c-.02.11-.12.56-.14.67-.05-.11-.24-.56-.29-.67h0zm61.73-.13h.43c-.02.07-.12.34-.14.4l-.29-.4h0zm-.29 0c.15.34-.03.43-.29.67q.14-.33.29-.67h0zm-4.43 0l.29.4c-.12.02-.6.11-.71.13.1-.02.48-.11.57-.13-.02-.07-.12-.34-.14-.4h0zm-8 .27q-.29-.07-.57-.13v.4q-.21-.07-.43-.13v.27c-.28-.67.62-.58 1-.4h0zm-33.44-.27c0 .35-.08.43-.43.54q.21-.27.43-.54h0zm42.01-.13q.29.07.57.13c-.39.08-.41.16-.57-.13h0zm-9.72 0c.07.02.36.11.43.13-.07.02-.36.11-.43.13v-.27h0zm-9.86-.13c.41.13.43.28.43.67q-.22-.34-.43-.67h0zm-24.58 0l.29.13c-.07.07-.36.33-.43.4.02-.09.12-.45.14-.54h0zm33.15-.13c.1.27.15.4-.14.54q.07-.27.14-.54h0zm-.43 0c.31.17.25.21.14.54q-.07-.27-.14-.54h0zm-6 0c.36.03.35.24.43.54q-.21-.27-.43-.54h0zm-25.72 0c0 .55-.04.69-.57.94q.21-.2.43-.4-.21-.2-.43-.4.21.13.43.27.07-.2.14-.4h0zm-15.15 0l.43.8h-.57c.02-.13.12-.67.14-.8h0zm55.3-.13q.29.07.57.13-.07.13-.14.27c.37.14.41 0 .71-.27q-.21.4-.43.8-.21-.34-.43-.67-.14.2-.29.4v-.67h0zm-13.43 0c.07.02.36.11.43.13-.05.02-.24.11-.29.13-.02-.04-.12-.22-.14-.27h0zm5.57-.27h.29s-.12.22-.14.27c-.02-.04-.12-.22-.14-.27h0zm-31.58 0c.02.11.12.56.14.67-.05-.02-.24-.11-.29-.13v.4c.02-.16.12-.78.14-.94h0zm25.15-.13c.02.07.12.34.14.4-.05-.02-.24-.11-.29-.13.02-.04.12-.22.14-.27h0zm-24.72 0h.29c-.02.13-.12.67-.14.8-.02-.13-.12-.67-.14-.8h0zm-14.43 0v.54q-.14-.2-.29-.4-.07.27-.14.54c-.1-.41-.08-.67.43-.67h0zm47.16-.13a5.76 5.76 0 0 0 .14.27h-.29s.12-.22.14-.27h0zm-2.86 0q-.07.54-.14 1.07h.43c-.67.24-.39.54.14.67q-.29.27-.57.54c.08-.41.21-.51-.14-.67q-.07.13-.14.27c.02-.25-.09-1.82.43-1.88h0zm-52.16 0h.29s-.12.22-.14.27c-.02-.04-.12-.22-.14-.27h0zm64.02-.13c.11.52.12.69-.29 1.07q-.14-.27-.29-.54.22.07.43.13.07-.33.14-.67h0zm-17.58 0c.1.02.48.11.57.13a10.15 10.15 0 0 0-.43.27c.02-.04.12-.22.14-.27-.05-.02-.24-.11-.29-.13h0zm-41.3 0q.29.27.57.54c-.46-.03-.47-.15-.57-.54h0zm65.02-.13c.35.39.44.38.29.8q-.14-.4-.29-.8h0zm-5.86 0h.29v.4h-.29v-.4h0zm4-.13q.29.13.57.27-.21.07-.43.13.07-.13.14-.27c-.37.03-.33.19-.43.54q-.14-.27-.29-.54.14.07.29.13.07-.13.14-.27h0zm-6.43 0c.3.14.24.26.14.54q-.07-.27-.14-.54h0zm-23.86 0h.29v.4l-.29-.4h0zm-22.15 0a15.7 15.7 0 0 0 .43.4 10.15 10.15 0 0 1-.43-.27c-.02.04-.12.22-.14.27.02-.07.12-.33.14-.4h0zm-9.43 0c-.22.4-.3.39 0 .67q-.29.07-.57.13c.07-.41.04-.8.57-.8h0zm64.16-.13h.29v.4l-.29-.4h0zm-17.15 0c.09.41.19.66-.29.8q.07.13.14.27-.36.07-.71.13c.49-.39.86-.59.86-1.21h0zm16.72-.14a5.76 5.76 0 0 0 .14.27h-.29s.12-.22.14-.27h0zm-6.57 0h.29v.54l-.29-.54h0zm.43-.13l.29.13c-.02.05-.12.22-.14.27-.02-.07-.12-.33-.14-.4h0zm-1.29 0l.29.13c-.02.05-.12.22-.14.27-.02-.07-.12-.33-.14-.4h0zm-15.15-.13c.39.04.36.36.43.67q-.21-.33-.43-.67h0zm20.86-.13q.07.27.14.54c-.3-.14-.24-.26-.14-.54h0zm-31.29 0c.05.09.24.45.28.54-.09-.02-.48-.11-.57-.14l.29-.4h0zm-31.01 0l.29.27h-.43s.12-.22.14-.27h0zm64.16-.13l.29.13a10.15 10.15 0 0 0-.43.27c.02-.07.12-.33.14-.4h0zm-9.29 0c.02.07.12.34.14.4-.05-.02-.24-.11-.29-.13.02-.04.12-.22.14-.27h0zm-30.01 0c.02.07.12.34.14.4-.05-.02-.24-.11-.29-.13.02-.04.12-.22.14-.27h0zm-14.72 0c-.02.09-.12.45-.14.54-.1-.02-.48-.11-.57-.13.12-.07.6-.33.71-.4h0zm-1.86 0h.29v.81h-.29v-.81h0zm7-.13q.29.4.57.8-.21-.14-.43-.27c-.1.39-.14.54.29.67-.7-.16-.51-.61-.43-1.21h0zm40.58-.13v.94c-.09-.04-.48-.22-.57-.27-.02.07-.12.34-.14.4.02-.11.12-.56.14-.67.07.02.36.11.43.13.02-.09.12-.45.14-.54h0zm-55.87 0a5.76 5.76 0 0 0 .14.27h-.29s.12-.22.14-.27h0zm57.3-.13c.07.02.36.11.43.13l-.29.54c-.02-.11-.12-.56-.14-.67h0zm19.29-.13a5.76 5.76 0 0 0 .14.27h-.29s.12-.22.14-.27h0zm-34.87.13q-.29.07-.57.13c.15-.28.27-.22.57-.13h0zm7.15-.54a5.76 5.76 0 0 0 .14.27c-.05.02-.24.11-.29.13.02-.07.12-.33.14-.4h0zm-7.57 0q.29.07.57.13c-.39.08-.42.16-.57-.13h0zm-27.29 0q.07.27.14.54c-.3-.14-.24-.26-.14-.54h0zm49.73-.13c.06.44.24.62-.14.8q.07-.4.14-.8h0zm-16.15 0c-.1.6-.28 1.41-.57.4q.14.07.29.13.14-.27.29-.54h0zm-33.01 0q.07.13.14.27.14-.07.29-.13c0 .59.02.92-.43 1.34q.21.13.43.27c-.49-.18-1-.67-.14-.67v-.27q-.21.07-.43.13v-.54q.14.07.29.13-.07-.27-.14-.54h0zm34.72-.13c.47.15.43.38.43.8h-.57q.07-.4.14-.8h0zm-32.15 0h.29s-.12.22-.14.27c-.02-.04-.12-.22-.14-.27h0zm-1.57-.13q.29.07.57.13c-.85.09-.04 1.31.14 1.61q-.21-.33-.43-.67-.14.13-.29.27.07-.27.14-.54h-.43q.22-.07.43-.13-.14-.13-.29-.27h.29q-.07-.2-.14-.4h0zm-1.72 0a5.76 5.76 0 0 0 .14.27c-.05.02-.24.11-.29.13.02-.07.12-.34.14-.4h0zm41.58-.13q.36.4.71.8c.47-.44.9-.44.72.27q-.07-.27-.14-.54c-.26.37-.48.45-.29.8q.14-.07.29-.13c-.33.25-.45.23-.29.54q-.5-.87-1-1.74h0zm-15.72 0c-.33.25-.45.23-.29.54-.56-.42-.34-.52.29-.54h0zm23.86-.13h.43c0 .5-.42.47-.86.54q.07-.2.14-.4.07.13.14.27.14-.07.29-.13-.07-.13-.14-.27h0zm-8.57 0l.29.13c-.02.04-.12.22-.14.27-.02-.07-.12-.34-.14-.4h0zm-22.72 0q.07.2.14.4c-.19-.09-.09-.05-.3-.1q.08-.15.15-.3h0zm.43-.13c.02.07.12.34.14.4-.05-.02-.24-.11-.29-.13.02-.04.12-.22.14-.27h0zm-15.29 0q-.22.07-.43.13.07.13.14.27-.21-.07-.43-.13c.24-.22.38-.26.72-.27h0zm46.87-.13q.29.07.57.13c-.39.08-.42.16-.57-.13h0zm-8.29 0h.29v.54l-.29-.54h0zm-7.14 0c.02.13.12.67.14.8-.02-.09-.12-.45-.14-.54-.05.02-.24.11-.29.13l.29-.4h0zm-41.73 0q.14.27.29.54c-.29.14-.24.26-.14.54h-.29q.07-.54.14-1.07h0zm34.72 0c-.18.29-.22.23-.57.13.21-.2.29-.25.57-.13h0zm-25.72-.13a10.15 10.15 0 0 1 .43.27c-.07.02-.36.11-.43.13v-.4h0zm-.57 0c.07.02.36.11.43.13a7.15 7.15 0 0 0-.29.27c.05.02.24.11.29.13h-.43v-.54h0zm34.44-.13h.43v.27h-.43v-.27h0zm-34.72 0q-.07.33-.14.67c-.09-.4-.13-.41.14-.67h0zm49.3-.13h.29s-.12.22-.14.27c-.02-.04-.12-.22-.14-.27h0zm-58.02.27h.29s-.12-.22-.14-.27c-.02.04-.12.22-.14.27h0zm43.01-.54q.07.34.14.67c-.33-.19-.23-.35-.14-.67h0zm-17.72 0c.07.02.36.11.43.13a3.84 3.84 0 0 0-.29.14c-.02-.04-.12-.22-.14-.27h0zm-15.15 0l.29.13c-.02.05-.12.22-.14.27-.02-.07-.12-.34-.14-.4h0zm48.58-.13a9.96 9.96 0 0 1 .57.27c-.1.02-.48.11-.57.14v-.4h0zm-10.72 0q.21.27.43.54h-.29v.4q.21-.07.43-.13c-.21.35-.19.54-.57.54.17-.57-.31-.75 0-1.34h0zm-15 0c.34.19.23.3.14.67q-.07-.33-.14-.67h0zm-.71 0c.4.09.57.13.57.54h-.43q.14-.2.29-.4-.22-.07-.43-.13h0zm11.43-.13q.07.27.14.54c-.3-.14-.24-.26-.14-.54h0zm.29-.13h.29s-.12.22-.14.27c-.02-.04-.12-.22-.14-.27h0zm18.72-.13a5.76 5.76 0 0 0 .14.27h-.29s.12-.22.14-.27h0zm-65.34.75c.71-.71 2.16-.95 2.47.19q.14-.2.29-.4.29.2.57.4c-.24.22-.38.42-.71.27 1.06 3.21-.42 2.81-3.57 2.81.15-.98.16-2.46.96-3.27h0zm61.05-.22q-.14-.07-.29-.13c-.32.54-.82.52-1.14 1.07-.78-.28-2.5 2.29-2 3.08-.91.25-.9 4.42.14 4.83q-.07.2-.14.4c.5.13.29.44.86.54q-.07.2-.14.4.14-.07.29-.13c.27 1.16 1.52 1.59 2.55 1.94 2.87.97 5.98.24 7.45-2.48-1.41.08-1.99 2.09-3.5 1.92-4.82-.54-4.42-7.77-2.84-10.71.5-.92 2.73-1.88 3.3-.49.45 1.09-.54 2.01.09 3 .53.82 2.44.76 2.82-.18.37-.9-.05-1.69-.69-2.33-1.41-1.42-3.75-1.59-5.69-1.32-.41.06-.88.25-1.07.6h0zm-16.58.54c-1.01.06-1.47.99-2.07 1.73-.26.32-.21.45-.22.82q-.14-.07-.29-.13-.07.13-.14.27h.43v.54l-.43-.27c-.36 1.21-.4 2.5-.43 3.75.53.02.38.91.43 1.21l.43-.13c-.19 1.08.94 1.19.72 1.88h.57c-.4.44.07.78.57.8q-.07.13-.14.27c.32.12.74.24.86.54q.14-.13.29-.27c1.03 1.54 5.86 1.22 7-.27q.14.07.29.13-.07-.13-.14-.27h.57q-.07-.2-.14-.4.21.13.43.27v-.54q.14.13.29.27c.12-.54.64-.56.57-1.07 1.04-.03 1.56-3 1.57-3.75q-.14.07-.29.13v-.27h.29v-.4q-.29.13-.57.27v-.54q.21.07.43.13c-.14-.88.04-1.25-.71-1.61q.14-.2.29-.4c-.3-.11-.36-.51-.43-.8q-.14.07-.29.13.07-.2.14-.4h-.43c.03-.63-.39-1.01-1-1.21v.54c-.25-.4-.46-.82-.75-1.19-.19-.24-.75-.25-.96-.28q.07-.13.14-.27-.22.13-.43.27v-.4q-.21.13-.43.27c-.34-.62-1.67-1.03-2-.27 1.27-.07 1.08 1.2 2 .94-.37 1.3.57 3.16.57 4.56h-.29c.03.96.11 1.92.09 2.88-.02.77-.72 2.15-.09 2.75-.47.09-.73.59-1.05.93-.75.8-1.9.57-2.52-.13q-.14.2-.29.4v-.67c-.77-.17-.84-1.8-.86-2.41h-.29c.09-.73.26-.5-.29-.81.49-.29.34-.88-.14-1.07h.43q-.14-.07-.29-.13c.28-.16.24-.08.23-.55 0-1.02-.06-2.04-.09-3.07h.29q-.14-.27-.29-.54h.43q-.07-.47-.14-.94.14.07.29.13c.17-.32.02-.73.14-1.07.04-.1.24-.04.32-.12.4-.4.75-1.38 1.54-1.09v-.4c-.72.04-3.61.51-3.71 1.34h0zm-9.72-1.34a5.76 5.76 0 0 0 .14.27h-.29s.12-.22.14-.27h0zm-21.29.27c-.75-.07-.98.32-1.72.4v.27q-.21-.07-.43-.13.07.13.14.27c-1.26-.12-2.85.38-4.07.54q.03.16.05.32.37-.09.73-.18v.27h1.14q.14 1.34.29 2.68.29-.07.57-.13-.29.13-.57.27c.44.59.43.31.29.8q-.14-.13-.29-.27l.09 4.56c0 .7.02 1.4-.12 2.09-.18.89-1.42.38-1.97.99q3.93-.13 7.86-.27c-.86-.22-1.49-.09-1.66-1.06-.12-.67-.04-1.35-.05-2.03h-.29v-.27q.14.07.29.13-.07-3.55-.14-7.1.14.07.29.13c.19-.55 0-.43.43-.54q-.07-.13-.14-.27c.67-.3 2.67-1.05 3.14.07.32.75-.28 2.24.57 2.35-.07.12-.2.22-.21.35-.14 2.32-.07 4.64-.24 6.95-.03.36-.11.75-.36 1.02-.22.24-.72.13-.91.39q3.57.07 7.14.13c-.1-.38-.81-.26-1.1-.54-.88-.84-.59-2.3-.61-3.47-.03-1.9-.05-3.81.06-5.71.09-1.4 2.17-2.8 3.45-1.74.25.2.36.6.37.89l.21 9.11c.02 1.16-.47 1.04-1.67 1.46q3.79.07 7.57.13v-.4c-.4.03-1.1.19-1.48-.13-.44-.37-.49-1.49-.51-1.88-.04-1.03 0-2.06-.01-3.09h-.29c.33-.2.25-.1.25-.72 0-1.29.03-2.58-.09-3.87-.34-3.79-7.23-3.99-7.73-.77-.14 0-1.03-1.42-1.52-1.65-1.08-.49-2.29-.53-3.45-.47-1.48.07-2.22 1.04-3.17 1.98-.02-.72.13-1.54-.29-2.15q.07.13.14.27h0zm-18.86 5.09c-.86.75-.08 3.4.29 4.42q.07-.13.14-.27.14.07.29.13c-.69 1.09 1.85 2.52 2.64 2.95.79.42 1.76.57 2.64.67 2.84.31 4.39-.84 5.91-3.03.29-.41.22-.53.23-.99-.4.16-.48.68-.71 1.02-.44.64-.96 1.23-1.68 1.59-.83.41-1.09.14-1.32.88-.4-.77-1.49-.5-2.17-1.04-.31-.25-.74-1.03-1.26-.84.13-1.98-2.61-5.54 1.43-5.85 1.64-.13 3.28-.15 4.92-.25.08 0 .15-.04.22-.06v-.13q.29.07.57.13c-.16-.98-.59-3.33-2-3.48q.07-.13.14-.27c-.6-.17-2.3-1.14-2.86-.54v-.4c-3.17.08-5.79 1.17-7.14 3.96-.11.23-.7 1.13-.29 1.41h0zm42.58-5.76l.29.27h-.43s.12-.22.14-.27h0zm-1.29 0q-.07.27-.14.54c-.09-.36-.17-.39.14-.54h0zm-1-.27l.29.27h-.43s.12-.22.14-.27h0zm2-.4v.27h.43a9.96 9.96 0 0 0-.57.27c.02-.09.12-.45.14-.54h0zm-1-.13q.29.4.57.8c-.45-.21-.57-.33-.57-.8h0zm-.57-.13l.29.4c-.07-.02-.36-.11-.43-.13.02-.05.12-.22.14-.27h0zm.43-.4l.29.13c-.07.07-.36.33-.43.4.02-.09.12-.45.14-.54h0zm-.14-.27q-.29.07-.57.13c.15-.28.27-.22.57-.13h0zm1-.67h.29s-.12.22-.14.27c-.02-.04-.12-.22-.14-.27h0zm-1.57-.13l.57.13c-.1.02-.48.11-.57.13v-.27h0zm1.14-.4h.29v.4l-.29-.4h0zm-1.43-.4c.07.02.36.11.43.13-.05.02-.24.11-.29.13-.02-.05-.12-.22-.14-.27h0zm39.01-.13h.29c-.02.07-.12.33-.14.4-.02-.07-.12-.34-.14-.4h0zm-38.3-.27c.3.28.24.94-.29.94.2-.33.48-.57.29-.94h0zm1.57-.13a5.76 5.76 0 0 0 .14.27h-.29s.12-.22.14-.27h0zm35.44-.27a5.76 5.76 0 0 0 .14.27h-.29s.12-.22.14-.27h0zm-35.58-.13a5.76 5.76 0 0 0 .14.27h-.29s.12-.22.14-.27h0zm36.15-.67c.07.02.36.11.43.13-.05.02-.24.11-.29.13-.02-.04-.12-.22-.14-.27h0zm-36.15-.13q.14.27.29.54c-.33-.25-.45-.22-.29-.54h0zm36.3-.27l.29.27h-.43s.12-.22.14-.27h0zm-3.43 0c.48.19.38.37.29.8-.22-.39-.3-.39 0-.67l-.29-.13h0zm-33.15-.27a15.7 15.7 0 0 0 .43.4c-.05-.02-.24-.11-.29-.13-.02.05-.12.22-.14.27v-.54h0zm-.43-.13q-.07.27-.14.54c-.09-.36-.17-.39.14-.54h0zm2.43-.13c.02.07.12.33.14.4-.05-.02-.24-.11-.29-.13.02-.04.12-.22.14-.27h0zm31.87-.13q.21.34.43.67c-.37-.28-.43-.27-.43-.67h0zm-34.44-.13a5.76 5.76 0 0 0 .14.27c-.07.02-.36.11-.43.13l.29-.4h0zm-1.43-.27l.29.13c-.02.04-.12.22-.14.27-.02-.07-.12-.34-.14-.4h0zm36.01-.13l.29.27c-.07.02-.36.11-.43.13a7.54 7.54 0 0 0 .28-.13c-.02-.05-.12-.22-.14-.27h0zm-32.01 0c.31.17.25.21.14.54q-.07-.27-.14-.54h0zm-2.86-.27h.72c-.07.02-.36.11-.43.13l.29.4c-.09-.09-.48-.45-.57-.54h0zm1-.13l.29.27h-.43s.12-.22.14-.27h0zm-2-.13c.16.3-.02.37-.29.54l.29-.54h0zm-57.59 1.07c.43.11.87.17 1.28.32.81.3.94 2 .97 2.41.11 1.42.12 2.85.13 4.27l-.06 8.13c-.03 1.2-.01 2.41-.2 3.59-.09.57-1.21.28-1.83.3v.27h7.72c-.09-.35-.75-.27-1-.54-.78-.87-.53-2.24-.55-3.38-.02-1.67.01-3.35.07-5.02.02-.57.06-1.58.48-2.14.91-1.22 2.74-1.04 3.12.44.78 3.04.49 7 .2 9.97-.05.51-1.06.25-1.6.27v.54h7.43v-.4c-.55-.02-1.58.19-1.61-.32-.14-1.9-.07-3.81-.1-5.71h-.29c.34-1.03.27-2.15.25-3.23 0-.42.01-.34-.25-.52.47-.28-.1-1.03-.28-1.32-.35-.58-.99-1.07-1.65-1.31-2.53-.92-4.15.16-5.94 1.69l-.02-6.75c-.02-.9.06-1.85-.27-2.7-1.99.43-4 .77-6 1.14h0zm60.59-1.47a5.76 5.76 0 0 0 .14.27c-.05.02-.24.11-.29.13.02-.07.12-.33.14-.4h0zm-1.29 0q-.07.27-.14.54c-.36-.17-.25-.54.14-.54h0zm-1.71-.27h.29v.4l-.29-.4h0zm-.43 0l.29.13a7.17 7.17 0 0 0-.43.14c.02-.05.12-.22.14-.27h0zm1.57-.13a10.15 10.15 0 0 1 .43.27h-.43v-.27h0zm.86-.13c.02.09.12.45.14.54h-.29c.02-.09.12-.45.14-.54h0zm.86-.13l.29.13a10.15 10.15 0 0 0-.43.27h.43c-.1.11-.48.56-.57.67l.29-1.07h0zm-1.14-.13h.29s-.12.22-.14.27c-.02-.04-.12-.22-.14-.27h0zm34.72-.13c.07.02.36.11.43.13-.05.02-.24.11-.29.13-.02-.04-.12-.22-.14-.27h0zm-34.58-.27a5.76 5.76 0 0 0 .14.27h-.29s.12-.22.14-.27h0zm1.29-.13l-.29.54q-.21-.13-.43-.27c.24-.22.38-.26.72-.27h0zm-1.86 0c.07.02.36.11.43.13-.05.02-.24.11-.29.13-.02-.04-.12-.22-.14-.27h0zm-.86-.13q.14.33.29.67c-.3-.32-.46-.34-.29-.67h0zm-1-.13q.07.27.14.54c-.29-.14-.24-.26-.14-.54h0zm4.14-.13q.14.13.29.27-.14.07-.29.13.21.13.43.27-.29-.07-.57-.13c.03.44.18.48.57.67h-.29v.4q.22-.07.43-.13-.21.27-.43.54.29-.07.57-.14c-.24.15-.42.27-.71.27.12-.91-.29-1.17-.29-2.01q.14.07.29.13v-.27h0zm35.58-1.74h.29s-.12.22-.14.27c-.02-.04-.12-.22-.14-.27h0zm-1.43-1.47a5.76 5.76 0 0 0 .14.27h-.43l.29-.27h0zm-38.3 0c.02.07.12.33.14.4h-.28c.02-.07.12-.34.14-.4h0zm-.43-.81l.29.4h-.29v-.4h0zm4.29-.27c.05.11.24.56.29.67h-.43c.02-.11.12-.56.14-.67h0zm.29-.67q-.07.27-.14.54c-.36-.17-.25-.54.14-.54h0zm-.43-.4h.43v.27a10.15 10.15 0 0 1-.43-.27h0zm31.15 7.11h.28c-.35 1.49.13 2.75.86 4.14.18.34.59.57.71.93.19.59.19 1.22.2 1.83l.02 12c-.02.98-.72 1.05-.93 1.88.51.02 1.02-.06 1.52.05.16.04.17.36.34.35.55-.03 1.03-.41 1.57-.47 1.09-.12 2.19-.05 3.29-.07-.21-.4-.87-.37-1.24-.64-.51-.37-.54-1.84-.55-2.16-.02-1.26.05-2.51.07-3.77.18.28.32.59.55.84.11.12.35.1.45.24.1.15 0 .36.09.52.78 1.34 1.76 2.58 2.5 3.94.1.19-.01.42-.02.64q-.57.07-1.14.13c.03.07 0 .21.09.22.76.11 1.53.13 2.3.13 1.92.01 3.84-.06 5.76-.08-.28-.36-.91-.29-1.3-.53-.42-.26-.76-.64-1.07-1.01a48.6 48.6 0 0 1-2.41-3.15c-1.02-1.45-2.25-2.81-2.93-4.42-.14-.34.42-.63.68-.89.6-.6 1.23-1.18 1.91-1.7.76-.56 1.82-.08 2.41-.76h-.57v.27c-1.6-.45-3.33-.25-5-.27.47.48 1.31.51 2 .54-.02.11.03.24-.05.33a40.2 40.2 0 0 1-2.47 2.9c-.54.57-1.18 1.06-1.77 1.59l.09-7.71c.01-.42.04-.84.2-1.23.2-.5.63-.89.85-1.38.73-1.58.89-4.4.48-6.07-.2-.8-.5-1.58-.91-2.3-1.14-1.99-3.53-3-5.29-.87-1.39 1.68-1.55 4.02-1.57 6.03h0zm-31.15-8.04h.29c-.98 1.23.03 2.86-.43 4.15.52-.49.52-.68.29-1.34.42 0 .46.51.57.8v-.8h-.29c.53-.28.36-1.94-.29-2.15.31-.49.24-.6.14-1.21-.06.22-.07.42-.29.54h0zm-4 .8q.21-.07.43-.13v.27h-.57c.34.5.26.2 0 .94q.21-.07.43-.13c0 .67-1.32.76-.29 1.88h-.29c-.01 1.3.04 2.59-.04 3.89-.02.41-.23.8-.25 1.21-.04 1.04.85 1.71.88 2.71.14 5.4.29 10.82 0 16.22-.06 1.08-1.66.41-2.17 1.04.84.03 1.68.12 2.52.08.31-.01.6-.22.91-.22 1.34.01 2.67.18 4 .27v-.4c.34.43.53.41.99.11-.64-.16-1.59-.1-1.86-.67-.25-.52-.16-1.32-.71-1.58h.43v-1.21q-.21.13-.43.27c.52-.59.54-1.31.38-2.08-.05-.25-.34-.5-.23-.74q.14.13.29.27l.02-11.47c.01-.65 1.39-2.36.41-2.61.81-.28.09-1.67.05-2.11-.08-.85-.03-1.72-.13-2.57-.01-.11-.14-.18-.21-.28-.36.69-.08.59-.71.54.29.79.54 1.79-.57 1.88l-.08-6.27c0-.25-.03-.22-.21-.3q-.07.13-.14.27-.07-.13-.14-.27-.07 3.22-.14 6.43.14-.07.29-.13c0 .38-.64.48-1 .67.25-.44.07-.99.05-1.49-.02-.71.06-1.42.09-2.13h-.29c.51-.33.39-1.24-.14-1.47.37-.22.29-.56.29-.94h-.29q.14-.54.29-1.07h-.29c-.02 2.14.05 4.29-.07 6.43-.03.5-.6.47-.93.54v-4.02q-.14.07-.29.13c.36-.59.27-.28.29-.94q-.14.07-.29.13.14-.13.29-.27-.14-.13-.29-.27c.42-.51.53-1.43-.14-1.74q-.07.67-.14 1.34h0z"/><path d="M297.85 717.76h.23v-.32h-.23v.32h0zm3.37-.74h.34v.21h-.34v-.21h0zm12.36-.53h.34v.95q.28-.1.56-.21-.17.26-.34.53h.34v.32q-.28-.16-.56-.32v.53h-.34v-1.79h0zm14.84-.32h.34v.32h-.34v-.32h0zm-11.46 0h.22v1.58h-.22v-1.58h0zm-8.65-.21h.34v1.05h-.34v-1.05h0zm-10 0h.34v.53h-.34v-.53h0zm30.12-.53h.34v.32h-.34v-.32h0zm-38.44 0h.22v.74h-.22v-.74h0zm26.98-.21h.22v.74h-.22v-.74h0zm-3.37-.32h.34v.53h.23c-.12.36-.11.74-.56.74v-1.26h0zm-5.28 0h.34v.32h-.34v-.32h0zm31.13-.21h.34v.21h-.34v-.21h0zm-3.48 0h.34v1.05h-.34v-1.05h0zm-6.63 0h.22v.53h-.22v-.53h0zm-39.11 0v.53h-.45c.1-.24.14-.5.45-.53h0zm28.32-.42h.22v.63h-.22v-.63h0zm17.42-.21h.34v.32h-.34v-.32h0zm-7.53 0h.34v.21h-.34v-.21h0zm-18.77 3.99h.56v-3.99h-.56v3.99h0zm19.67-4.31h.22v.32h-.22v-.32h0zm-10.79 0h.22v.32h-.22v-.32h0zm-25.96 0h.34v.32h-.34v-.32h0zm-1.8 0h.34v2.73h-.34v-2.73h0zm16.18.32h-.56v2.42h.22c-.36.33-.21.81-.22 1.26h.22v.32h1.69v-.84c.54 0 .39.69 1.01.84v-4.31h-.22v.32h-.79v-.63h-.56v.32h.22c-.02.38-.32.44-.39.84-.15.79-.05 1.61-.06 2.42h.23v.74h-.56v-4.31h-.23v.63h0zm26.3-.84h.34v.52h-.34v-.52h0zm-35.18 0v3.26h-.23v-1.05h-.34v-.21h.34v-.95h-.34v-.84c.44 0 .26.07.56-.21h0zm27.65 0v4.2h.9v-.21h.45v-4.2h-.45v4.2h-.34v-4.2c-.31.28-.12.21-.56.21h0zm-12.14-.42h.34v.21h-.34v-.21h0zm19.67-.32h.34v.53h-.34v-.53h0zm-22.59 0h.22v.32h-.22v-.32h0zm-7.53 0h.34v.32h-.34v-.32h0zm-1.91 0h.34v.32h-.34v-.32h0zm-3.71 0h.34v.32h-.34v-.32h0zm-5.06.32h-.34v3.89h.79v-2.63h.34v2.63q.51-.11 1.01-.21c.03.89 2.01.69 2.47.74v-4.41q-.95.11-1.91.21v-.53h-.22v.53q-.34-.11-.67-.21-.06 1.21-.11 2.42c0-.66.35-2.08-.56-2.42v.95h-.34v-.32q-.12-.01-.25-.03-.1-.46-.2-.92v.32h0zm9.33-.63h.34v.63h-.34v-.63h0zm-13.15-.42h.34v.21h-.34v-.21h0zm7.87.21h.23v-.42h-.23v.42h0zm39.23 3.99c.07 0 .98.08 1.01-.21.14-1.39.24-2.82 0-4.2-.05-.26-.52-.21-.79-.32l-.22 4.73h0zm-47.1-4.73h.34v.32h-.34v-.32h0zm49.46 0h-1.01v4.52h.22v-.32h.34v.32h.45c.03-.39.41-.4.46-.81.18-1.32.09-2.17.1-3.71h-.23v-.32h-.34v.32h0zm-4.83-.32h.34v.32h-.34v-.32h0zm-17.42-.42h.22v1.05h-.22v-1.05h0zm-18.88-.53v.53h-.45c.1-.24.15-.5.45-.53h0zm19.33-.32h.34v.32h-.34v-.32h0zm-18.77 0h.56c0 .79.18 1.61.56 2.31h-.79v-1.79h-.34v-.52h0zm23.38-.21h.23v1.05h-.23v-1.05h0zm-5.06 0h.22v.74h-.22v-.74h0zm12.36-.53h.79v2.31q-.67.16-1.35.32v-2.31h.56v-.32h0zm-24.5 0h.22v.32h.34v.42c-.45-.17-.56-.27-.56-.74h0zm-5.85 0h.23v.32h-.23v-.32h0zm-6.63-.21h1.69v2.52h-1.69v-2.52h0zm47.21.95h.23v-1.26h-.23v1.26h0zm-35.52-1.26h.23v.32h.34v.53h-.9v-.53h.34v-.32h0zm-4.61 0h.34v.32h-.34v-.32h0zm.34-.74h.22v.31h-.22v-.31h0zm37.09.31h.22v-.52h-.22v.52h0zm-4.16-.31h.34v-.21h-.34v.21h0zm-15.73-.53h.22v.32h-.22v-.32h0zm4.72-.21h.34v.21h-.34v-.21h0zm-33.72 0h.23v.74h-.23v-.74h0zm33.72-.53h.34v.32h-.34v-.32h0zm-8.54 7.67h-.23l.03 2.6c0 .35.01.27.2.55h-.23v.84h-.56v-3.99h-.56v.63h-.23v2.31h.23c-.21.3-.21.69-.23 1.05h.79v.21h1.01v-11.88h-.23v7.67h0zm23.72-7.15h.22v-.74h-.22v.74h0zm-19.45-.74h.34v.21h-.34v-.21h0zm-19 0h.22v.53h-.22v-.53h0zm18.55-.32h.22v.32h-.22v-.32h0zm19.89-.21h.56v-.21h-.56v.21h0zm-15.17-.21h.34v.74h-.34v-.74h0zm-5.84 0l.22.21h-.22v.52h-.23l.23-.74h0zm-16.64 0h.23v.42h-.23v-.42h0zm25.85-.32h.22v.32h-.22v-.32h0zm-37.09 0h.23v.32h-.23v-.32h0zm10.45-.42h.22v1.16h-.22v-1.16h0zm11.58-.32h1.8v2.52q-.79.11-1.57.21h1.57v5.05q-.79.16-1.57.32.28-.26.56-.53h-.56c-.32-2.51-.23-5.04-.23-7.57h0zm-8.65 0h.67v1.05h.34v-1.05c1.05.02 1.12.05 1.35 1.05h-.22c0 .35-.06.68.22.95h-.22v.32h.56q-.17.21-.34.42h.34v.32q-.56-.16-1.12-.32v.32h-.23v-.32h-.34v-1.26h-.34v1.58c-.21-.35-.26-.32-.67-.32v-2.73h0zm-1.35 0h1.12v2.73h-1.12v-2.73h0zm7.31 0h-.34v.74h.34v6.62h.22q-.11.37-.22.74.22-.16.45-.32v.32h.9c.06.3-.02.26.46.3l3.25.22v-4.84h-.34v-.53h.34v-.21h-.34v-.32h.34v-.21h-.34v-2.73h-2.59v7.78h-.79v.21c-1.28-.3-.86-1.34-.9-2.52h1.12v-.21h-1.12v-5.26h-.45v.21h0zm19.56 7.78c.76-.06 1.57.09 2.27-.17 1.34-.49 1.42-2.47 1.44-3.41.02-1.65-.19-3.29-.28-4.94q-.08 1.26-.17 2.52h-.79q.39.11.79.21v2.31c-.97.26-.51.21-1.35.21q-.11-2.63-.22-5.26v8.09q-.56.1-1.12.21-.11-2.63-.23-5.25h.56v-.32h-.56v-2.42h1.01v-.32h-1.35v8.52h0zm-34.96-1.47h.34c-.48.3-.72 1.22.11 1.26h4.16v-8.3q-.11 1.26-.23 2.52h-1.35q.67.11 1.35.21v2.31h-1.24l1.24.21v2.31h-1.35q-.17-3.78-.34-7.57h-.9q.17 2.37.34 4.73h-1.69v-2.21h.67v-.32h-.67v-2.21h-.45v7.04h0zm-1.01-7.25h.22v.95h-.22v-.95h0zm26.08-.32h.22v.32h-.22v-.32h0zm-17.53 0v.52h-.45c.1-.24.14-.49.45-.52h0zm-1.01-.21h.22v.74h-.22v-.74h0zm38.44 0h1.35v2.21h-.56v.32h.56v4.73H336v-1.47h-.22v2c1.02 0 2.92.56 2.92-.74h-1.35v-1.58h.34q-.17-.11-.34-.21c.11-.07.33-.08.34-.21.11-1.43 0-2.87 0-4.31h-.34c0-.33.04-.76.34-.95h-1.91v.21h0zm2.36-.21h.34v4.73c0 .13-.22.14-.34.21h.34v.53h.23v-5.78h-.56v.31h0zm-23.6-.31h.23v.31h-.23v-.31h0zm10.79-.52h.22v.32h-.22v-.32h0zm-13.04 0h.34v.32h-.34v-.32h0zm0-.42h.34v.21h-.34v-.21h0zm13.04-.84h.22v1.05h-.22v-1.05h0zm4.5-.21h.34v.74h-.34v-.74h0zm-17.53 0h.34v.74h-.34v-.74h0zm-6.41-.74h.34v.74h-.34v-.74h0zm-2.92 0h.23c0 .56 0 .74-.56.95v-.74h.34v-.21h0zm26.86-.32h.34v.52h-.34v-.52h0zm-18.55 0h.23v.32h-.23v-.32h0zm-9.67 0h.23v.52h-.23v-.52h0zm-2.92 0h.22v.32h-.22v-.32h0zm-11.02 0h.22v.32h-.22v-.32h0zm-1.12-.42h.34v.74h-.34v-.74h0zm8.88-.32h.22v.53h.34v.53c-.5 0-.49-.73-.56-1.05h0zm34.39-.21h.34v.21h-.34v-.21h0zm1.8.21h.34v-.52h-.34v.52h0zm-25.74-.52h.34v.84h-.34v-.84h0zm30.12-.32h.34v.32h-.34v-.32h0zm-6.18 0h.34v.32h-.34v-.32h0zm-16.41 0h.23v.32h-.23v-.32h0zm-18.77 0h.22v.63h-.22v-.63h0zm28.1 20.29q.96-.16 1.91-.32v-20.08h-.45v6.52h-.22v-6.52h-.67v15.56h.34c-.45.28-.34.97-.34 1.47h.34c-.43.27-.34.08-.34.53h.34c-.43.27-.34.08-.34.52h.34v.95h-.34v.32h.34v.74h-.56v-20.08h-.45q.06 10.2.11 20.39h0zm-11.46-20.71h.23v.32h-.23v-.32h0zm28.21-.21h.34v.21h-.34v-.21h0zm-6.18 0h.34v.21h-.34v-.21h0zm-1.69.53h.34v-.53h-.34v.53h0zm-4.94 5.04h1.01v-5.57h-1.01v5.57h0zm-1.12-2.31h-.22v-2.73h-.34v19.76c.62-.37.46-1.34.46-2.04l-.13-13h.22v.53h.79v-5.26h-.23q.11-.26.23-.53c-.65.06-.76.78-.77 1.28l-.02 1.98h0zm-19.67-3.26h.34v.53h-.34v-.53h0zm-18.21 0h.22v.95h-.22v-.95h0zm44.62 5.05h-.34v.21h.34v1.05h-.34v.21h.34v12.51h-.34v-5.99h-.34v6.31c.25 0 .73.08.73-.16l-.06-19.5v5.36h0zm-1.24 14.3h.34v-8.09h.22v1.58h.34v-2q-.28.11-.56.21c.02-.97.47-1.11.56-2q-.28.11-.56.21v-.52h.22v-6.2h-.22c0-.31 0-.5.22-.74h-.22v-.84h-.34v-.32h.34v-.63c-.42-.05-.26.05-.45-.32q.06 9.83.11 19.66h0zm-11.13-19.66h.23v.32h-.23v-.32h0zm-.56 0h.34v.32h-.34v-.32h0zm-.56 0h.34v.32h-.34v-.32h0zm-5.39 0h.23v.53h-.23v-.53h0zm-2.14-.32h.23v.32h-.23v-.32h0zm-2.36.63q-.28-.16-.56-.32v6.31h.79v-6.62q-.11.32-.23.63h0zm9.67-.63h-.22v.63h-.34c.04-.52 0-.82.56-.63h0zm-20.68 6.2h1.8v-6.31q-.06.21-.11.42-.34-.16-.67-.32v2.63h-.22v-2.73c-1.03.1-.76.98-.77 1.85l-.01 4.46h0zm45.86-6.62h.34v.32h-.34v-.32h0zm-3.37 19.13h.22v-.32c.19.36.03.26.45.32v-19.13h-.68v19.13h0zm-1.12-18.81h-.22v5.04h.45c-.01 4.75-.38 9.28-.45 13.98.54-.13.62 0 .69-.53.09-.68.16-1.36.2-2.05.06-1 .09-2.01.09-3.01l.03-13.76h-.23v.74h-.34v-.74h-.23v.32h0zm-1.12 0h-1.01v2h-.34v-2h-.45v.74h-.34v-.63h-.22v2.1h-.34v.32h.34v.21h-.34v2.73c1.03-.2 1.11-.29 1.12-1.26h.22v1.05h1.91v-5.57h-.56v.32h0zm-5.73-.32h.34v.32h-.34v-.32h0zm-19-.21h.23v.63h-.23v-.63h0zm30.91-.32h.56v.32h-.56v-.32h0zm-14.84 0c.2.12.25.32.34.53h-.45q.06-.26.11-.53h0zm-1.01 0h.34v.32h-.34v-.32h0zm-9.33 0h.79v.32h-.79v-.32h0zm-2.14 0q.34.16.67.32v-.32h.67v.32h-.67v.53q-.23-.16-.45-.32l-.22 18.29v-18.82h0zm3.6-.21c.67 0 1.09-.09 1.35.52h-.23v-.32h-.56v.32h-.23v-.32h-.34v-.21h0zm-37.32.21h1.12v-.21h-1.12v.21h0zm47.32-.63c0 .32-.14.35-.45.42.12-.22.17-.4.45-.42h0zm-12.25 0h1.01v.32h-1.01v-.32h0zm-1.12 0h.79v.32h-.79v-.32h0zm27.88-.32h.9v.32h-.9v-.32h0zm-.23.63h-.79c.25-.7.49-.8.79 0h0zm-3.48-.63q.28.16.56.32v-.32h1.01v.32q-.79.16-1.57.32v-.63h0zm-2.14 0v.32h.23v-.32h1.57v.32h-.45v.32h-2.14c.17-.46.25-.63.79-.63h0zm-7.64 0c.91 0 2-.25 2.47.63h-2.47v-.63h0zm-10.45 0h4.16v.63h.45v-.32h.34q0 .09.02.19c1.12.27 2.31.18 3.47.23q-3.65.11-7.31.21c.03-.18-.01-.17.27-.2.62-.05 1.25-.08 1.87-.12h-4.72v-.32h1.46v-.32h0zm-17.65.95h.23v-1.16h-.23v1.16h0zm31.47-1.47h1.8v.32c.83 0 .98.15 1.35.84q-.22-.16-.45-.32v.32h-.34q.17-.32.34-.63h-1.91v-.21H335v-.32h0zm-6.74 0h1.91v.32h.79v.21c-.73 0-2.33.32-2.7-.53h0zm-.56 0h.34v.53h-.34v-.53h0zm-9.67 0v.53h-.56c.13-.31.18-.53.56-.53h0zm-1.35 0h.56c-.2.39-.15.53-.56.53v-.53h0zm-32.82.84h-.34v.32c.31 0 1.07.11 1.39-.15.3-.25.16-.69.64-.69v-.32h-1.69v.84h0zm53.84-1.05h1.01v.21h-1.01v-.21h0zm-7.08 0h.34v.21h-.34v-.21h0zm-14.95 0c.67.21.67.4.67 1.05h.34v.42c-.44 0-.46-.4-.56-.74q-.22.16-.45.32.11-.26.23-.52h-.23v-.53h0zm24.39 0c.13-.02.2-.23.34-.21.54.06 1.05.28 1.57.42h-2.92v-.21c.34 0 .68.05 1.01 0h0zm-8.99-.21h.34v.21h-.34v-.21h0zm-7.98-.32h.23v.32h-.23v-.32h0zm-8.09 0h.34v.32H315v-.32h0zm-3.71 0h.23v.32h-.23v-.32h0zm-7.76.74h.23v-.74h-.23v.74h0zm-4.83-.74h1.57v1.89h-1.57v-1.89h0zm-12.7 0h.34v.32H286v-.32h0zm55.08-.52h.34v.32h-.34v-.32h0zm-3.15 0h.56v.32h-.56v-.32h0zm-6.3 0h2.14v.32h2.02v.21h-1.12v.32h.34c-.16.27-.54.25-.85.26-.73.03-1.45.04-2.18.05.28-.3.79-.15.79-.63h.9v-.21h-2.02v-.32h0zm-11.46 0h3.48v.32h.34v-.32h.22v.52c.77-.72 2.17-.2 3.26-.21v.21h-1.69v.32c-.48.02-.59.28-1.04.37-.69.13-1.4.05-2.11.05v-.21h1.57v-.21h-.56v-.53h-3.48v-.32h0zm-14.27 0h.34v.32h-.34v-.32h0zm28.21-.21h1.35v.21h-1.35v-.21h0zm-19.89 0h1.12c-.19.07-.55.02-.56.21-.18 3.01 0 6.03 0 9.04h-.23v-9.04h-.34v-.21h0zm18.21-.21h.9v.21h-.9v-.21h0zm-4.95 0h.56v.21h1.8v.21c-.62 0-2 .26-2.36-.42h0zm-.79 0a18.51 18.51 0 0 0 .45.42h-.45v-.42h0zm-9.67 0q.51.11 1.01.21v-.21q1.07.05 2.14.11c-1.04.43-2.99.26-4.05.32v-.21h.9v-.21h0zm27.09-.32h.56v.32h-.56v-.32h0zm-4.27 0h.56v.32h-.56v-.32h0zm-1.12 0h.56v.32h-.56v-.32h0zm-.79 0h.22v.32h-.22v-.32h0zm-3.82-.21h.34v.21h-.34v-.21h0zm-11.41.1c.19.13.39.11.62.11v-.21h.34v.53h-1.01q.03-.21.06-.42h0zm-14.89-.1h1.57v3.47h-1.57v-3.47h0zm-16.64.21h-.34v10.3h.79v-6.31c-.53-.04-.43-.48-.44-.92-.02-1.02 0-2.05-.01-3.07h0zm47.88-.52h.22v.32h-.22v-.32h0zm-.56 0h.23v.32h-.23v-.32h0zm-20.46 0h.56v.32h-.56v-.32h0zm-30.68 0h.56v5.25q-.11-1.58-.22-3.15h-.34c.4-.38.34-1.04.34-1.58h-.34v-.52h0zm47.32-.32h1.69v.32h-1.69v-.32h0zm-.56 0h.34v.32h-.34v-.32h0zm-6.63 0h1.35v.32h1.8v.52h.34v.32h-1.57v-.32h.79v-.21c-.84 0-2.35.33-2.7-.63h0zm-.79 0h.22v.32h-.22v-.32h0zm-.56 0h.23v.32h-.23v-.32h0zm-8.88 0c.34.27.45.27.45.63-.34-.27-.45-.27-.45-.63h0zm-1.57 0h1.35v.63h-.34v-.32h-1.01v-.32h0zm-19.45 0h.34v.32h-.34v-.32h0zm34.73-.42h.67c.05.33.03.33.34.42h-1.35c.32-.14.34-.12.34-.42h0zm-8.99 0q.34.16.67.31.06-.16.11-.31v.31h.34v-.31h1.35c0 .41-.86.32-1.14.34l-2.91.09c.16-.01 1.57.12 1.57-.42h0zm13.15-.21h.67v.21h-.67v-.21h0zm-1.35 0h.34v.21h-.34v-.21h0zm-6.07 0h.34v.21h-.34v-.21h0zm-9.1 0h.56v.21h-.56v-.21h0zm-.56 0h.34v.21h-.34v-.21h0zm19.11-.32h1.01v.32h-1.01v-.32h0zm-.79 0h.45v.32h-.45v-.32h0zm-6.52 0h.34v.32h-.34v-.32h0zm-1.57 0h1.35v.53c-.13-.04-.66-.17-.79-.21v.21h-.56v-.53h0zm-7.31 0h.23v.32h-.23v-.32h0zm-1.01 0h.45v.32h-.45v-.32h0zm-.56 0h.34v.32h-.34v-.32h0zm-31.7 0h.22v.32h-.22v-.32h0zm43.95-.32h.34v.32h-.34v-.32h0zm-5.84 0h.34v.32h-.34v-.32h0zm-.79 0h.34v.32h-.34v-.32h0zm-1.35 0h.79v.32h-.79v-.32h0zm-9.1 0h.23v.32h-.23v-.32h0zm-6.74 0h1.57v1.58h-1.57v-1.58h0zm-17.31.63h.34v.52h.34c-.31.11-.32.11-.34.42.5 0 .4-.61.45-.95h-.45v-.63h-.34v.63h0zm16.75 5.25h2.47v-5.99h-2.47v5.99h0zm-14.72-5.99h1.35v5.04h-1.35v-5.04h0zm39.11-.32h.34v.32h-.34v-.32h0zm-3.6 0h.45v.32h-.45v-.32h0zm-6.86 0h.23v.32h-.23v-.32h0zm-7.9 2.01c-.16-.6-.2-.21-.62-.52-.54-.39-.67-.85-.81-1.49.48.07.23.74.79.74v-.32h1.57v.32h-1.57c.2.39.15.53.56.53.12.67 1.35.05 1.35.74H314q.11.26.23.52h-.56v3.47h-.23c-.01-1.33.2-2.69-.14-3.98h0zm16.1-2.22l.22.21h-.22v.32h-.56v-.32h.56v-.21h0zm-5.39 0h1.01v.21H324v-.21h0zm-.9 0a6.62 6.62 0 0 0 .23.21h-.23v.32h-.34v-.32h.34v-.21h0zm-29.11 6.2c-.02-1.44.03-2.88-.06-4.31-.02-.31-.18-1.51-.76-1.73-.37-.15-.8-.1-1.2-.16 0 2.26-.16 3.49.43 5.67.16.58 1.33.5 1.6.53h0zm39.68-6.52c-.03.37-.22.4-.56.53.13-.3.18-.53.56-.53h0zm-19.67 0h.23v.32H314v-.32h0zm-2.7 0h.23v.32h-.23v-.32h0zm28.77-.32h.34v.32h-.34v-.32h0zm-2.36 0h.79v.32h-.79v-.32h0zm-37.43 4.41h-1.57v-2h-.34v-1.26h-.23v1.68h.23v2.84h-.23v.52h.23v.63h1.91v-.21c.22.19.38.21.67.21v-.21q1.01.11 2.02.21v-6.83h-2.02v.32h1.69v.32h-.22c.21.24.19.59.2.89l.03 4.99c-1.78 0-1.67-.14-1.8-1.89h1.01v-.21h-1.01v-4.41h-.56v4.41h0zm-1.35-4.1h.67v-.32h-.67v.32h0zm-.79.53h.23v-.84h-.23v.84h0zm40.58-.95q.39.05.79.11-.23.16-.45.32c-.05-.33-.03-.33-.34-.42h0zm-7.76 0q.51.05 1.01.11h-.56v.32c-.34 0-.37-.13-.45-.42h0zm2.81-.32h.9v.32h-.9v-.32h0zm-39.79 0h.34v.32h-.34v-.32h0zm33.49-.32h1.57v.32h-1.57v-.32h0zm-.79 0h.22v.32h-.22v-.32h0zm-10.34 0h.9v.32h-.9v-.32h0zm-.67 0h.23v.32h-.23v-.32h0zm-1.46 0h.34v.32h-.34v-.32h0zm-23.38.32h-.34v.42q.39-.05.79-.11c-.06-.35-.03-.6-.45-.63v.32h0zm41.14-.52h.34v.21h-.34v-.21h0zm-9.33 0h.45v.21h-.45v-.21h0zm16.86-.32h.34v.32h-.34v-.32h0zm-46.53 0h.34v.32h-.34v-.32h0zm-3.15 0h.22v.53h-.22v-.53h0zm20.23-.11c.31.3.67.51.67.95-.6-.05-.55-.43-.67-.95h0zm18.21-.32h.23v.32h-.23v-.32h0zm-.79 0h.22v.32h-.22v-.32h0zm-3.48 0h.22v.32h-.22v-.32h0zm-7.31 0h.56v.32h-.56v-.32h0zm-.56 0h.23v.32h-.23v-.32h0zm16.3-.32h.34v.32h-.34v-.32h0zm-39.79 0h.67v.63c-.37-.18-.67-.22-.67-.63h0zm35.86-.21h.34v.21h-.34v-.21h0zm-34.51 0c.58.18.67.27.67.84h-.67q.17-.32.34-.63h-.34v-.21h0zm-2.02 1.47c.67 0 .61-.42.67-.95v1.58q.34-.16.67-.32v.42h.22v-.74h-.22c.34-.31.22-.86.22-1.26h-.22q.11-.26.22-.52c-1.21-.14-1.38.78-1.57 1.79h0zm2.92-2.1h.34v.21h-.34v-.21h0zm36.53-.53v.21c-.35.04-.35.03-.45.32.07-.31.07-.53.45-.53h0zm-30.91 0h.34v.21h-.34v-.21h0zm35.52-.31h.34v.31h-.34v-.31h0zm-.56 0h.34v.31h-.34v-.31h0zm-3.49 0h.34v.31h-.34v-.31h0zm-1.57 0h.23v.31h-.23v-.31h0zm-2.92 0h.22v.31h-.22v-.31h0zm-29.9 1.47h.34q-.17.11-.34.21.17.53.34 1.05h.79v-2.21h-.56q.11-.26.23-.52h-.79v1.47h0zm4.27-1.68v2.94h.79v-3.15c-.36.33-.12.21-.79.21h0zm-2.59.21h-.34v.31h.34v.21h-.34v2.21h2.7v-3.15h-.34v.42h-.79v-.42h-.23v.42c-.26-.24-.29-.15-.67 0v-.42h-.34v.42h0zm23.49-.74h.56v.32h.67v.21q-.62-.11-1.24-.21v-.32h0zm-.45 0h.34v.32h-.34v-.32h0zm-1.12 0h.79v.53c-.39-.11-.79-.1-.79-.53h0zm-1.01 0h.45v.32h-.45v-.32h0zm-24.17 0h.23v.32H296v-.32h0zm-1.35.32h.22v-.32h-.22v.32h0zm-3.37.95h-.45c-.04.76-1.09 1.45-1.24 2.21h-.56v.52h-.34c.06.39-.05.25.34.42h-.79q.11.32.23.63h-.56c.05.58-.1.4.34.63h-.9v.63h-.45v.63h-.56v.32H286v.32h-.22v.21h1.57v.53h-.22v.52h-.23v5.47h-.34v-5.26h-.22c.09-.63.39-.44.56-.95h-1.35v.21h-.34v.52h.79v.21h-1.35v.32h.9v.21q.23-.11.45-.21c-.09.41-.08.85-.28 1.22-.18.33-.68.46-.81.82-.23.62-.2 1.31-.23 1.97-.06 1.82-.02 3.63-.03 5.45h.34v.52h-.34v.53h.34v11.98h2.14v-.95h.22c.03.51-.17 1.02.58 1.13 1.33.19 2.69.23 4.03.34v-4.2h-.79v.53h-.34v-.53h-.56v-9.35h-.22v-.74h.45v-7.46h-.23v-3.78h-.22v-.31h.22v-1.47h-.45v.63h.22v.32h-.22v1.26h-.56v-.42h.34v-1.26c-.59.21-.3.87-.9.95v9.77h-.22v-9.46h-.23v.42h-.34c0-.72.14-.45.52-1.05.49-.79.3-1.33 1.39-1.47.07-.53.43-.73.45-1.26h.23v-.32h.34c-.39-.17-.28-.03-.34-.42.72.05.5-.12.79.32.05-.27-.01-.59.15-.81.23-.31.68-.4.94-.68.18-.2.12-.53.32-.71.15-.13.4-.07.6-.11v-.74c-.94.02-1.85.27-2.02 1.26h0zm43.72-1.26h.79v-.21H335v.21h0zm-3.37 0h1.12v-.21h-1.12v.21h0zm-.67 0h.45v-.21h-.45v.21h0zm-1.57 0h1.24v-.21h-1.24v.21h0zm-8.77-.53h1.69v.32h-1.69v-.32h0zm-2.02 0h1.35v.32h-1.35v-.32h0zm-.9 0h.34v.32h-.34v-.32h0zm-25.18.32h1.35v-.32h-1.35v.32h0zm36.53-.53h.34v.21h3.93q-.11.26-.22.53h.56v.32h-.56v.21h-.34v-.21h-.45v.21q-1.35-.11-2.7-.21v.21h-1.12v-.21h-.45v.21c-.29 0-.32-.02-.56-.21v.21c-.29 0-.32-.02-.56-.21l-.22.21v-.21h-.9v.21h-.79v-.21h-.79v-.32h4.27v.32c.38 0 .42-.22.56-.52h-6.29v-.32h6.29v-.21h0zm-19.33-.1c-.13.19-.35.23-.56.32.14-.27.24-.52.56-.32h0zm-2.7-.1h1.91v.21h-1.91v-.21h0zm-10.23.21h.56v-.21h-.56v.21h0zm-4.16 0h1.35v-.21h-1.35v.21h0zm13.26-.53h.34v.32h-.34v-.32h0zm6.74-.21h.56v.21h-.56v-.21h0zm-2.59 0c.34.19.56.21.34.53-.2-.12-.25-.32-.34-.53h0zm24.05-.32h.56v.32h-.56v-.32h0zm-1.01 0h.22v.32h-.22v-.32h0zm-2.7 0h.23v.32h-.23v-.32h0zm-.79 0h.23v.32h-.23v-.32h0zm-1.12 0h.9v.32h-.9v-.32h0zm-.45 0h.23v.32h-.23v-.32h0zm-2.47 0h2.14v.32h-2.14v-.32h0zm-1.12 0h.23v.32h-.23v-.32h0zm-.79 0h.34v.32h-.34v-.32h0zm-1.35 0h.34v.32h-.34v-.32h0zm-2.14 0h.22v.32h-.22v-.32h0zm-17.76.32h.22v-.32h-.22v.32h0zm-4.83 0h.34v-.32h-.34v.32h0zm-4.27.21c.18-.17.3-.21.56-.21v.21c.98 0 1.36-.67.45-.73v.21c-.55-.26-.71.13-1.01.52h0zm41.36-.95h.45v.21h-.45v-.21h0zm-2.25 0h.34v.21h-.34v-.21h0zm-2.59 0h.34v.21h-.34v-.21h0zm-3.15 0h1.8v.21h-1.8v-.21h0zm-3.04 0h.34v.21h-.34v-.21h0zm-1.69 0h1.12v.21h-1.12v-.21h0zm-1.8 0h1.57v.21h-1.57v-.21h0zm-1.57 0h1.35v.21h-1.35v-.21h0zm-.9 0h.67v.21h-.67v-.21h0zm-1.35 0h.34v.21h-.34v-.21h0zm-5.62 0q.56.11 1.12.21v-.21h1.01v.21h.34v-.21h1.01q0 .06-.02.13c-.19.04-3.47.09-3.47.61h-.23v-.32h-.79v.52h-.56c.49-.64.73-.73 1.57-.73v-.21h0zm2.47-.63h.22v.32h-.22v-.32h0zm-1.35 0h1.01v.32h-1.01v-.32h0zm-1.35 0h.45v.32h-.45v-.32h0zm-.79 0h.56v.32h-.56v-.32h0zm-1.01 0h.23v.32h-.23v-.32h0zm-.67 0h.34v.32h-.34v-.32h0zm-1.35 0h.56v.32h-.56v-.32h0zm-.79 0h.56v.32h-.56v-.32h0zm-1.01 0c.76 0 .83.16 1.01.84-.68-.14-1.01-.15-1.01-.84h0zm-2.7 0h.23v.63h-.23v-.63h0zm-2.13.32h-.34c0 .74-.79.52-.79 1.26.5-.16.72-.71 1.12-.73v-.53h.22v-.32H300v.32h0zm-3.26.32h.22q-.11.47-.22.95c.83 0 .56-.59.56-1.26h-.34v-.32q-.11.32-.22.63h0zm-2.47-.32h.9v.32c.33-.24.43-.26.45-.63h-1.35v.32h0zm27.42-.52c.3.24.16.17.79.18l4.16.03v-.21h.45v.21h4.27v.32h-16.41v.32h.67v.21h-1.12q.11-.26.23-.53h-1.12v-.32h8.09v-.21h0zm-21.24.21c.62 0 .17.84.79.84v.53c.41 0 .36.13.56.53h-2.92v.21h-.56v.21h4.27c-.21-.33-2.09-2.52-2.14-2.52v.21h0zm32.82-.42h.34v.21h-.34v-.21h0zm-1.01 0h.45v.21h-.45v-.21h0zm-1.24 0h.56v.21h-.56v-.21h0zm-1.24 0h.34v.21h-.34v-.21h0zm-7.53 0h.45v.21h-.45v-.21h0zm-1.91 0h.56v.21h-.56v-.21h0zm-13.15 0h.34v.21h-.34v-.21h0zm-2.92 0h1.35v.21h-1.35v-.21h0zm-6.74.21v.21h.34v.32h-.34v.32h.34v.21h.23v-.84h.23c-.26-.24-.16-.27 0-.63-.37.03-.36.42-.79.42h0zm19.45-.74H318v.32h-1.01v-.32h0zm-.9 0h.56v.32h-.56v-.32h0zm-12.14 0h.34v.32h-.34v-.32h0zm-1.35 0h.34v.32h-.34v-.32h0zm3.6-.32h.22v.32h-.22v-.32h0zm17.76-.21h1.35v.21h-1.35v-.21h0zm-18.1-.21h.56v.21h-.56v-.21h0zm-.56 0h.34v.21h-.34v-.21h0zm-9.67.74h-.79v.52c1.28-.16 1.33-.14 1.95-.97.31-.41.49-.2.52-.81h-1.12c0 .67-.89.49-.56 1.26h0zm1.69-1.58h.79v-.21h-.79v.21h0zm14.72-.42c.4.29.89.09 1.35 0v.21c.33 0 .54 0 .79-.21v.42h-2.36q.11-.21.23-.42h0zm-.79 0h.23v.42h-.23v-.42h0zm-.79 0a18.51 18.51 0 0 1 .45.42h-.45v-.42h0zm-11.24 1.26c-.51 0-.49.73-.56 1.05h.22v-.32h.34v.52h.34v-2.52h-.34v1.26h0zm-1.91-1.58h-.34v.32h1.35v-.53h-1.01v.21h0zm1.91 0h.34v-.52h-.34v.52h0zm1.01-.21h-.22v-.53h-.34v.74h.56v.32h-.56q.17.11.34.21c-.45.28-.34.97-.34 1.47h.34v.32c.8-.94.45-2.38.45-3.57h-.23v1.05h0zm27.99-1.26h.79v.21h-.79v-.21h0zm-3.26 0h.34v.21h-.34v-.21h0zm-.79 0h.45v.21h-.45v-.21h0zm-1.12 0h.9v.21h-.9v-.21h0zm-4.27 0h1.12v.21h-1.12v-.21h0zm-1.35 0h1.12v.21h-1.12v-.21h0zm-4.61 0h.34v.21h-.34v-.21h0zm-.56 0h.34v.21h-.34v-.21h0zm-4.27 0h.34v.21h-.34v-.21h0zm19.45-.74h.22v.32h-.22v-.32h0zm-2.81 0h.34v.32h-.34v-.32h0zm-2.7 0h.34v.32h-.34v-.32h0zm-1.35 0h.56v.32h-.56v-.32h0zm-.45 0h.22v.32h-.22v-.32h0zm-.45 0h.22v.32h-.22v-.32h0zm-2.02 0h1.12v.32h-1.12v-.32h0zm-1.57 0h.23v.32h-.23v-.32h0zm-1.12 0h.9v.32h-.9v-.32h0zm-.45 0h.23v.32h-.23v-.32h0zm-3.82-.21h.56v.21h-.56v-.21h0zm-1.35 0h.34v.21h-.34v-.21h0zm-5.62-.84h.22v.32h-.22v-.32h0zm-.56 0h.34v.32h-.34v-.32h0zm-3.15 0h.45v.32c-.3 0-.68-.19-.9 0-.71.61-1.12 1.47-1.69 2.21.34 0 .72.16 1.01 0 .43-.24.64-.74.95-1.1.36.12.99.02 1.07.37.32 1.4 0 2.87 0 4.31h.34v-3.57h.9v-.32c.07.17.02.52.23.53 3.6.1 7.19-.21 10.79-.21 2.17 0 4.35.14 6.52.21v.31q-8.99.05-17.98.11c-.04 1.12-.35 2.26-.11 3.36.09.41.67.56 1.01.84v-1.05h.34c0 .6-.14 1.21 0 1.79.06.24.38.35.56.53q.11-1.79.23-3.57c0 1.26-.17 2.53 0 3.78.03.2.37.21.56.32-.45.32-1.17.45-1.35.95-.32.86 0 1.82 0 2.73h1.01c-.41.76-.45 1.67-.45 2.52q.23-.21.45-.42v.95q-.22-.1-.45-.21v.52h.45c-.26.51-.38 1.14-.22 1.68q.11-.63.22-1.26v16.4h.34q-.17.37-.34.74-.11-6.1-.22-12.19c-1.09 1.16-.41 1.7-.96 3.15q-.08-1.58-.17-3.15h-.79v2.63q-.11-1.52-.23-3.05c-.35 0-.54.44-.67.74q-.13-.19-.27-.38c-.21.13-.61.14-.63.38-.2 1.95 0 3.92 0 5.89h.79v-1.05c.12.31.04.77.35.92.53.26 1.19.09 1.78.13 0-.54.07-1.2-.34-1.58q.28-.26.56-.53v2.31h-5.62c-.09-4.14-.05-8.29-.27-12.43-.05-1.01-.59-2.05-.3-3.02h.34v-1.89h-.34q.17-.37.34-.74h-.56q-.11.37-.23.74v-3.26h-.34v1.05h-.56v1.68h.34c-.11.11-.33.17-.34.31-.11 4.34 0 8.69 0 13.03q-.11-7.67-.22-15.35-.11.89-.23 1.79h-.56v1.37c-.83-.25-.55 0-.79-.84v3.36h1.01v.84h.34v.42h-.34v.63h.34c-.11.07-.33.08-.34.21-.11 1.08-.1 2.18 0 3.26.01.15.23.21.34.32h-.34v2q-.28-.16-.56-.32v.42c-.26 0-.55.1-.79 0-.15-.06-.15-.28-.22-.42v.42h-.67v6.2h2.02q.11-2.05.22-4.1v4.1h.79v-2.84h.34c.02.84-.07 1.68.07 2.51.05.28.46.45.48.74.04.67-.58 1.64.02 2.01h-.34c0 .65-.16.43.34.74h-.34v.52h.34c0 .65.16.43-.34.74h.34c0 .54.07 1.2-.34 1.58h.79v.53h-.45q-.17.63-.34 1.26h.34v.74q.23-.26.45-.53v4.73h.34q-.17.89-.34 1.79h1.12q.11-.37.23-.74v1.26h.34v-.53c.07.18.03.49.22.53.88.16 1.8 0 2.7 0q.11-2.37.23-4.73h.34v4.73h1.01v-1.26h.34v1.26h.45v-7.78h.34v7.78h1.91v-3.47h-.34q-.2-.53-.39-1.05-.2 2-.39 3.99-.11-15.82-.22-31.64.11 8.78.22 17.55h.79v-2.52h.34v2.52h1.8v-6.62c-.32.13-.79.31-.79.63q-.11-.32-.23-.63h-.56v-.42q-.28.21-.56.42v-.95q.39.16.79.32v-6.52h-.79v-.63H307v-4.62q.11 2.31.23 4.62h.79q-.11-1.68-.22-3.36c.76 0 .9 0 .9.74h-.34v2.63h.56q.11-1.26.23-2.52.28.34.56.68c-.58.27-.48 1.14-.56 1.73q.79.21 1.57.42c-.15.7-.45 1.39-.45 2.1 0 1.79.38 3.57.45 5.36 0 .13-.15.21-.23.32q-.22-.16-.45-.32v.63h-.67v5.99h1.91q.11-1.63.23-3.26c0 1.09-.22 2.19 0 3.26.06.3.52.35.79.52v-.95h.34q.11 7.78.23 15.56.96.1 1.91.21.11-1.37.22-2.73v2.73h.9q.11-3.36.22-6.73c0 1.43-.09 2.87.03 4.3.07.9.17 2.24 1.09 2.52.43.13.91.08 1.36.12q.11-1.74.22-3.47v3.26h1.35v-15.03q.11 7.41.22 14.82c.55-.06 1.59.1 1.77-.71.29-1.29.46-2.6.47-3.92.04-5.33-.22-10.65-.34-15.98h-.56v3.47h-.34v-3.47h-.45v7.46h-.34v-7.46h-.45v.74q-.23-.32-.45-.63v19.97h-.34v-19.66c0-.58-.4-.42-.79-.42v-.32h4.5q-.67-.1-1.35-.21v-.32h7.31v-.32h1.12v.84q-.28-.1-.56-.21v5.26q.28-.1.56-.21l-.34 10.3c0 .19-.15.35-.23.53-.29-.69-.02-.53-.79-.53v.74q-.39-.37-.79-.74v4.52q.11-.16.23-.32.39.16.79.32.17-.42.34-.84.11.26.22.52.46-.11.92-.22-.07-9.98-.13-19.96h2.36v19.66c.45 0 .91.1 1.35 0 .23-.05.33-.37.56-.42.16-.03.3.14.45.21V696.4q-.14.42-.28.84c-.16-.33-.35-.84-.73-.84v19.45h-.34v-19.13h-.67q.06-.42.11-.84c-.84-.2-1.75-.08-2.58.11-.13.03-.15.21-.23.32q-.11-.16-.23-.32.2-.25.41-.51.42.15.83.3v-.32c.69 0 .48-.16.73.32.09-.18.07-.5.28-.52 1.37-.2 2.77-.07 4.16-.1q-1.46.31-2.92.63.39.11.79.21v.32h1.35V696c2.3-.36 4.64-.39 6.97-.53v.32h-.68v18.82q-.06-9.41-.11-18.82h-.56c.01 6.32-.45 12.69.34 18.97q.79-.24 1.57-.47v-18.5c0-.15-.22-.21-.34-.32h1.12v.32h-.56v18.5q.43-.04.86-.08c.22-1.76.59-3.51.66-5.28.17-4.48.03-8.97.05-13.45.85-.11 1.84-.09 2.47-.63H347c-.02-.25.1-.56-.07-.76-.32-.38-.94-.45-1.28-.81-.48-.51-.73-1.17-1.1-1.76q-.24.14-.48.29c0-1.93-1.87-2.36-3.03-3.57-.13-.13.12-.39 0-.52-.96-1.12-1.84-2.4-3.15-3.15-.55-.32-1.27.23-1.91.21-.75-.02-1.48-.21-2.22-.32q.32-.21.65-.41h-.79v-.53c.9 0 1.82 0 2.7.21q-.17.26-.34.53h1.69q-.56-.1-1.12-.21v-.32h.56v-.42h-.56v-.53h-1.12v-.32h.56q-.28-.11-.56-.21.17-.26.34-.53h-4.16v-.32h3.49c-.34-.42-.46-1.18-1.01-1.26-2.63-.37-5.32 0-7.98 0q3.77-.1 7.53-.21v-.42c-10.23 0-20.46-.14-30.68 0-.24 0-.38.28-.56.42v-1.05h.79v.32h.56v-.32c.3.42 1.04.32 1.57.32v-.32c.47.44.18.32.9.32v-.32c.07.11.09.31.22.32 4.42.1 8.84 0 13.26 0v-.32h-5.17c.21-.14.36-.41.62-.42 5.71-.14 11.43 0 17.14 0-.11-.18-.12-.52-.34-.53-4-.17-8.02 0-12.03 0v-.31c3.77-.64 7.67-.03 11.5-.15.15 0 .13-.25.19-.38-.29-.08-.67-.05-.88-.25-.31-.29-.27-.82-.58-1.12-.13-.13-.38 0-.56 0v-.53l-16.41-.52c-4.38-.05-8.77.14-13.15.21h0z"/></g><text class="C Af Ag" font-size="8"><tspan x="263.98" y="728.88">WWW</tspan></text><text font-size="8" class="Af Ag"><tspan x="281.67" y="728.88">.</tspan></text><text class="E Af Ag" font-size="8"><tspan x="284.06" y="728.88">HEMLOCKHOUSEPGH.COM</tspan></text><text class="F Af Ag Ai"><tspan x="245.84" y="740.6">IRREVERENT</tspan><tspan xml:space="preserve" x="296.7" y="740.6"> FOOD AND COCKT</tspan><tspan x="369.2" y="740.6">AIL</tspan></text><text class="Af Ag Ai"><tspan x="382.51" y="740.6">S</tspan></text><text class="H AZ Af Ag Ah"><tspan x="134.05" y="32.85">HOUSE COCKT</tspan></text><text class="I AZ Af Ag Ah"><tspan x="195.91" y="32.85">AIL</tspan></text><text class="AZ Af Ag Ah"><tspan x="210.54" y="32.85">S</tspan></text><text class="K AZ Aa Ab Ac"><tspan x="120.57" y="55.53">HERES TO THE </tspan></text><text class="L AZ Aa Ab Ac"><tspan x="180.01" y="55.53">ADMIRAL</tspan></text><text class="M AZ Aa Ab Ac"><tspan xml:space="preserve" x="214.72" y="55.53"> $1</tspan></text><text class="AZ Aa Ab Ac"><tspan x="225.09" y="55.53">4</tspan></text><text class="O AZ Aa Ad Ae"><tspan x="69.6" y="64.02">WHITE </tspan></text><text class="P AZ Aa Ad Ae"><tspan x="96.45" y="64.02">AND SPICED RUMS, HO</tspan></text><text class="Q AZ Aa Ad Ae"><tspan x="183.41" y="64.02">T </tspan></text><text class="O AZ Aa Ad Ae"><tspan x="190.16" y="64.02">HONEY</tspan></text><text class="P AZ Aa Ad Ae"><tspan x="215.3" y="64.02">, COCONUT</tspan></text><text class="R AZ Aa Ad Ae"><tspan x="255.88" y="64.02">, YUZU</tspan></text><text class="O AZ Aa Ad Ae"><tspan x="153.86" y="72.53">PINEAPPLE</tspan></text><text class="S AZ Aa Ab Ac"><tspan x="116.08" y="86.7">REDRUM REDRUM REDRUM </tspan></text><text class="M AZ Aa Ab Ac"><tspan x="221.45" y="86.7">$1</tspan></text><text class="AZ Aa Ab Ac"><tspan x="229.34" y="86.7">3</tspan></text><text class="P AZ Aa Ad Ae"><tspan x="97.5" y="95.19">BLOOD ORANGE, MINT</tspan></text><text class="R AZ Aa Ad Ae"><tspan x="180.38" y="95.19">, LIME, WHITE RU</tspan></text><text class="AZ Aa Ad Ae"><tspan x="246.04" y="95.19">M</tspan></text><text class="AZ Aa Ab Ac"><tspan x="131.4" y="109.37">R</tspan></text><text class="L AZ Aa Ab Ac"><tspan x="136.67" y="109.37">OSEMAR</tspan></text><text class="U AZ Aa Ab Ac"><tspan x="168.7" y="109.37">YS BABY $1</tspan></text><text class="AZ Aa Ab Ac"><tspan x="214.24" y="109.37">4</tspan></text><text class="P AZ Aa Ad Ae"><tspan x="68.16" y="117.87">GIN, ROSEMAR</tspan></text><text class="V AZ Aa Ad Ae"><tspan x="123.86" y="117.87">Y,</tspan></text><text class="W AZ Aa Ad Ae"><tspan xml:space="preserve" x="130.37" y="117.87"> LEMON SIMPLE, FIERO, BLOOD ORANGE</tspan></text><text class="L AZ Aa Ab Ac"><tspan x="141.58" y="132.04">SMOKE BOMB </tspan></text><text class="M AZ Aa Ab Ac"><tspan x="195.87" y="132.04">$1</tspan></text><text class="AZ Aa Ab Ac"><tspan x="203.77" y="132.04">5</tspan></text><text class="X AZ Aa Ad Ae"><tspan x="91.11" y="140.54">MEZCAL, GINGER, LEMON </tspan></text><text class="W AZ Aa Ad Ae"><tspan x="188.88" y="140.54">JUICE, LAPHROAIG</tspan></text><text class="Y AZ Aa Ab Ac"><tspan x="146.52" y="154.71">BABY BLUE $1</tspan></text><text class="AZ Aa Ab Ac"><tspan x="199.13" y="154.71">4</tspan></text><text class="X AZ Aa Ad Ae"><tspan x="61.05" y="163.21">MAKERS MARK, LEMON, LIMONCELLO, BLUEBERRIES, BA</tspan></text><text class="O AZ Aa Ad Ae"><tspan x="277.09" y="163.21">SIL</tspan></text><text class="S AZ Aa Ab Ac"><tspan x="121.8" y="177.37">DEA</tspan></text><text class="L AZ Aa Ab Ac"><tspan x="136.46" y="177.37">TH IN THE MORNING </tspan></text><text class="M AZ Aa Ab Ac"><tspan x="215.95" y="177.37">$1</tspan></text><text class="AZ Aa Ab Ac"><tspan x="223.85" y="177.37">4</tspan></text><text class="X AZ Aa Ad Ae"><tspan x="109.34" y="185.88">GINGER, LEMON, </tspan></text><text class="O AZ Aa Ad Ae"><tspan x="174.35" y="185.88">ABSINTHE ROUGE</tspan></text><text class="Z AZ Aa Ab Ac"><tspan x="121.44" y="200.04">GIUSEPPES LA</tspan></text><text class="a AZ Aa Ab Ac"><tspan x="179.11" y="200.04">ST</tspan></text><text class="b AZ Aa Ab Ac"><tspan xml:space="preserve" x="188.39" y="200.04"> W</tspan></text><text class="L AZ Aa Ab Ac"><tspan x="197.9" y="200.04">ORD </tspan></text><text class="M AZ Aa Ab Ac"><tspan x="216.32" y="200.04">$1</tspan></text><text class="AZ Aa Ab Ac"><tspan x="224.21" y="200.04">4</tspan></text><text class="AZ Aa Ad Ae"><tspan x="60.71" y="208.55">G</tspan></text><text class="P AZ Aa Ad Ae"><tspan x="65.93" y="208.55">ALLIANO, RHUM BARBANCOUR</tspan></text><text class="c AZ Aa Ad Ae"><tspan x="180.91" y="208.55">T,</tspan></text><text class="X AZ Aa Ad Ae"><tspan xml:space="preserve" x="187" y="208.55"> LIME, F</tspan></text><text class="P AZ Aa Ad Ae"><tspan x="217.04" y="208.55">ALERNUM, CHERR</tspan></text><text class="AZ Aa Ad Ae"><tspan x="284.64" y="208.55">Y</tspan></text><text class="L AZ Aa Ab Ac"><tspan x="135.18" y="222.72">LA</tspan><tspan x="144.3" y="222.72">VENDER MOON </tspan></text><text class="M AZ Aa Ab Ac"><tspan x="202.57" y="222.72">$1</tspan></text><text class="AZ Aa Ab Ac"><tspan x="210.46" y="222.72">4</tspan></text><text class="O AZ Aa Ad Ae"><tspan x="52.89" y="231.21">BIANCO </tspan></text><text class="P AZ Aa Ad Ae"><tspan x="84.48" y="231.21">VERMOUTH, LA</tspan><tspan x="140.47" y="231.21">VENDER GIN, LEMON, SMOKED LA</tspan></text><text class="O AZ Aa Ad Ae"><tspan x="266.92" y="231.21">VENDER</tspan></text><text class="L AZ Aa Ab Ac"><tspan x="117.01" y="245.38">BLACK</tspan><tspan xml:space="preserve" x="141.9" y="245.38"> LODGE MANHA</tspan><tspan x="199.31" y="245.38">TT</tspan><tspan x="207.75" y="245.38">AN </tspan></text><text class="M AZ Aa Ab Ac"><tspan x="220.74" y="245.38">$1</tspan></text><text class="AZ Aa Ab Ac"><tspan x="228.64" y="245.38">4</tspan></text><text class="d AZ Aa Ad Ae"><tspan x="85.49" y="253.89">RY</tspan></text><text class="P AZ Aa Ad Ae"><tspan x="95.65" y="253.89">E, MIRTO DEL CONT</tspan><tspan x="168.77" y="253.89">ADINA, BITTERS, CHERR</tspan></text><text class="AZ Aa Ad Ae"><tspan x="259.86" y="253.89">Y</tspan></text><text class="L AZ Aa Ab Ac"><tspan x="138.66" y="268.05">SLOOP </tspan></text><text class="e AZ Aa Ab Ac"><tspan x="166.25" y="268.05">JOHN B. </tspan></text><text class="M AZ Aa Ab Ac"><tspan x="198.88" y="268.05">$1</tspan></text><text class="AZ Aa Ab Ac"><tspan x="206.77" y="268.05">3</tspan></text><text class="O AZ Aa Ad Ae"><tspan x="67.8" y="276.55">BEEFEA</tspan></text><text class="R AZ Aa Ad Ae"><tspan x="96.11" y="276.55">TER, LIME, RA</tspan></text><text class="O AZ Aa Ad Ae"><tspan x="148.9" y="276.55">SPBERR</tspan></text><text class="Q AZ Aa Ad Ae"><tspan x="179.47" y="276.55">Y </tspan></text><text class="O AZ Aa Ad Ae"><tspan x="186.82" y="276.55">PRESERVES, SEAQUENCH</tspan></text><text class="L AZ Aa Ab Ac"><tspan x="131.91" y="290.73">PUMPKIN MARTINI </tspan></text><text class="M AZ Aa Ab Ac"><tspan x="205.62" y="290.73">$1</tspan></text><text class="AZ Aa Ab Ac"><tspan x="213.52" y="290.73">3</tspan></text><text class="O AZ Aa Ad Ae"><tspan x="57.14" y="299.23">HOLLA</tspan></text><text class="W AZ Aa Ad Ae"><tspan xml:space="preserve" x="81.55" y="299.23"> PUMPKIN VODKA, CHERR</tspan></text><text class="Q AZ Aa Ad Ae"><tspan x="178.62" y="299.23">Y </tspan></text><text class="P AZ Aa Ad Ae"><tspan x="185.88" y="299.23">ABSINTHE LIQUEUR, SIMPLE</tspan></text><text class="I AZ Af Ag Ah"><tspan x="391.88" y="32.85">CLA</tspan><tspan x="408.84" y="32.85">SSIC COCKT</tspan><tspan x="462.08" y="32.85">AIL</tspan></text><text class="AZ Af Ag Ah"><tspan x="476.71" y="32.85">S</tspan></text><text class="AZ Ab Ac Aj"><tspan x="412.77" y="55.73">S</tspan></text><text class="g AZ Ab Ac Aj"><tspan x="417.6" y="55.73">AZERAC </tspan></text><text class="h AZ Ab Ac Aj"><tspan x="449.07" y="55.73">$1</tspan></text><text class="AZ Ab Ac Aj"><tspan x="456.76" y="55.73">3</tspan></text><text class="i AZ Aa Ad Ae"><tspan x="308.68" y="64.23">RY</tspan></text><text class="W AZ Aa Ad Ae"><tspan x="318.84" y="64.23">E, SIMPLE, PEYCHAUDS BITTERS, ABSINTHE MIS</tspan></text><text class="j AZ Aa Ad Ae"><tspan x="504.33" y="64.23">T,</tspan></text><text class="O AZ Aa Ad Ae"><tspan xml:space="preserve" x="510.41" y="64.23"> LEMON TWIS</tspan></text><text class="AZ Aa Ad Ae"><tspan x="561.28" y="64.23">T</tspan></text><text class="L AZ Aa Ab Ac"><tspan x="391.02" y="78.4">GIN OLD </tspan></text><text class="k AZ Aa Ab Ac"><tspan x="424.8" y="78.4">FA</tspan></text><text class="L AZ Aa Ab Ac"><tspan x="433.98" y="78.4">SHIONED </tspan></text><text class="l AZ Aa Ab Ac"><tspan x="470.73" y="78.4">$1</tspan></text><text class="AZ Aa Ab Ac"><tspan x="478.62" y="78.4">4</tspan></text><text class="AZ Aa Ad Ae"><tspan x="328.43" y="86.9">B</tspan></text><text class="O AZ Aa Ad Ae"><tspan x="333.56" y="86.9">ARREL</tspan></text><text class="m AZ Aa Ad Ae"><tspan x="357.79" y="86.9">-A</tspan></text><text class="n AZ Aa Ad Ae"><tspan x="366.2" y="86.9">GED GIN, SIMPLE SYRU</tspan></text><text class="o AZ Aa Ad Ae"><tspan x="454.12" y="86.9">P,</tspan></text><text class="O AZ Aa Ad Ae"><tspan x="463.02" y="86.9">ANGOSTURA</tspan></text><text class="p AZ Aa Ad Ae"><tspan xml:space="preserve" x="509.17" y="86.9"> BITTERS,</tspan></text><text class="O AZ Aa Ad Ae"><tspan x="410.9" y="95.4">ORANGE PEEL</tspan></text><text class="L AZ Aa Ab Ac"><tspan x="399.07" y="109.57">OLD </tspan></text><text class="k AZ Aa Ab Ac"><tspan x="416.59" y="109.57">FA</tspan></text><text class="L AZ Aa Ab Ac"><tspan x="425.76" y="109.57">SHIONED </tspan></text><text class="l AZ Aa Ab Ac"><tspan x="462.52" y="109.57">$1</tspan></text><text class="AZ Aa Ab Ac"><tspan x="470.41" y="109.57">2</tspan></text><text class="R AZ Aa Ad Ae"><tspan x="344.4" y="118.07">BOURBON, SIMPLE SYRU</tspan></text><text class="o AZ Aa Ad Ae"><tspan x="438.15" y="118.07">P,</tspan></text><text class="O AZ Aa Ad Ae"><tspan x="447.06" y="118.07">ANGOSTURA</tspan></text><text class="p AZ Aa Ad Ae"><tspan xml:space="preserve" x="493.2" y="118.07"> BITTERS,</tspan></text><text class="O AZ Aa Ad Ae"><tspan x="410.9" y="126.57">ORANGE PEEL</tspan></text><text class="L AZ Aa Ab Ac"><tspan x="414.93" y="140.73">MAI </tspan></text><text class="q AZ Aa Ab Ac"><tspan x="432.14" y="140.73">TA</tspan></text><text class="r AZ Aa Ab Ac"><tspan x="441.2" y="140.73">I $1</tspan></text><text class="AZ Aa Ab Ac"><tspan x="454.5" y="140.73">3</tspan></text><text class="p AZ Aa Ad Ae"><tspan x="331.12" y="149.24">WHITE RUM, DARK</tspan></text><text class="R AZ Aa Ad Ae"><tspan xml:space="preserve" x="400.81" y="149.24"> RUM, LIME, ORGEA</tspan></text><text class="j AZ Aa Ad Ae"><tspan x="473.98" y="149.24">T,</tspan></text><text class="R AZ Aa Ad Ae"><tspan xml:space="preserve" x="480.07" y="149.24"> CURACAO, MINT</tspan></text><text class="AZ Aa Ab Ac"><tspan x="406.88" y="163.41">P</tspan></text><text class="L AZ Aa Ab Ac"><tspan x="411.78" y="163.41">AINKILLER </tspan></text><text class="l AZ Aa Ab Ac"><tspan x="454.66" y="163.41">$1</tspan></text><text class="AZ Aa Ab Ac"><tspan x="462.55" y="163.41">3</tspan></text><text class="p AZ Aa Ad Ae"><tspan x="327.31" y="171.9">RUM, PINEAPPLE, ORANGE, CREAM OF COCONUT</tspan></text><text class="R AZ Aa Ad Ae"><tspan x="510.24" y="171.9">, NUTME</tspan></text><text class="AZ Aa Ad Ae"><tspan x="541.61" y="171.9">G</tspan></text><text class="s AZ Aa Ab Ac"><tspan x="389.68" y="186.08">CORPSE REVIVER #2 </tspan></text><text class="l AZ Aa Ab Ac"><tspan x="472.06" y="186.08">$1</tspan></text><text class="AZ Aa Ab Ac"><tspan x="479.96" y="186.08">4</tspan></text><text class="W AZ Aa Ad Ae"><tspan x="355.94" y="194.57">GIN, LILLET</tspan></text><text class="R AZ Aa Ad Ae"><tspan x="398.68" y="194.57">, LEMON, BAUCHANT</tspan></text><text class="p AZ Aa Ad Ae"><tspan x="475.38" y="194.57">, ABSINTHE</tspan></text><text class="L AZ Aa Ab Ac"><tspan x="410.12" y="208.74">MARTINEZ</tspan></text><text class="l AZ Aa Ab Ac"><tspan xml:space="preserve" x="449.15" y="208.74"> $1</tspan></text><text class="AZ Aa Ab Ac"><tspan x="459.52" y="208.74">4</tspan></text><text class="AZ Aa Ad Ae"><tspan x="329.86" y="217.25">B</tspan></text><text class="O AZ Aa Ad Ae"><tspan x="335" y="217.25">ARREL</tspan></text><text class="m AZ Aa Ad Ae"><tspan x="359.23" y="217.25">-A</tspan></text><text class="W AZ Aa Ad Ae"><tspan x="367.63" y="217.25">GED GIN, SWEET</tspan></text><text class="W AZ Aa Ad Ae"><tspan x="431.98" y="217.25">VERMOUTH, ORANGE BITTER</tspan></text><text class="AZ Aa Ad Ae"><tspan x="539.35" y="217.25">S</tspan></text><text class="t AZ Aa Ab Ac"><tspan x="412.76" y="231.42">SIDECAR </tspan></text><text class="l AZ Aa Ab Ac"><tspan x="448.77" y="231.42">$1</tspan></text><text class="AZ Aa Ab Ac"><tspan x="456.67" y="231.42">3</tspan></text><text class="O AZ Aa Ad Ae"><tspan x="366.43" y="239.91">BRAND</tspan></text><text class="u AZ Aa Ad Ae"><tspan x="392.8" y="239.91">Y,</tspan></text><text class="p AZ Aa Ad Ae"><tspan xml:space="preserve" x="399.3" y="239.91"> GRAN FINALE, LEMON JUICE</tspan></text><text class="L AZ Aa Ab Ac"><tspan x="413.2" y="254.08">MARTINI </tspan></text><text class="l AZ Aa Ab Ac"><tspan x="448.55" y="254.08">$1</tspan></text><text class="AZ Aa Ab Ac"><tspan x="456.45" y="254.08">4</tspan></text><text class="v AZ Aa Ad Ae"><tspan x="338.41" y="262.58">LILLET</tspan></text><text class="w AZ Aa Ad Ae"><tspan x="362.7" y="262.58">, T</tspan></text><text class="O AZ Aa Ad Ae"><tspan x="371.45" y="262.58">ANQUERA</tspan></text><text class="x AZ Aa Ad Ae"><tspan x="407.16" y="262.58">Y </tspan></text><text class="p AZ Aa Ad Ae"><tspan x="414.52" y="262.58">RANGPUR, OLIVE, LEMON TWIS</tspan></text><text class="AZ Aa Ad Ae"><tspan x="531.54" y="262.58">T</tspan></text><text class="I AZ Af Ag Ah"><tspan x="126.77" y="347.15">GIN</tspan></text><text class="L AZ Aa Ab Ac"><tspan x="90.05" y="369.93">LDC GHOS</tspan></text><text class="b AZ Aa Ab Ac"><tspan x="128.57" y="369.93">T </tspan></text><text class="L AZ Aa Ab Ac"><tspan x="135.4" y="369.93">BOMBER </tspan></text><text class="b AZ Aa Ab Ac"><tspan x="170.37" y="369.93">$7</tspan></text><text class="AZ Aa Ab Ac"><tspan x="116.54" y="381.26">F</tspan></text><text class="K AZ Aa Ab Ac"><tspan x="120.75" y="381.26">ABER $4</tspan></text><text class="L AZ Aa Ab Ac"><tspan x="103.45" y="392.59">BEEFEA</tspan></text><text class="y AZ Aa Ab Ac"><tspan x="131.93" y="392.59">TER $6.5</tspan></text><text class="L AZ Aa Ab Ac"><tspan x="89.2" y="403.93">BOMB</tspan></text><text class="z AZ Aa Ab Ac"><tspan x="111.62" y="403.93">AY</tspan></text><text class="K AZ Aa Ab Ac"><tspan xml:space="preserve" x="120.96" y="403.93"> SAPPHIRE $7</tspan></text><text class="AA AZ Aa Ab Ac"><tspan x="172.95" y="403.93">.5</tspan></text><text class="L AZ Aa Ab Ac"><tspan x="104.97" y="415.26">BLUE CO</tspan></text><text class="AB AZ Aa Ab Ac"><tspan x="137.52" y="415.26">AT</tspan></text><text class="b AZ Aa Ab Ac"><tspan xml:space="preserve" x="146.45" y="415.26"> $7</tspan></text><text class="AA AZ Aa Ab Ac"><tspan x="157.18" y="415.26">.5</tspan></text><text class="AZ Aa Ab Ac"><tspan x="83.68" y="426.59">T</tspan></text><text class="L AZ Aa Ab Ac"><tspan x="87.68" y="426.59">ANQUERA</tspan></text><text class="AC AZ Aa Ab Ac"><tspan x="123.43" y="426.59">Y </tspan></text><text class="S AZ Aa Ab Ac"><tspan x="130.78" y="426.59">RANGPUR </tspan></text><text class="b AZ Aa Ab Ac"><tspan x="170.2" y="426.59">$7</tspan></text><text class="AA AZ Aa Ab Ac"><tspan x="178.46" y="426.59">.5</tspan></text><text class="L AZ Aa Ab Ac"><tspan x="76.36" y="437.93">BOMB</tspan></text><text class="z AZ Aa Ab Ac"><tspan x="98.78" y="437.93">AY</tspan></text><text class="L AZ Aa Ab Ac"><tspan xml:space="preserve" x="108.12" y="437.93"> BRAMBLE BERR</tspan></text><text class="AC AZ Aa Ab Ac"><tspan x="170.21" y="437.93">Y $7</tspan></text><text class="AA AZ Aa Ab Ac"><tspan x="185.79" y="437.93">.5</tspan></text><text class="L AZ Aa Ab Ac"><tspan x="76.36" y="449.26">BLUE CO</tspan></text><text class="AB AZ Aa Ab Ac"><tspan x="108.92" y="449.26">AT</tspan></text><text class="L AZ Aa Ab Ac"><tspan xml:space="preserve" x="117.84" y="449.26"> BARREL</tspan></text><text class="AD AZ Aa Ab Ac"><tspan x="149.81" y="449.26">-A</tspan></text><text class="AE AZ Aa Ab Ac"><tspan x="158.23" y="449.26">GED $8.5</tspan></text><text class="AF AZ Aa Ab Ac"><tspan x="109.98" y="460.6">ROKU GIN $9</tspan></text><text class="Z AZ Aa Ab Ac"><tspan x="104.76" y="471.94">HENDRICKS </tspan></text><text class="M AZ Aa Ab Ac"><tspan x="151.77" y="471.94">$1</tspan></text><text class="AZ Aa Ab Ac"><tspan x="159.67" y="471.94">0</tspan></text><text class="L AZ Aa Ab Ac"><tspan x="65.75" y="483.26">WHITLEY</tspan></text><text class="e AZ Aa Ab Ac"><tspan xml:space="preserve" x="99.71" y="483.26"> NEILL ALOE CUCUMBER $6</tspan></text><text class="L AZ Aa Ab Ac"><tspan x="69.47" y="494.7">SQUARE ONE </tspan><tspan x="120.58" y="494.7">JUNIPERLESS GIN </tspan></text><text class="b AZ Aa Ab Ac"><tspan x="190.95" y="494.7">$7</tspan></text><text class="AG AZ Af Ag Ah"><tspan x="305.82" y="347.15">RU</tspan></text><text class="AZ Af Ag Ah"><tspan x="318.09" y="347.15">M</tspan></text><text class="K AZ Aa Ab Ac"><tspan x="271.79" y="369.93">BACARDI SUPERIOR $5</tspan><tspan x="281.18" y="381.26">BACARDI GOLD $5</tspan></text><text class="AH AZ Aa Ab Ac"><tspan x="289.12" y="392.59">MEYERS $4.5</tspan><tspan x="275.4" y="403.93">CAPT</tspan></text><text class="AI AZ Aa Ab Ac"><tspan x="294.74" y="403.93">AIN MORGAN $5</tspan></text><text class="AZ Aa Ab Ac"><tspan x="278.72" y="415.26">S</tspan></text><text class="L AZ Aa Ab Ac"><tspan x="283.68" y="415.26">AILOR </tspan><tspan x="309.15" y="415.26">JERR</tspan></text><text class="AE AZ Aa Ab Ac"><tspan x="328.03" y="415.26">YS $5</tspan></text><text class="S AZ Aa Ab Ac"><tspan x="265.68" y="426.59">RHUM BARBANCOUR</tspan></text><text class="AJ AZ Aa Ab Ac"><tspan x="343.37" y="426.59">T $7</tspan></text><text class="AA AZ Aa Ab Ac"><tspan x="358.41" y="426.59">.5</tspan></text><text class="K AZ Aa Ab Ac"><tspan x="272.62" y="437.93">LEBLON CACHACA</tspan></text><text class="AJ AZ Aa Ab Ac"><tspan xml:space="preserve" x="340.73" y="437.93"> $7</tspan></text><text class="AA AZ Aa Ab Ac"><tspan x="351.46" y="437.93">.5</tspan></text><text class="I AZ Af Ag Ah"><tspan x="296.98" y="462.8">TEQUILA</tspan></text><text class="e AZ Aa Ab Ac"><tspan x="265.27" y="485.58">JOSE CUERVO SIL</tspan></text><text class="AE AZ Aa Ab Ac"><tspan x="331.67" y="485.58">VER $5.5</tspan></text><text class="e AZ Aa Ab Ac"><tspan x="272.2" y="496.9">JOSE CUERVO GOLD $6</tspan></text><text class="AZ Aa Ab Ac"><tspan x="270.6" y="508.24">C</tspan></text><text class="L AZ Aa Ab Ac"><tspan x="275.78" y="508.24">AZADORES BLANCO </tspan></text><text class="b AZ Aa Ab Ac"><tspan x="351.75" y="508.24">$7</tspan></text><text class="AZ Aa Ab Ac"><tspan x="265.38" y="519.58">C</tspan></text><text class="L AZ Aa Ab Ac"><tspan x="270.55" y="519.58">AZADORES REPOSADO </tspan></text><text class="b AZ Aa Ab Ac"><tspan x="356.98" y="519.58">$7</tspan></text><text class="L AZ Aa Ab Ac"><tspan x="270.97" y="530.91">EL</tspan><tspan xml:space="preserve" x="279.92" y="530.91"> MA</tspan></text><text class="AF AZ Aa Ab Ac"><tspan x="293.64" y="530.91">YOR BLANCO $7</tspan></text><text class="AA AZ Aa Ab Ac"><tspan x="353.12" y="530.91">.5</tspan></text><text class="L AZ Aa Ab Ac"><tspan x="268.68" y="542.25">EL</tspan><tspan xml:space="preserve" x="277.62" y="542.25"> MA</tspan></text><text class="AI AZ Aa Ab Ac"><tspan x="291.34" y="542.25">YOR REPOSADO $8</tspan></text><text class="L AZ Aa Ab Ac"><tspan x="275.59" y="553.58">EL</tspan><tspan xml:space="preserve" x="284.53" y="553.58"> MA</tspan></text><text class="AF AZ Aa Ab Ac"><tspan x="298.25" y="553.58">YOR ANEJO $1</tspan></text><text class="AZ Aa Ab Ac"><tspan x="350.79" y="553.58">0</tspan></text><text class="L AZ Aa Ab Ac"><tspan x="266.87" y="564.91">TEQUILA</tspan><tspan xml:space="preserve" x="298.93" y="564.91"> OCHO PLA</tspan></text><text class="AK AZ Aa Ab Ac"><tspan x="339.44" y="564.91">TO $1</tspan></text><text class="AZ Aa Ab Ac"><tspan x="359.5" y="564.91">0</tspan><tspan x="248.43" y="576.26">F</tspan></text><text class="K AZ Aa Ab Ac"><tspan x="252.91" y="576.26">OSFORO MEZCA</tspan></text><text class="AJ AZ Aa Ab Ac"><tspan x="312.23" y="576.26">L </tspan></text><text class="L AZ Aa Ab Ac"><tspan x="318.98" y="576.26">ENSAMBLE $</tspan></text><text class="AA AZ Aa Ab Ac"><tspan x="367.55" y="576.26">10.5</tspan></text><text class="L AZ Aa Ab Ac"><tspan x="258.39" y="587.69">TEQUILA</tspan></text><text class="e AZ Aa Ab Ac"><tspan xml:space="preserve" x="290.45" y="587.69"> OCHO REPOSADO $1</tspan></text><text class="AZ Aa Ab Ac"><tspan x="368.36" y="587.69">2</tspan></text><text class="AZ Af Ag Ah"><tspan x="472.14" y="347.15">V</tspan></text><text class="I AZ Af Ag Ah"><tspan x="477.78" y="347.15">ODKA</tspan></text><text class="AZ Aa Ab Ac"><tspan x="436.54" y="369.93">P</tspan></text><text class="L AZ Aa Ab Ac"><tspan x="441.45" y="369.93">ARKING CHAIR </tspan></text><text class="AZ Aa Ab Ac"><tspan x="499.7" y="369.93">V</tspan></text><text class="L AZ Aa Ab Ac"><tspan x="504.56" y="369.93">ODKA</tspan></text><text class="AA AZ Aa Ab Ac"><tspan xml:space="preserve" x="525.29" y="369.93"> $4</tspan></text><text class="AL AZ Aa Ab Ac"><tspan x="460.87" y="381.26">SMIRNOFF $5</tspan><tspan x="451.16" y="392.59">STOLICHN</tspan></text><text class="AM AZ Aa Ab Ac"><tspan x="489.45" y="392.59">AYA</tspan></text><text class="AA AZ Aa Ab Ac"><tspan xml:space="preserve" x="503.29" y="392.59"> $4.5</tspan></text><text class="AE AZ Aa Ab Ac"><tspan x="464.74" y="403.93">TITOS $5.5</tspan></text><text class="L AZ Aa Ab Ac"><tspan x="460.09" y="415.26">KETEL</tspan></text><text class="AI AZ Aa Ab Ac"><tspan xml:space="preserve" x="483.33" y="415.26"> ONE $6</tspan></text><text class="t AZ Aa Ab Ac"><tspan x="470.66" y="426.59">HAKU </tspan></text><text class="b AZ Aa Ab Ac"><tspan x="494.01" y="426.59">$7</tspan></text><text class="AZ Aa Ab Ac"><tspan x="451.54" y="437.93">F</tspan></text><text class="L AZ Aa Ab Ac"><tspan x="455.75" y="437.93">ABER </tspan></text><text class="AZ Aa Ab Ac"><tspan x="478.47" y="437.93">V</tspan></text><text class="L AZ Aa Ab Ac"><tspan x="483.05" y="437.93">ANILLA</tspan></text><text class="AA AZ Aa Ab Ac"><tspan xml:space="preserve" x="510.29" y="437.93"> $4</tspan></text><text class="L AZ Aa Ab Ac"><tspan x="447.84" y="449.26">ABSOLUT</tspan></text><text class="t AZ Aa Ab Ac"><tspan xml:space="preserve" x="482.45" y="449.26"> CITRON $5</tspan></text><text class="I AZ Af Ag Ah"><tspan x="114.27" y="518">WHISKEY</tspan></text><text class="L AZ Aa Ab Ac"><tspan x="98.38" y="540.77">EV</tspan><tspan x="107.68" y="540.77">AN </tspan></text><text class="e AZ Aa Ab Ac"><tspan x="120.62" y="540.77">WILLIAMS $4</tspan></text><text class="a AZ Aa Ab Ac"><tspan xml:space="preserve" x="105.13" y="552.12">JIM BEAM  $4.5</tspan></text><text class="L AZ Aa Ab Ac"><tspan x="62.61" y="563.44">EV</tspan><tspan x="71.91" y="563.44">AN </tspan></text><text class="e AZ Aa Ab Ac"><tspan x="84.86" y="563.44">WILLIAMS BOTTLED IN BOND $6</tspan></text><text class="AN AZ Aa Ab Ac"><tspan x="101.48" y="574.78">JACK DANIELS $6</tspan></text><text class="L AZ Aa Ab Ac"><tspan x="87.62" y="586.12">JOHNNY</tspan></text><text class="b AZ Aa Ab Ac"><tspan xml:space="preserve" x="117.92" y="586.12"> W</tspan></text><text class="Z AZ Aa Ab Ac"><tspan x="127.16" y="586.12">ALKER RED $6</tspan></text><text class="L AZ Aa Ab Ac"><tspan x="84.63" y="597.44">GEORGE DICKEL</tspan></text><text class="AO AZ Aa Ab Ac"><tspan x="147.9" y="597.44">RY</tspan></text><text class="AP AZ Aa Ab Ac"><tspan xml:space="preserve" x="158.05" y="597.44">E  $6.5</tspan></text><text class="S AZ Aa Ab Ac"><tspan x="108.81" y="608.78">DEW</tspan></text><text class="Y AZ Aa Ab Ac"><tspan x="125.67" y="608.78">ARS $6.5</tspan></text><text class="S AZ Aa Ab Ac"><tspan x="93.33" y="620.12">RITTENHOUSE </tspan></text><text class="AO AZ Aa Ab Ac"><tspan x="149.04" y="620.12">RY</tspan></text><text class="Y AZ Aa Ab Ac"><tspan x="159.2" y="620.12">E $6</tspan></text><text class="Z AZ Aa Ab Ac"><tspan x="97.47" y="631.44">MAKERS MARK</tspan></text><text class="b AZ Aa Ab Ac"><tspan xml:space="preserve" x="153.95" y="631.44"> $7</tspan></text><text class="AA AZ Aa Ab Ac"><tspan x="164.68" y="631.44">.5</tspan></text><text class="AZ Aa Ab Ac"><tspan x="111.05" y="642.79">J</tspan></text><text class="L AZ Aa Ab Ac"><tspan x="114.66" y="642.79">AMESON </tspan></text><text class="b AZ Aa Ab Ac"><tspan x="149.37" y="642.79">$7</tspan></text><text class="L AZ Aa Ab Ac"><tspan x="93.12" y="654.12">BULLEIT</tspan></text><text class="e AZ Aa Ab Ac"><tspan xml:space="preserve" x="124.41" y="654.12"> BOURBON $8</tspan></text><text class="AZ Aa Ab Ac"><tspan x="90.16" y="665.45">J</tspan></text><text class="K AZ Aa Ab Ac"><tspan x="93.77" y="665.45">AMESON ORANGE $8.5</tspan></text><text class="L AZ Aa Ab Ac"><tspan x="96.96" y="676.79">SUNTOR</tspan></text><text class="AC AZ Aa Ab Ac"><tspan x="127.7" y="676.79">Y T</tspan></text><text class="y AZ Aa Ab Ac"><tspan x="139.46" y="676.79">OKI $9.5</tspan></text><text class="K AZ Aa Ab Ac"><tspan x="96.65" y="688.13">BASIL HA</tspan></text><text class="AI AZ Aa Ab Ac"><tspan x="131.48" y="688.13">YDENS </tspan></text><text class="M AZ Aa Ab Ac"><tspan x="161.96" y="688.13">$1</tspan></text><text class="AZ Aa Ab Ac"><tspan x="169.86" y="688.13">1</tspan></text><text class="K AZ Aa Ab Ac"><tspan x="102.16" y="699.46">MICHTERS $</tspan></text><text class="AQ AZ Aa Ab Ac"><tspan x="151.88" y="699.46">10.5</tspan></text><text class="K AZ Aa Ab Ac"><tspan x="94.43" y="710.8">LAPHROIG 10 </tspan></text><text class="AR AZ Aa Ab Ac"><tspan x="146.34" y="710.8">Y/</tspan></text><text class="AP AZ Aa Ab Ac"><tspan x="154.67" y="710.8">O $1</tspan></text><text class="AZ Aa Ab Ac"><tspan x="170.33" y="710.8">3</tspan></text><text class="L AZ Aa Ab Ac"><tspan x="86.32" y="722.13">NIKKA</tspan></text><text class="e AZ Aa Ab Ac"><tspan xml:space="preserve" x="109.99" y="722.13"> COFFEY GRAIN $1</tspan></text><text class="AZ Aa Ab Ac"><tspan x="178.65" y="722.13">4</tspan></text><text class="L AZ Aa Ab Ac"><tspan x="94.2" y="733.46">KNOB CREEK</tspan></text><text class="AQ AZ Aa Ab Ac"><tspan xml:space="preserve" x="142.85" y="733.46"> 12 $14.5</tspan></text><text class="L AZ Aa Ab Ac"><tspan x="47.5" y="744.8">BRUICHLADDICH POR</tspan></text><text class="b AZ Aa Ab Ac"><tspan x="129.03" y="744.8">T </tspan></text><text class="t AZ Aa Ab Ac"><tspan x="135.85" y="744.8">CHARLOTTE 10 </tspan></text><text class="AR AZ Aa Ab Ac"><tspan x="193.19" y="744.8">Y/</tspan></text><text class="AP AZ Aa Ab Ac"><tspan x="201.52" y="744.8">O $1</tspan></text><text class="AZ Aa Ab Ac"><tspan x="217.17" y="744.8">5</tspan></text><text class="a AZ Aa Ab Ac"><tspan x="106.88" y="756.13">BOOKERS $20</tspan></text><text class="L AZ Aa Ab Ac"><tspan x="84.2" y="767.57">EV</tspan><tspan x="93.49" y="767.57">AN </tspan><tspan x="106.44" y="767.57">WILLIAMS HONEY</tspan></text><text class="AQ AZ Aa Ab Ac"><tspan xml:space="preserve" x="173.39" y="767.57"> $4</tspan></text><text class="AZ Aa Af Ag"><tspan x="418.32" y="476.63">Y</tspan></text><text class="AT AZ Aa Af Ag"><tspan x="423.2" y="476.63">OGUR</tspan></text><text class="AU AZ Aa Af Ag"><tspan x="444.44" y="476.63">T </tspan></text><text class="AV AZ Aa Af Ag"><tspan x="451.38" y="476.63">OR COFFEE SOJU SHOTS $3</tspan></text><text class="AT AZ Aa Af Ag"><tspan x="427.02" y="487.98">CHILLED PLUM </tspan></text><text class="AW AZ Aa Af Ag"><tspan x="486.26" y="487.98">WINE SHOTS $3</tspan></text><text class="AZ Af Ag Ah"><tspan x="472.27" y="512.6">O</tspan></text><text class="I AZ Af Ag Ah"><tspan x="478.41" y="512.6">THER</tspan></text><text class="e AZ Aa Ab Ac"><tspan x="411.83" y="535.37">G.E. MASSENEZ GRIOTTINI APERITIF $6</tspan></text><text class="AX AZ Aa Ab Ac"><tspan x="444.04" y="546.71">LAZZARONI FERNET</tspan></text><text class="AJ AZ Aa Ab Ac"><tspan xml:space="preserve" x="518.16" y="546.71"> $7</tspan></text><text class="L AZ Aa Ab Ac"><tspan x="420.05" y="558.04">MARA</tspan><tspan x="442.11" y="558.04">SKA</tspan></text><text class="AA AZ Aa Ab Ac"><tspan xml:space="preserve" x="457.19" y="558.04"> 10 </tspan></text><text class="AR AZ Aa Ab Ac"><tspan x="470.18" y="558.04">Y/</tspan></text><text class="AI AZ Aa Ab Ac"><tspan x="478.51" y="558.04">O PLUM BRANDY $8</tspan></text><text class="t AZ Aa Ab Ac"><tspan x="427.91" y="569.38">LAIRDS 7</tspan></text><text class="AA AZ Aa Ab Ac"><tspan x="464.35" y="569.38">.5 </tspan></text><text class="AR AZ Aa Ab Ac"><tspan x="474.15" y="569.38">Y/</tspan></text><text class="a AZ Aa Ab Ac"><tspan x="482.48" y="569.38">O APPLEJACK $9</tspan></text><text class="AY AZ Aa Ab Ac"><tspan x="441.99" y="580.72">PA</tspan></text><text class="L AZ Aa Ab Ac"><tspan x="451.88" y="580.72">OLUCCI CIOCIARO </tspan></text><text class="b AZ Aa Ab Ac"><tspan x="522.67" y="580.72">$7</tspan></text><text class="e AZ Aa Ab Ac"><tspan x="437.18" y="592.05">MIRTO DEL</tspan></text><text class="L AZ Aa Ab Ac"><tspan xml:space="preserve" x="478.62" y="592.05"> CONT</tspan><tspan x="501.2" y="592.05">ADINA</tspan></text><text class="AJ AZ Aa Ab Ac"><tspan xml:space="preserve" x="525.02" y="592.05"> $7</tspan></text><text class="AI AZ Aa Ab Ac"><tspan x="410.46" y="603.38">CASA MARIOL VERMUT NEGRE (3 OZ) $9</tspan></text><text class="AZ Aa Ab Ac"><tspan x="428.12" y="614.72">A</tspan></text><text class="L AZ Aa Ab Ac"><tspan x="433.09" y="614.72">SKALON </tspan><tspan x="465.91" y="614.72">ARAK</tspan></text><text class="AL AZ Aa Ab Ac"><tspan xml:space="preserve" x="486.38" y="614.72"> EXTRA FINE $5</tspan></text></svg>