<?xml version="1.0" encoding="UTF-8"?>
<svg xmlns="http://www.w3.org/2000/svg" viewBox="0 0 613 793">
  <defs>
    <style>
      .cls-1 {
        letter-spacing: .12em;
      }

      .cls-1, .cls-2, .cls-3, .cls-4, .cls-5, .cls-6, .cls-7, .cls-8, .cls-9, .cls-10, .cls-11, .cls-12, .cls-13, .cls-14, .cls-15, .cls-16, .cls-17, .cls-18, .cls-19, .cls-20, .cls-21, .cls-22, .cls-23 {
        font-family: Rift-Bold, Rift;
        font-weight: 700;
      }

      .cls-1, .cls-17, .cls-18 {
        font-size: 8px;
      }

      .cls-24, .cls-25, .cls-26, .cls-3, .cls-27, .cls-28, .cls-29, .cls-30, .cls-31, .cls-32, .cls-33, .cls-4, .cls-34, .cls-35, .cls-36, .cls-37, .cls-5, .cls-38, .cls-39, .cls-6, .cls-40, .cls-7, .cls-8, .cls-41, .cls-42, .cls-43, .cls-44, .cls-45, .cls-9, .cls-46, .cls-47, .cls-48, .cls-10, .cls-49, .cls-11, .cls-12, .cls-13, .cls-14, .cls-50, .cls-51, .cls-16, .cls-52, .cls-53, .cls-54, .cls-55, .cls-56, .cls-57, .cls-58, .cls-19, .cls-20, .cls-59, .cls-60, .cls-61, .cls-62, .cls-22, .cls-23 {
        font-size: 10.5px;
      }

      .cls-24, .cls-25, .cls-26, .cls-27, .cls-28, .cls-29, .cls-30, .cls-31, .cls-33, .cls-34, .cls-35, .cls-36, .cls-37, .cls-38, .cls-39, .cls-40, .cls-41, .cls-43, .cls-44, .cls-45, .cls-46, .cls-48, .cls-49, .cls-51, .cls-53, .cls-54, .cls-55, .cls-56, .cls-58, .cls-59, .cls-60, .cls-62 {
        font-family: Rift-Medium, Rift;
        font-weight: 500;
      }

      .cls-24, .cls-9 {
        letter-spacing: .1em;
      }

      .cls-25, .cls-26, .cls-28, .cls-29, .cls-30, .cls-31, .cls-32, .cls-33, .cls-34, .cls-5, .cls-38, .cls-39, .cls-40, .cls-41, .cls-42, .cls-44, .cls-45, .cls-47, .cls-48, .cls-10, .cls-12, .cls-13, .cls-50, .cls-63, .cls-51, .cls-52, .cls-53, .cls-55, .cls-57, .cls-58, .cls-20, .cls-59, .cls-61, .cls-62, .cls-22 {
        fill: #231f20;
      }

      .cls-25, .cls-35, .cls-42, .cls-11, .cls-22 {
        letter-spacing: .11em;
      }

      .cls-2 {
        letter-spacing: .11em;
      }

      .cls-2, .cls-15, .cls-21 {
        font-size: 10px;
      }

      .cls-26, .cls-43 {
        letter-spacing: .11em;
      }

      .cls-3, .cls-62 {
        letter-spacing: .11em;
      }

      .cls-27, .cls-40, .cls-16 {
        letter-spacing: .11em;
      }

      .cls-28, .cls-14, .cls-54 {
        letter-spacing: .11em;
      }

      .cls-29 {
        letter-spacing: .11em;
      }

      .cls-30 {
        letter-spacing: .08em;
      }

      .cls-31, .cls-7 {
        letter-spacing: .09em;
      }

      .cls-64 {
        fill: #fff;
        stroke: #231f20;
        stroke-miterlimit: 10;
      }

      .cls-32, .cls-42, .cls-47, .cls-50, .cls-52, .cls-57, .cls-61 {
        font-family: Rift-Light, Rift;
        font-weight: 300;
      }

      .cls-32, .cls-13 {
        letter-spacing: .06em;
      }

      .cls-33 {
        letter-spacing: .1em;
      }

      .cls-34, .cls-52 {
        letter-spacing: .06em;
      }

      .cls-36, .cls-19, .cls-59 {
        letter-spacing: .11em;
      }

      .cls-37, .cls-12 {
        letter-spacing: .03em;
      }

      .cls-5, .cls-38, .cls-57 {
        letter-spacing: .06em;
      }

      .cls-6 {
        letter-spacing: .07em;
      }

      .cls-8 {
        letter-spacing: .07em;
      }

      .cls-41 {
        letter-spacing: .1em;
      }

      .cls-44 {
        letter-spacing: .11em;
      }

      .cls-45 {
        letter-spacing: .1em;
      }

      .cls-46, .cls-53, .cls-23 {
        letter-spacing: .09em;
      }

      .cls-47 {
        letter-spacing: .06em;
      }

      .cls-48, .cls-56 {
        letter-spacing: .1em;
      }

      .cls-10 {
        letter-spacing: .06em;
      }

      .cls-49 {
        letter-spacing: .11em;
      }

      .cls-50 {
        letter-spacing: .02em;
      }

      .cls-63 {
        stroke-width: 0px;
      }

      .cls-51 {
        letter-spacing: .1em;
      }

      .cls-15 {
        letter-spacing: .11em;
      }

      .cls-55 {
        letter-spacing: .06em;
      }

      .cls-58 {
        letter-spacing: .11em;
      }

      .cls-18 {
        letter-spacing: .11em;
      }
    </style>
  </defs>
  <g id="Layer_2" data-name="Layer 2">
    <rect class="cls-64" x=".5" y=".5" width="612" height="792"/>
  </g>
  <g id="Layer_1" data-name="Layer 1">
    <g>
      <path class="cls-63" d="m507.33,94.87q.26.09.53.17c-.23.12-.13.05-.33.21q-.1-.19-.2-.39h0Zm-20.69-.35c.06.06.29.29.35.35h-.53c.03-.06.15-.29.18-.35h0Zm-5.44,0c.03.06.15.29.17.35.06-.03.29-.15.35-.18v.53c-.09-.12-.44-.58-.53-.7h0Zm26.13-.18c.09.03.44.15.53.18-.06.03-.29.15-.35.17-.03-.06-.15-.29-.17-.35h0Zm-37.53,0c-.2,1.19.27.76.88.18-.17.68-.37.74-1.05.88q.09-.53.17-1.05h0Zm-1.4,0q.17.35.35.7c-.4-.32-.55-.29-.35-.7h0Zm-8.77-.53c.06.03.29.15.35.17-.09.06-.44.29-.53.35.03-.09.15-.44.17-.53h0Zm21.04-.35c.03.09.15.44.18.53-.09-.03-.44-.15-.53-.17.06-.06.29-.29.35-.35h0Zm-10.35,0q.09.26.17.53c-.37-.1-.49-.16-.79.09q.31-.31.61-.61h0Zm39.81-.35c.09.03.44.15.53.18-.09.03-.44.15-.53.18v-.35h0Zm-3.33-.18h.88v.35c-.15-.06-.73-.29-.88-.35h0Zm2.98-.35v.35h-.88c.2-.4.46-.34.88-.35h0Zm-41.56,0c.06.12.29.58.35.7h-.35v-.7h0Zm.35-.35c.06.09.29.44.35.53h-.35v-.53h0Zm2.81-.17h.35v.53c-.06-.09-.29-.44-.35-.53h0Zm-4.03,0h.53c-.03.12-.15.58-.17.7-.06-.12-.29-.59-.35-.7h0Zm43.14-.53c.36.18.29.34.17.7q-.09-.35-.17-.7h0Zm-42.09,0c.06.03.29.15.35.18-.03.06-.15.29-.18.35-.03-.09-.15-.44-.17-.53h0Zm-8.59,0c.03.12.15.58.18.7h-.35c.03-.12.15-.58.17-.7h0Zm47.52-.35c.03.09.15.44.17.53-.06-.03-.29-.15-.35-.18.03-.06.15-.29.18-.35h0Zm18.24-.35c.06.03.29.15.35.18-.09.03-.44.15-.53.17.03-.06.15-.29.17-.35h0Zm-54.71,0c.06.06.29.29.35.35h-.53c.03-.06.15-.29.18-.35h0Zm-1.05-.35c.57.29.68.43.53,1.05q.44.09.88.18-.26.09-.53.18.09.18.18.35.18-.09.35-.17c-.24.41-.4.4-.88.53v-1.05q-.26.09-.53.18.17-.44.35-.88-.18.09-.35.18v-.53h0Zm37.7-.17c.03.06.15.29.17.35.06-.03.29-.15.35-.18-.03.06-.15.29-.17.35-.06-.09-.29-.44-.35-.53h0Zm-36.65-.18c.03.09.15.44.18.53h-.35c.03-.09.15-.44.18-.53h0Zm-.7-.17c.06.09.29.44.35.53-.09-.03-.44-.15-.53-.17.03-.06.15-.29.18-.35h0Zm54.36-.18c.06.03.29.15.35.18-.09.03-.44.15-.53.17.03-.06.15-.29.17-.35h0Zm-52.96-.18c.03.09.15.44.18.53-.06-.03-.29-.15-.35-.17.03-.06.15-.29.18-.35h0Zm8.94-.18c.44.04.43.31.53.7-.44-.04-.43-.31-.53-.7h0Zm-10.7,0h.35c-.03.09-.15.44-.18.53-.03-.09-.15-.44-.17-.53h0Zm8.24-.17c.06.09.29.44.35.53h-.35v-.53h0Zm12.1-.18c.06.09.29.44.35.53-.03-.06-.15-.29-.18-.35-.06.03-.29.15-.35.17.03-.06.15-.29.17-.35h0Zm30.51-.18h.53v.35c-.09-.06-.44-.29-.53-.35h0Zm2.98-.18h.53c-.03.15-.15.73-.17.88-.06-.15-.29-.73-.35-.88h0Zm-15.08,0h.7c-.45.28-.27.52-.18,1.05h-.53c.24-.6.4-.65,0-1.05h0Zm-37.88,0q.35.35.7.7-.17-.09-.35-.17c-.24.5-.2.53-.7.53q.35-.26.7-.53-.35-.09-.7-.18.17-.18.35-.35h0Zm-2.63,0h.35c-.03.06-.15.29-.18.35-.03-.06-.15-.29-.18-.35h0Zm43.49-.17c.11.47.21.51-.18.7q.18.17.35.35c-.53-.39-.45-.52-.18-1.05h0Zm-4.21,0h.35c-.03.06-.15.29-.17.35-.03-.06-.15-.29-.17-.35h0Zm-35.95-.18h.35c-.03.09-.15.44-.18.53-.03-.09-.15-.44-.18-.53h0Zm54.19-.35c.03.06.15.29.18.35h-.35c.03-.06.15-.29.17-.35h0Zm-3.33-.35c.03.06.15.29.18.35-.06.03-.29.15-.35.18.03-.09.15-.44.17-.53h0Zm-51.73.35h-.7q.26.26.53.53-.26.09-.53.17c-.12-.75-.09-1.19.7-.7h0Zm52.96-.7c.5.24.53.2.53.7q-.26-.35-.53-.7h0Zm-24.2,0c.06.06.29.29.35.35-.09.03-.44.15-.53.18.06-.03.29-.15.35-.18-.03-.06-.15-.29-.17-.35h0Zm25.08-.18c.57.35.7.3.7.88q-.26-.09-.53-.18.18-.18.35-.35-.26-.18-.53-.35h0Zm-56.82,0c.06.12.29.59.35.7h-.35v-.7h0Zm65.06-.35c.06.03.29.15.35.18-.09.06-.44.29-.53.35.03-.09.15-.44.18-.53h0Zm-64.36,0c.09.54.26.66-.18.88q.09-.44.18-.88h0Zm41.21-.18v1.05c-.09-.06-.44-.29-.53-.35-.03.06-.15.29-.18.35.12-.18.59-.88.7-1.05h0Zm-2.46,0c.2.37.83,1.33,1.23.53-.07.54-.05.54-.53.7q.09.18.18.35.26-.18.53-.35-.09.18-.18.35.26.09.53.17c-.32.22-.54.32-.35.7h-.53q.09.26.17.53-.26-.26-.53-.53.44-.35.88-.7-.53-.17-1.05-.35.26-.26.53-.53h-.88v-.88h0Zm-29.46,0c.09.03.44.15.53.18-.03.06-.15.29-.17.35-.06-.09-.29-.44-.35-.53h0Zm-10.17,0c.12.03.59.15.7.18-.12.03-.58.15-.7.18v-.35h0Zm53.66-.18c.03.06.15.29.18.35h-.35c.03-.06.15-.29.17-.35h0Zm-13.5,0h.7v.53h-.7v-.53h0Zm12.98-.18h.35c-.03.06-.15.29-.18.35-.03-.06-.15-.29-.17-.35h0Zm-48.75-.18h.35v.53h-.35v-.53h0Zm25.6-.18c.06.06.29.29.35.35h-.53c.03-.06.15-.29.17-.35h0Zm19.64-.18c.06.09.29.44.35.53-.09-.03-.44-.15-.53-.18.03-.06.15-.29.18-.35h0Zm-5.96,0c-.09.85.14,1.91-.88,1.93.37.58.3.72.88.53q-.26.53-.53,1.05.26-.35.53-.7v1.4h.18c0,.31.05.15-.35.35v-1.05c-.88.44-.79,1.34.18,1.58h-.53v.53c-1.29-.86.5-2.48-.53-3.16q.17-.18.35-.35-.35-.18-.7-.35.44-.53.88-1.05-.26.53-.53,1.05c.95,0,.9-.98,1.05-1.76h0Zm-41.04,0c.17.76.56,1.51-.35,1.76.66-.44.44-1.02.35-1.76h0Zm37.7-.35c.15.06.73.29.88.35-.09.03-.44.15-.53.18.03.06.15.29.17.35-.09-.15-.44-.73-.53-.88h0Zm-.53,0c.09.09.44.44.53.53h-.7c.03-.09.15-.44.17-.53h0Zm2.81-.18c.06.12.29.59.35.7h-.35v-.7h0Zm21.22-.18c.06.06.29.29.35.35h-.53c.03-.06.15-.29.17-.35h0Zm-14.38-.18c.09.03.44.15.53.18-.06.03-.29.15-.35.18-.03-.06-.15-.29-.18-.35h0Zm-7.36-.35c.03.06.15.29.17.35-.06.03-.29.15-.35.18.03-.09.15-.44.18-.53h0Zm-.88,0c.03.06.15.29.18.35-.09.03-.44.15-.53.18.06-.09.29-.44.35-.53h0Zm-31.39,0c.48.05.44.46.53.88l-.53-.88h0Zm-9.29-.18c.48.05.44.46.53.88q-.26-.44-.53-.88h0Zm43.84.18q-.18-.09-.35-.18-.09.18-.17.35-.09-.18-.18-.35c.34-.17.43-.08.7.18h0Zm-41.21-.35c.47.47.53.73.53,1.4h1.05c-.33.67-1.07-.31-1.4.35q-.09-.88-.18-1.76h0Zm6.31-.18c.03.06.15.29.17.35h-.35c.03-.06.15-.29.18-.35h0Zm-5.09,0h.35c-.03.06-.15.29-.18.35-.03-.06-.15-.29-.17-.35h0Zm-4.21,0c.03.06.15.29.18.35h-.35c.03-.06.15-.29.17-.35h0Zm66.11-.7c.06.03.29.15.35.18-.03.06-.15.29-.18.35-.03-.09-.15-.44-.18-.53h0Zm-17.36,0c0,.12,0,.41,0,.35-.09.03-.44.15-.53.18.09-.09.44-.44.53-.53h0Zm-56.99,0c.09.03.44.15.53.18-.03.06-.15.29-.17.35-.06-.09-.29-.44-.35-.53h0Zm51.73-.18c-.04.75-.78,1.17-.53,1.93-.59-.02-.66-1.51-.18-1.75-.1.61-.21.67.18,1.05.05-.35,0-1.23.53-1.23h0Zm-49.63,0c.12.06.58.29.7.35-.12.03-.58.15-.7.18v-.53h0Zm47-.18c.58.03.82-.11,1.05.35q-.18-.09-.35-.18-.09.18-.17.35-.26-.26-.53-.53h0Zm-19.29,0h.35c-.03.06-.15.29-.18.35-.03-.06-.15-.29-.18-.35h0Zm-11.4,0h.53c-.06.12-.29.59-.35.7-.03-.12-.15-.58-.18-.7h0Zm53.13-.18c.06.03.29.15.35.18-.03.06-.15.29-.17.35-.03-.09-.15-.44-.18-.53h0Zm-23.5,0c.03.09.15.44.17.53-.06-.03-.29-.15-.35-.18.03-.06.15-.29.18-.35h0Zm-36.12-.18c.06.03.29.15.35.18-.09.03-.44.15-.53.18.03-.06.15-.29.17-.35h0Zm-11.92,0c.06.09.29.44.35.53h-.35v-.53h0Zm50.5-.18c.57.03.57.19.7.7q-.18-.18-.35-.35-.09.18-.17.35-.09-.35-.18-.7h0Zm-41.21-.18c.12.36.19.52-.17.7q.09-.35.17-.7h0Zm42.09-.18c.12.09.58.44.7.53h-.88c.06-.03.29-.15.35-.18-.03-.06-.15-.29-.18-.35h0Zm5.96-.18c.46.37.53.35.53.88q-.18-.09-.35-.18.09-.18.18-.35-.26.09-.53.18.09-.26.18-.53h0Zm-6.66,0h.35c-.03.06-.15.29-.18.35-.03-.06-.15-.29-.17-.35h0Zm-48.93,0c.41.24.28.46.17.88q-.09-.44-.17-.88h0Zm70.85-.18q.26.09.53.18-.17.26-.35.53c.11-.47.21-.51-.18-.7h0Zm-24.02,0q.26.26.53.53c-.39-.26-.54-.34-.88,0q.17-.26.35-.53h0Zm-29.99,0c.26.52.33.71-.18,1.05.36-.4.3-.56.18-1.05h0Zm-18.41-.18c.59.15.7.27.7.88h-.35q.09-.26.18-.53h-.53v-.35h0Zm48.75-.18q.18.26.35.53c.51-.39.88-.34.88.35-.52-.27-.51-.36-.88,0q-.17-.44-.35-.88h0Zm-38.23.18c.09-.03.44-.15.53-.18-.03.06-.15.29-.17.35h.53c-.09-.12-.44-.59-.53-.7-.06.09-.29.44-.35.53h0Zm38.41-.7c.03.06.15.29.17.35h-.35c.03-.06.15-.29.18-.35h0Zm-9.29.18q-.35.09-.7.18c.26-.26.36-.33.7-.18h0Zm-28.06,0q-.09.26-.18.53.26-.26.53-.53c-.26.35-.57.62-.35,1.05q-.18-.09-.35-.18.18.26.35.53-.26.18-.53.35c-.12-.65-.06-1.02-.7-1.23.33-.66.51-.67,1.23-.53h0Zm40.33-.35c.03.18.15.88.18,1.05-.06-.09-.29-.44-.35-.53-.06.06-.29.29-.35.35.09-.15.44-.73.53-.88h0Zm-52.26,0q.18.18.35.35-.18-.09-.35-.18c.04.44.31.43.7.53q-.44.18-.88.35.09-.53.17-1.05h0Zm50.68-.18c.12.03.58.15.7.18h-.53c.03.12.15.58.17.7-.06-.15-.29-.73-.35-.88h0Zm-22.45,0c.12.06.58.29.7.35-.12.03-.58.15-.7.18v-.53h0Zm20.34-.18c.03.09.15.44.18.53.06-.03.29-.15.35-.18-.03.06-.15.29-.17.35-.06-.12-.29-.59-.35-.7h0Zm26.83-.18c.03.06.15.29.18.35-.06.03-.29.15-.35.18.03-.09.15-.44.18-.53h0Zm-1.93,0c.03.15.15.73.18.88-.06-.03-.29-.15-.35-.18.03-.06.15-.29.18-.35-.09.06-.44.29-.53.35.09-.12.44-.58.53-.7h0Zm-71.72,0h.7v.35h-.7v-.35h0Zm50.5-.18c.06.09.29.44.35.53-.03-.06-.15-.29-.18-.35-.03.06-.15.29-.18.35-.06-.03-.29-.15-.35-.18.06-.06.29-.29.35-.35h0Zm-1.58,0c.09.03.44.15.53.18-.06.03-.29.15-.35.18-.03-.06-.15-.29-.18-.35h0Zm-39.98,0h.53c-.06.15-.29.73-.35.88-.03-.15-.15-.73-.17-.88h0Zm-10.17,0q.09.53.17,1.05c-.35-.4-.3-.56-.17-1.05h0Zm49.1-.18q-.09.44-.18.88-.26-.09-.53-.18.26-.09.53-.18-.09-.18-.17-.35-.18.09-.35.18c.17-.34.32-.34.7-.35h0Zm-40.51-.18c.72.72.88,1.08.88,2.11-.45-.28-.27-.52-.18-1.05-.34.82-.59,1.22-.88.18h.53l-.53-.35c.41-.24.28-.46.18-.88h0Zm38.76-.18c.03.06.15.29.17.35-.06.03-.29.15-.35.18.03-.09.15-.44.17-.53h0Zm-7.19,0c.03.09.15.44.18.53h-.35c.03-.09.15-.44.17-.53h0Zm-29.99,0c.06.06.29.29.35.35h-.53c.03-.06.15-.29.17-.35h0Zm-9.29,0c.06.03.29.15.35.18-.03.06-.15.29-.18.35-.03-.09-.15-.44-.17-.53h0Zm50.5-.18c.06.09.29.44.35.53h-.53c.03-.09.15-.44.18-.53h0Zm-49.8,0c.06.06.29.29.35.35h-.53c.03-.06.15-.29.17-.35h0Zm57.69-.18c.09.06.44.29.53.35h-.7c.03-.06.15-.29.18-.35h0Zm-22.45,1.23q.18-.09.35-.18c-.03,3.09-.1,6.18-.09,9.27,0,1.51-.21,3.15.44,4.51.98,2.04,3.75,2.3,5.67,2.04.51-.07,1.01-.29,1.46-.55.89-.51,1.68-1.17,2.52-1.76v2.46c.21,0,2.79-1.25,2.8-1.76q.09.26.18.53.18-.18.35-.35.09.17.18.35.09-.18.18-.35c.72.67,4.33.4,4.38-.7-.67.02-.81-.08-1.05.53v-.53c-.39.01-1.71.3-1.79-.54-.13-1.36-.26-2.72-.29-4.08-.08-3.37-.02-6.75-.03-10.12h-1.05v1.05c-.49-1.59-2.18-1.03-3.68-1.05v.35c-.84-.31-.5-.41-1.05.18q-.09-.18-.18-.35.18-.09.35-.18c-.96.08-.66-.16-1.05.53-.58-.42-.24-.31-1.05-.18,1.3,1.03,3.12-.59,2.81,2.11h.35c-.08.19-.24.37-.25.58-.12,2.46-.02,4.92-.13,7.38-.05,1.15-.02,2.33-.33,3.43-.38,1.37-2.69,2.19-3.83,1.35-.33-.25-.71-1-.73-1.34-.15-3.34-.03-6.7-.13-10.04-.03-.9-.16-2.4-.61-3.29-.5-1-2.12-.17-2.76-.18-1.41-.01-2.81-.23-4.21-.35.3,1.22,1.7.12,2.28,1.23h0Zm-27.53-.18q-.18-.44-.35-.88-.17.09-.35.18c.46-.92.79.24.7.7h0Zm68.57-1.23c.13.49.42.33.68.7.31.44.31,1.02.72,1.4.04.04.12,0,.17,0q-.09,1.76-.17,3.51c-.89-.04-1.77-.09-2.66-.11-.54-.01-1.06-.01-1.38.46q.09-.26.17-.53-.26.09-.53.18c.05-1.52,1.18-3.14.7-4.56.35.11,1.35-1.01,2.28-1.05h0Zm-70.15,0c-.02.52-.04.52-.53.7q.26.18.53.35-.53.18-1.05.35.17-.18.35-.35-.18-.18-.35-.35.17.09.35.18c.15-.37.23-.88.7-.88h0Zm64.01,2.46h-.53q.09.18.18.35c-2.13.66-2.59,5.71-2.28,7.55,1.27,7.45,13.73,9.58,15.08,1.4-.64.6-2.09,2.38-2.28,3.16-.39-.13-2.42.76-3.36.69-2.95-.2-4.01-4.05-3.83-6.48h-.35c1.15-.65-.5-3.09,1.36-3.09.95,0,1.9.07,2.85.11v-.35c.41.57,1.33.35,1.93.35v-.35q1.75.09,3.51.18c-.05-2.36-1.1-4.13-3.11-5.42-.48-.31-.57-.1-.93.16q.09-.26.18-.53c-1.7-.47-5.21-.46-6.84.54-.39.24-1.79.98-1.58,1.74h0Zm-52.43-.35q-.26-.09-.53-.18-.09.44-.18.88-.17-.18-.35-.35c-.77,1.32-3.52,4.7-1.93,5.97h-.53c.06,1.54.53,4.11,1.78,5.18.24.21.63.21.85.44.1.1-.11.3-.04.42.14.26.37.46.62.62.65.41,1.35.76,2.05,1.07,1.87.83,3.58,1.02,5.61.79.42-.05.33-.34.35-.61,1.74.48,3.1-1.17,4.28-2.31,1.99-1.93,2.25-4.75,1.8-7.39-.23-1.37-.76-3.58-2.4-3.64q.26-.18.53-.35c-.64-.63-3.03-2.73-3.51-1.93-.02-.34.07-.42-.39-.5-.92-.16-1.84-.25-2.76-.37v.35q.35-.09.7-.18c.23.63,1.06.92,1.58,1.75q.18-.09.35-.18c.1.9.2,1.88.7,2.63-.38.31-.27.13-.26.9.02,1.71.15,3.42.11,5.13-.02.89-.12,1.78-.29,2.65-.17.89-.43,1.77-.71,2.63-.37,1.15-2.12.54-2.89,1.14-.39-.59-.79-1.23-1.4-1.58q.09-.17.18-.35c-.42-.28-.5-.91-.53-1.4h-.53c.59-.51.45-3.24-.35-3.33,1.09-.65.19-2.53.24-3.8.02-.58.07-1.16.22-1.72.25-.91.82-2.72,1.64-3.59.34-.36.97-.58,1.05-1.07-1.38.03-4.98.73-5.08,2.28h0Zm-15.26-1.4q.09.18.18.35c-.57.34-1.1.82-1.4,1.4q-.18-.09-.35-.18.17.61.35,1.23c.33-.66.63-1.33.99-1.97.22-.4.64-.24.94-.66.38.36,1.03.25,1.51.46.37.16.63.51.94.77q.09-.26.18-.53-.18.09-.35.18v-.35h.53v10l.53-.18q-.09.35-.18.7-.17-.18-.35-.35c0,1.24.13,2.81-.25,4.07-.21.69-1.04.18-1.15.85q-.35-.18-.7-.35v.53h3.33v-.53c.16.39.08.43.66.46,1.18.06,2.37.04,3.55.07v-.35c.43.61.83.32,1.75.35-.07-.81-1.48-.32-2.02-.97-.72-.87.57-2.85-.44-3.42h.35c0-.41-.07-.58-.35-.88q.18.09.35.17v-1.93q-.18.17-.35.35c0-.37.02-.51.35-.7h-.88c.34-.65.07-.44.88-.53-.02-1.54,0-3.09-.04-4.63-.02-.71.06-.58-.31-.81q.09-.18.18-.35-.26.09-.53.18c.34-1.1.37-.58,0-1.58-.43.51-.13.3-1.05.35.32-.42.1-.31.7-.18q-.17-.09-.35-.18.18-.18.35-.35c-.7-.13-.43.07-.7-.7-.56.14-.52-.24-1.12-.33-.77-.11-1.53-.22-2.31-.25-1.3-.04-2.22.33-3.41.75h0Zm-3.16-.88c.15.06.73.29.88.35-.12.03-.59.15-.7.18.03-.06.15-.29.18-.35-.06-.03-.29-.15-.35-.18h0Zm64.71.35c-.38-.09-.77.22-1.16.22-.9,0-1.8-.28-2.7-.22v-.35c-1.97.2-4.09.39-5.09,2.39-.29.58-.43,1.97-.88,2.35.35.94.35.47,0,1.4.65.03.6,1.39.92,1.91.4.65,1.52,1.46,1.89,1.78q.17-.26.35-.53v.7c.97-.09,1.61.67,2.63.7v.35q.18-.18.35-.35c.43.45,1.11.56,1.62.92,1.74,1.22,1.74,3.27.02,4.43-.33.22-.71.36-1.1.44-.64.13-1.3.12-1.95.18-.28-.95-1.63-1.14-2.48-1.67-.54-.33-.62-.83-1.21-1.14q.18-.18.35-.35c-.89-.04-.34-1.68-1.23-2.11v.53h.35c-.31.39-.29.26-.31.92-.04,1.45-.03,2.9-.04,4.34,1.5-1.64,3.6-.49,5.46-.04.92.22,2.04-.15,2.87-.48.9-.36,1.31-.56,1.67-1.4,1.7.19,1.67-4.03,1.49-5.04-.36-2.02-3.56-4.03-5.52-3.9q.09-.18.17-.35c-1.98-.65-4.25-1.45-3.53-4.05.06-.21.19-.41.36-.55.93-.77,2.61-.73,3.7-.83.03.3-.03.26.28.46.62.41,1.29.73,1.88,1.18.72.55.49,2.64,1.52,2.75-.08-.82-.22-1.63-.24-2.46-.02-.74.79-2.59-.28-2.98q-.09.44-.18.88h0Zm-63.83-1.23v.7h-.88c.15-.12.73-.59.88-.7h0Zm-.53-.7c.06.06.29.29.35.35-.06.06-.29.29-.35.35-.03-.06-.15-.29-.18-.35-.06.03-.29.15-.35.18.09-.09.44-.44.53-.53h0Zm-.53-.35c.03.06.15.29.18.35-.09.03-.44.15-.53.18.06-.09.29-.44.35-.53h0Zm-1.4-.53h.53c-.03.23-.15,1.17-.18,1.4-.06-.23-.29-1.17-.35-1.4h0Zm1.4-.88c.16.58.08.6-.35,1.05q-.09-.44-.18-.88.18.18.35.35.09-.26.17-.53h0Zm0-.7c.18.09.88.44,1.05.53h-1.05v-.53h0Zm-1.23-.18c.23.56.66,1.09.18,1.58q-.09-.79-.18-1.58h0Zm2.1-1.58c.03.09.15.44.18.53h-.35c.03-.09.15-.44.17-.53h0Zm-.53-.18v1.4q.35-.26.7-.53-.26.44-.53.88c-.65-.53-.37-.98-.18-1.75h0Zm-1.93-.18h.35v1.05c-.06-.18-.29-.88-.35-1.05h0Zm2.98.35c-.51-.43-.5-.54-1.05-.35.46-.46,1.05-.33,1.05.35h0Zm-2.81-1.05q.26.44.53.88c-.46-.37-.53-.35-.53-.88h0Zm.7-.18c.03.09.15.44.17.53-.06-.03-.29-.15-.35-.18.03-.06.15-.29.17-.35h0Zm-1.58,0c.06.06.29.29.35.35-.12.03-.58.15-.7.18.06-.09.29-.44.35-.53h0Zm3.86-.88q.09.53.17,1.05c-.36-.4-.3-.56-.17-1.05h0Zm-.88-.7h.35c-.03.06-.15.29-.18.35-.03-.06-.15-.29-.17-.35h0Zm-2.98-.35c.09.03.44.15.53.18-.03.09-.15.44-.18.53-.06-.12-.29-.58-.35-.7h0Zm-3.68.35c.73.59,1.95-.06,2.54.61.66.75-.2,3.01.79,3.07-.82.41-.3,1.81-.31,2.72-.04,4.08-.01,8.16-.07,12.24-.02,1.77-.1,3.54-.17,5.31-.06,1.4-1.33,1.13-2.43,1.15v.35h9.47c-.17-.81-1.15-.37-1.38-1.38-.81-3.55-.37-8.27-.37-11.61h-.53c.08-.99.26-1.97.24-2.96,0-.29-.3-.52-.31-.81-.01-.33.16-.64.24-.97-.13.98-.26.59.17,1.23-.03-3.31.05-6.61-.09-9.92-.02-.36-2.49.09-2.89.18-1.62.35-3.26.63-4.91.79h0Zm66.29-7.2c.06.03.29.15.35.18-.09.03-.44.15-.53.18.03-.06.15-.29.17-.35h0Zm25.6,0h1.23v-.53h-1.23v.53h0Zm-6.49-.53c.06.03.29.15.35.18-.03.06-.15.29-.17.35-.03-.09-.15-.44-.17-.53h0Zm-21.22,0c.06.06.29.29.35.35h-.53c.03-.06.15-.29.18-.35h0Zm-33.49-.18c.12.09.58.44.7.53-.09-.06-.44-.29-.53-.35-.03.06-.15.29-.17.35v-.53h0Zm-7.19,0c.03.09.15.44.17.53-.06-.03-.29-.15-.35-.18.03-.06.15-.29.18-.35h0Zm58.92-.18c.09.09.44.44.53.53h-.53v-.53h0Zm-28.93-.18c.49.05.42.4.53.88q-.26-.44-.53-.88h0Zm-11.22,0c.09.09.44.44.53.53-.12-.03-.58-.15-.7-.18.03-.06.15-.29.18-.35h0Zm-33.49,0v.53q-.17-.18-.35-.35-.09.26-.18.53c-.14-.6-.05-.7.53-.7h0Zm14.38-.18c.06.06.29.29.35.35-.09.03-.44.15-.53.18.03-.09.15-.44.17-.53h0Zm84.17-.18c.03.09.15.44.17.53-.06-.03-.29-.15-.35-.18.03-.06.15-.29.17-.35h0Zm-44.72,0c.06.03.29.15.35.18-.03.06-.15.29-.18.35-.03-.09-.15-.44-.18-.53h0Zm-23.85,0q.18.44.35.88.17-.09.35-.18c-.44.88-.7-.33-.7-.7h0Zm42.79-.18h.35c-.03.06-.15.29-.18.35-.03-.06-.15-.29-.17-.35h0Zm-73.65,0q-.09.35-.17.7c-.11-.47-.21-.51.17-.7h0Zm61.2-.18c.09.12.44.58.53.7-.12-.03-.58-.15-.7-.18.03-.09.15-.44.17-.53h0Zm1.75-.35c0,.61,0,.87-.53,1.23q.18-.53.35-1.05h-.53c.24-.12.43-.18.7-.18h0Zm-50.5,0q.35.18.7.35c-.61.61-1.09.81-1.93,1.05.33-.34.76-.57.53-1.05h1.05q-.18-.18-.35-.35h0Zm29.29-.18c.03.06.15.29.18.35h-.35c.03-.06.15-.29.18-.35h0Zm-26.13,0c.18.48-.16.6-.53.88l.53-.88h0Zm39.81.35q-.26-.09-.53-.18v.53h-.7c.47-.45.61-.73,1.23-.53v.18h0Zm-20.34-.53c.06.06.29.29.35.35h-.53c.03-.06.15-.29.17-.35h0Zm-23.67,0q.09.35.18.7c-.36-.18-.29-.34-.18-.7h0Zm22.1.18c.06-.03.29-.15.35-.18-.03.09-.15.44-.18.53-.06-.12-.2-.41-.17-.35h0Zm.7-.53c.06.09.29.44.35.53-.09.03-.44.15-.53.18.03-.12.15-.59.17-.7h0Zm11.22-.18c.03.12.15.59.18.7h-.35c.03-.12.15-.58.17-.7h0Zm-23.5,0h.35c-.03.06-.15.29-.17.35-.03-.06-.15-.29-.18-.35h0Zm-26.65-.18c.09.09.23.23.17.18-.03.06-.15.29-.17.35v-.53h0Zm67.51-.35c.03.2.15,1.02.18,1.23-.15-.06-.73-.29-.88-.35.09-.06.44-.29.53-.35-.09-.03-.44-.15-.53-.18.12-.06.58-.29.7-.35h0Zm-10.35,0c.03.06.15.29.18.35-.09.03-.44.15-.53.18.06-.09.29-.44.35-.53h0Zm-54.36,0c.03.09.15.44.18.53-.06-.03-.29-.15-.35-.18.03-.06.15-.29.17-.35h0Zm56.82-.18c.12.09.58.44.7.53-.15-.03-.73-.15-.88-.18.03-.06.15-.29.18-.35h0Zm-40.86-.18c.03.06.15.29.18.35-.06.03-.29.15-.35.18.03-.09.15-.44.17-.53h0Zm38.76-.18h.35c-.03.06-.15.29-.17.35-.03-.06-.15-.29-.17-.35h0Zm21.57-.18c.5,0,.47.69.53,1.05-.58-.19-.53-.49-.53-1.05h0Zm-8.94,0c.09.06.44.29.53.35-.06.03-.29.15-.35.18-.03-.06-.15-.29-.18-.35-.03.12-.15.58-.18.7.03-.15.15-.73.18-.88h0Zm-70.67,0q-.26.61-.53,1.23-.09-.18-.17-.35c.47,0,.55-.51.7-.88h0Zm69.09-.18c.38.22.31.27.18.7q-.09-.35-.18-.7h0Zm-18.06,0c.06.09.29.44.35.53-.09-.03-.44-.15-.53-.18.03-.06.15-.29.17-.35h0Zm-.7,0c.06.09.29.44.35.53-.09-.03-.44-.15-.53-.18.03-.06.15-.29.18-.35h0Zm-2.11,0h.53c-.43.27-.27.6-.17,1.05q-.18-.53-.35-1.05h0Zm28.41.35c-.36-.73-.7.08-.7.53q.18-.09.35-.18-.09-.18-.18-.35.18.18.35.35-.26.18-.53.35-.17-.53-.35-1.05c.52-.17.66-.02,1.05.35h0Zm-9.29-.53c.09.03.44.15.53.18-.09.03-.44.15-.53.18v-.35h0Zm-10.87,0c.06.09.29.44.35.53h-.35v-.53h0Zm-36.12,0c.06.06.29.29.35.35-.06-.03-.29-.15-.35-.18-.03.09-.15.44-.18.53.03-.12.15-.59.18-.7h0Zm-19.82,0h.53v.7c-.09-.12-.44-.59-.53-.7h0Zm58.75-.18c.06.03.29.15.35.18-.09.03-.44.15-.53.18.03-.06.15-.29.18-.35h0Zm-40.86,0h.35v.7c-.06-.12-.29-.59-.35-.7h0Zm-1.05,0q.18.18.35.35-.17-.09-.35-.18-.09.26-.18.53l.53-.18c-.2.5.3,1.02,0,1.93v-.35q-.35.09-.7.18.17-.35.35-.7-.35.18-.7.35.44-.44.88-.88h-.53q.17-.53.35-1.05h0Zm-17.54,0c.06.03.29.15.35.18-.09.03-.44.15-.53.18.03-.06.15-.29.17-.35h0Zm48.23-.35c.03.06.15.29.17.35-.09.03-.44.15-.53.18.06-.09.29-.44.35-.53h0Zm-28.23,0c.06.06.29.29.35.35h-.53c.03-.06.15-.29.18-.35h0Zm-17.19,0q.26.35.53.7h-.35c.34.37.32.39.18.88-.36-.42-.57-.44-.35-.88h-.35q.18-.35.35-.7h0Zm73.13-.18c.03.06.15.29.17.35h-.35c.03-.06.15-.29.18-.35h0Zm-36.3,0h.53v.53c-.09-.09-.44-.44-.53-.53h0Zm38.23-.18q.26.26.53.53c-.37.42-.23.59,0,1.05-.42-.56-.53-.88-.53-1.58h0Zm-.53,0c.03.15.15.73.17.88h-.35c.03-.15.15-.73.18-.88h0Zm2.45-.18h.35c-.34.34-.26.49,0,.88h-.53c.41-.24.28-.46.17-.88h0Zm-10.87,0c.06.09.29.44.35.53-.03-.06-.15-.29-.17-.35-.06.03-.29.15-.35.18.03-.06.15-.29.18-.35h0Zm-70.15,0c.09.09.44.44.53.53h-.7c.06-.03.29-.15.35-.18-.03-.06-.15-.29-.17-.35h0Zm51.73-.18c.03.06.15.29.17.35-.06.03-.29.15-.35.18.03-.09.15-.44.18-.53h0Zm-30.69,0c.09.09.44.44.53.53h-.53v-.53h0Zm-20.34,0h.53v.35c-.09-.06-.44-.29-.53-.35h0Zm68.04-.18c.22.32.31.54.7.35q-.09.35-.17.7-.26-.53-.53-1.05h0Zm-10,0c.03.06.15.29.18.35-.06.03-.29.15-.35.18.03-.09.15-.44.18-.53h0Zm-39.46.88c.12-.12.58-.58.7-.7-.06-.03-.29-.15-.35-.18-.06.15-.29.73-.35.88h0Zm-16.66-.88q.17.44.35.88c-.52-.17-.48-.37-.35-.88h0Zm-1.05,0q.09.35.17.7c-.36-.18-.29-.34-.17-.7h0Zm71.72-.18c.03.06.15.29.18.35-.06.03-.29.15-.35.18-.03-.06-.15-.29-.17-.35.06.03.29.15.35.18v-.35h0Zm-4.56-.18c.52,0,.71.02.88.53q-.44-.26-.88-.53h0Zm-7.54-.18c.09.03.44.15.53.18-.06.03-.29.15-.35.18-.03-.06-.15-.29-.18-.35h0Zm-20.17,0c.09.03.44.15.53.18-.09.03-.44.15-.53.18v-.35h0Zm-21.57,2.11c-.23-.58-.3-.9-.09-1.49,1.28-1.41.17,1.33.09,1.49h0Zm-.88-2.11c.46.61.77,1.44-.17,1.76q.09-.88.17-1.76h0Zm-18.24,0h.53v.53c-.09-.09-.44-.44-.53-.53h0Zm71.72-.18q.18.18.35.35l-.35.18q.26.09.53.18c-.55.14-.73.13-1.05-.35l.35.18q.09-.26.18-.53h0Zm-1.4.18q-.44.18-.88.35c.27-.41.4-.51.88-.35h0Zm-21.4-.18c.09.06.44.29.53.35h-.53v-.35h0Zm-.35,0v.35h-.7c.12-.06.59-.29.7-.35h0Zm-27.01,0c.12.36.19.52-.17.7q.09-.18.17-.35-.17-.09-.35-.18.18-.09.35-.18h0Zm58.92-.18h.35c-.03.09-.15.44-.18.53-.03-.09-.15-.44-.17-.53h0Zm-21.75,0c-.14.41-.14.57.18.88q-.26-.18-.53-.35.18-.26.35-.53h0Zm-1.75,0c.53.39.44.51.18,1.05.1-.61.21-.67-.18-1.05h0Zm-55.24-.18c.36.18.3.34.17.7q-.09-.35-.17-.7h0Zm98.9-.18c.06.03.29.15.35.18-.09.03-.44.15-.53.18.03-.06.15-.29.17-.35h0Zm-21.04,0c.03.06.15.29.18.35h-.35c.03-.06.15-.29.17-.35h0Zm-8.42,0c.09.03.44.15.53.18-.06.03-.29.15-.35.18-.03-.06-.15-.29-.18-.35h0Zm.88-.18c.52.27.51.36.88,0q.09.18.18.35c-.54.11-.86.23-1.05-.35h0Zm-2.46,0c.09.09.44.44.53.53-.17.06-.88.29-1.05.35.09-.15.44-.73.53-.88h0Zm-11.57,0c.06.06.29.29.35.35h-.53c.03-.06.15-.29.18-.35h0Zm-19.82,0c.06.06.29.29.35.35-.09.06-.44.29-.53.35.03-.12.15-.58.17-.7h0Zm38.58-.18c.18.54.49.81,0,1.05q.17.09.35.18h-.53q.09-.61.18-1.23h0Zm-16.48,0c.06.12.29.58.35.7h-.53c.03-.12.15-.58.18-.7h0Zm-8.07,0c.03.09.15.44.18.53h-.35c.03-.09.15-.44.17-.53h0Zm28.23-.18q-.09.26-.18.53-.26-.09-.53-.18c.23-.23.37-.35.7-.35h0Zm-8.77-.18c.03.06.15.29.18.35-.06.03-.29.15-.35.18.03-.09.15-.44.18-.53h0Zm-2.45,0c-.2.53-.36.57-.88.7q.44-.35.88-.7h0Zm2.1-.18q-.26.53-.53,1.05c-.23-.47.22-.75.53-1.05h0Zm-53.84,0h.53c-.15.48-.07.7-.53.7v-.7h0Zm31.74-.18c.06.09.29.44.35.53-.09-.03-.44-.15-.53-.18.03-.06.15-.29.17-.35h0Zm-28.06,0q.26.09.53.18-.18.18-.35.35.31.31.61.61c-.35-.27-.61-.09-.96.09.58-.38.41-.65.18-1.23h0Zm30.16-.18c.06.09.29.44.35.53h-.35v-.53h0Zm-51.03,0c.41.28.51.4.35.88q-.18-.44-.35-.88h0Zm76.11-.18c.06.09.29.44.35.53.06-.06.29-.29.35-.35-.03.12-.15.59-.18.7-.09-.15-.44-.73-.53-.88h0Zm-4.56,0c.95,0,1.12.42,1.58,1.23-.55-.28-.7-.43-.7-1.05q-.17.18-.35.35v-.35h-.53v-.18h0Zm-30.51,0h.35c-.03.06-.15.29-.18.35-.03-.06-.15-.29-.17-.35h0Zm28.23-.18c.77.19.64.54.53,1.23v-.53q-.26.09-.53.18v-.88h0Zm-17.71,0h.35v.53h-.35v-.53h0Zm-32.97,0c-.12.36-.19.52.18.7q-.26.09-.53.18-.09-.35-.18-.7.18.09.35.18.09-.18.18-.35h0Zm49.1-.18c.09.03.44.15.53.18-.06.03-.29.15-.35.18-.03-.06-.15-.29-.17-.35h0Zm-19.29,0h.35v.53c-.06-.09-.29-.44-.35-.53h0Zm-17.89,0c.41.24.28.46.18.88q-.09-.44-.18-.88h0Zm48.4-.18h.35c-.03.06-.15.29-.17.35-.03-.06-.15-.29-.18-.35h0Zm-59.62,0q.09.35.17.7c-.36-.18-.29-.34-.17-.7h0Zm-1.75,0c.03.06.15.29.18.35-.06.03-.29.15-.35.18-.03-.06-.15-.29-.17-.35.06-.03.29-.15.35-.18h0Zm75.76-.18q.35.26.7.53c-.46,0-.56-.1-.7-.53h0Zm-21.74,0h.7c-.06.45.05.27-.35.53q.09-.18.18-.35-.26-.09-.53-.18h0Zm-1.75,0c.03.06.15.29.18.35h-.35c.03-.06.15-.29.17-.35h0Zm-68.74-.18h.53c-.03.15-.15.73-.17.88-.06-.15-.29-.73-.35-.88h0Zm75.76-.18h.53c-.03.09-.15.44-.17.53-.06-.09-.29-.44-.35-.53h0Zm-.35,0c.18.44-.04.57-.35.88q.18-.44.35-.88h0Zm-5.44,0c.06.09.29.44.35.53-.15.03-.73.15-.88.18.12-.03.58-.15.7-.18-.03-.09-.15-.44-.18-.53h0Zm-9.82.35l-.7-.18v.53q-.26-.09-.53-.18v.35c-.34-.88.77-.76,1.23-.53h0Zm-41.03-.35c0,.46-.1.56-.53.7q.26-.35.53-.7h0Zm51.56-.18q.35.09.7.18c-.48.11-.51.21-.7-.18h0Zm-11.92,0c.09.03.44.15.53.18-.09.03-.44.15-.53.18v-.35h0Zm-12.1-.18c.51.17.53.36.53.88q-.26-.44-.53-.88h0Zm-30.16,0c.06.03.29.15.35.18-.09.09-.44.44-.53.53.03-.12.15-.58.18-.7h0Zm40.68-.18c.12.36.19.52-.18.7q.09-.35.18-.7h0Zm-.53,0c.38.22.3.27.18.7q-.09-.35-.18-.7h0Zm-7.36,0c.44.04.43.31.53.7q-.26-.35-.53-.7h0Zm-31.57,0c0,.72-.06.91-.7,1.23q.26-.26.53-.53-.26-.26-.53-.53.26.18.53.35.09-.26.18-.53h0Zm-18.59,0c.09.18.44.88.53,1.05h-.7c.03-.18.15-.88.17-1.05h0Zm67.87-.18q.35.09.7.18-.09.18-.17.35c.46.19.51,0,.88-.35q-.26.53-.53,1.05-.26-.44-.53-.88-.18.26-.35.53v-.88h0Zm-16.48,0c.09.03.44.15.53.18-.06.03-.29.15-.35.18-.03-.06-.15-.29-.17-.35h0Zm6.84-.35h.35c-.03.06-.15.29-.18.35-.03-.06-.15-.29-.18-.35h0Zm-38.75,0c.03.15.15.73.17.88-.06-.03-.29-.15-.35-.18v.53c.03-.2.15-1.02.18-1.23h0Zm30.86-.18c.03.09.15.44.17.53-.06-.03-.29-.15-.35-.18.03-.06.15-.29.18-.35h0Zm-30.34,0h.35c-.03.18-.15.88-.18,1.05-.03-.18-.15-.88-.18-1.05h0Zm-17.71,0v.7q-.18-.26-.35-.53-.09.35-.17.7c-.12-.54-.09-.88.53-.88h0Zm57.87-.18c.03.06.15.29.18.35h-.35c.03-.06.15-.29.18-.35h0Zm-3.51,0q-.09.7-.18,1.4h.53c-.83.31-.48.71.18.88q-.35.35-.7.7c.09-.54.26-.66-.18-.88q-.09.18-.17.35c.02-.32-.11-2.38.53-2.46h0Zm-64.01,0h.35c-.03.06-.15.29-.18.35-.03-.06-.15-.29-.18-.35h0Zm78.56-.18c.14.68.14.91-.35,1.4q-.18-.35-.35-.7l.53.18q.09-.44.18-.88h0Zm-21.57,0c.12.03.58.15.7.18-.09.06-.44.29-.53.35.03-.06.15-.29.18-.35-.06-.03-.29-.15-.35-.18h0Zm-50.68,0q.35.35.7.7c-.57-.03-.58-.19-.7-.7h0Zm79.79-.18c.43.51.54.5.35,1.05q-.17-.53-.35-1.05h0Zm-7.19,0h.35v.53h-.35v-.53h0Zm4.91-.18q.35.18.7.35-.26.09-.53.18.09-.18.18-.35c-.46.04-.4.25-.53.7q-.18-.35-.35-.7.18.09.35.18.09-.18.17-.35h0Zm-7.89,0c.36.18.3.34.18.7q-.09-.35-.18-.7h0Zm-29.28,0h.35v.53c-.06-.09-.29-.44-.35-.53h0Zm-27.18,0c.09.09.44.44.53.53-.09-.06-.44-.29-.53-.35-.03.06-.15.29-.17.35.03-.09.15-.44.17-.53h0Zm-11.57,0c-.27.52-.36.51,0,.88q-.35.09-.7.18c.09-.54.05-1.05.7-1.05h0Zm78.74-.18h.35v.53c-.06-.09-.29-.44-.35-.53h0Zm-21.04,0c.11.54.23.86-.35,1.05q.09.18.18.35-.44.09-.88.18c.61-.51,1.05-.77,1.05-1.58h0Zm20.52-.18c.03.06.15.29.18.35h-.35c.03-.06.15-.29.18-.35h0Zm-8.07,0h.35v.7c-.06-.12-.29-.59-.35-.7h0Zm.53-.18c.06.03.29.15.35.18-.03.06-.15.29-.18.35-.03-.09-.15-.44-.18-.53h0Zm-1.58,0c.06.03.29.15.35.18-.03.06-.15.29-.17.35-.03-.09-.15-.44-.18-.53h0Zm-18.59-.18c.48.05.44.46.53.88l-.53-.88h0Zm25.6-.18q.09.35.18.7c-.36-.18-.29-.34-.18-.7h0Zm-38.4,0c.06.12.29.59.35.7-.12-.03-.58-.15-.7-.18.06-.09.29-.44.35-.53h0Zm-38.05,0c.06.06.29.29.35.35h-.53c.03-.06.15-.29.18-.35h0Zm78.74-.18c.06.03.29.15.35.18-.09.06-.44.29-.53.35.03-.09.15-.44.18-.53h0Zm-11.4,0c.03.09.15.44.17.53-.06-.03-.29-.15-.35-.18.03-.06.15-.29.17-.35h0Zm-36.83,0c.03.09.15.44.17.53-.06-.03-.29-.15-.35-.18.03-.06.15-.29.18-.35h0Zm-18.06,0c-.03.12-.15.58-.18.7-.12-.03-.58-.15-.7-.18.15-.09.73-.44.88-.53h0Zm-2.28,0h.35v1.05h-.35v-1.05h0Zm8.59-.18q.35.53.7,1.05l-.53-.35c-.13.5-.17.7.35.88-.86-.22-.62-.8-.53-1.58h0Zm49.8-.18v1.23c-.12-.06-.58-.29-.7-.35-.03.09-.15.44-.17.53.03-.15.15-.73.17-.88.09.03.44.15.53.18.03-.12.15-.58.18-.7h0Zm-68.57,0c.03.06.15.29.17.35h-.35c.03-.06.15-.29.18-.35h0Zm70.32-.18c.09.03.44.15.53.18-.06.12-.29.58-.35.7-.03-.15-.15-.73-.18-.88h0Zm23.67-.18c.03.06.15.29.18.35h-.35c.03-.06.15-.29.18-.35h0Zm-42.79.18l-.7.18c.18-.36.33-.29.7-.18h0Zm8.77-.7c.03.06.15.29.18.35-.06.03-.29.15-.35.18.03-.09.15-.44.18-.53h0Zm-9.29,0q.35.09.7.18c-.47.11-.51.21-.7-.18h0Zm-33.5,0l.18.7c-.36-.18-.3-.34-.18-.7h0Zm61.03-.18c.08.57.3.82-.18,1.05q.09-.53.18-1.05h0Zm-19.82,0c-.12.78-.34,1.84-.7.53q.18.09.35.18.18-.35.35-.7h0Zm-40.51,0q.09.18.17.35.18-.09.35-.18c0,.78.03,1.2-.53,1.75q.26.18.53.35c-.6-.24-1.22-.88-.18-.88v-.35q-.26.09-.53.18v-.7q.18.09.35.18-.09-.35-.17-.7h0Zm42.61-.18c.58.19.53.49.53,1.05h-.7q.09-.53.18-1.05h0Zm-39.46,0h.35c-.03.06-.15.29-.17.35-.03-.06-.15-.29-.18-.35h0Zm-1.93-.18q.35.09.7.18c-1.05.11-.05,1.71.18,2.11q-.26-.44-.53-.88-.17.18-.35.35.09-.35.18-.7h-.53l.53-.18q-.18-.18-.35-.35h.35q-.09-.26-.18-.53h0Zm-2.1,0c.03.06.15.29.18.35-.06.03-.29.15-.35.18.03-.09.15-.44.17-.53h0Zm51.03-.18q.44.53.88,1.05c.58-.58,1.11-.58.88.35q-.09-.35-.17-.7c-.32.49-.58.59-.35,1.05q.17-.09.35-.18c-.4.32-.55.3-.35.7q-.61-1.14-1.23-2.28h0Zm-19.29,0c-.4.32-.55.29-.35.7-.69-.55-.42-.69.35-.7h0Zm29.29-.18h.53c0,.65-.51.61-1.05.7q.09-.26.17-.53.09.18.18.35.18-.09.35-.18-.09-.18-.18-.35h0Zm-10.52,0c.06.03.29.15.35.18-.03.06-.15.29-.17.35-.03-.09-.15-.44-.18-.53h0Zm-27.88,0q.09.26.17.53c-.23-.12-.11-.07-.36-.13q.09-.2.19-.39h0Zm.53-.18c.03.09.15.44.17.53-.06-.03-.29-.15-.35-.18.03-.06.15-.29.18-.35h0Zm-18.76,0q-.26.09-.53.18.09.18.18.35-.26-.09-.53-.18c.29-.29.47-.34.88-.35h0Zm57.52-.18q.35.09.7.18c-.47.11-.51.21-.7-.18h0Zm-10.17,0h.35v.7c-.06-.12-.29-.59-.35-.7h0Zm-8.77,0c.03.18.15.88.18,1.05-.03-.12-.15-.58-.18-.7-.06.03-.29.15-.35.18.06-.09.29-.44.35-.53h0Zm-51.21,0q.18.35.35.7c-.36.18-.3.34-.18.7h-.35q.09-.7.17-1.4h0Zm42.61,0c-.22.38-.27.31-.7.18.26-.26.35-.33.7-.18h0Zm-31.57-.18c.09.06.44.29.53.35-.09.03-.44.15-.53.18v-.53h0Zm-.7,0c.09.03.44.15.53.18-.06.06-.29.29-.35.35.06.03.29.15.35.18h-.53v-.7h0Zm42.26-.18h.53v.35h-.53v-.35h0Zm-42.61,0q-.09.44-.18.88c-.11-.53-.16-.54.18-.88h0Zm60.5-.18h.35c-.03.06-.15.29-.18.35-.03-.06-.15-.29-.17-.35h0Zm-71.2.35h.35c-.03-.06-.15-.29-.17-.35-.03.06-.15.29-.18.35h0Zm52.78-.7q.09.44.17.88c-.41-.24-.28-.46-.17-.88h0Zm-21.74,0c.09.03.44.15.53.18-.06.03-.29.15-.35.18-.03-.06-.15-.29-.17-.35h0Zm-18.59,0c.06.03.29.15.35.18-.03.06-.15.29-.17.35-.03-.09-.15-.44-.18-.53h0Zm59.62-.18c.12.06.58.29.7.35-.12.03-.58.15-.7.18v-.53h0Zm-13.15,0q.26.35.53.7h-.35v.53q.26-.09.53-.18c-.26.45-.24.7-.7.7.21-.75-.39-.98,0-1.76h0Zm-18.41,0c.42.25.29.39.18.88q-.09-.44-.18-.88h0Zm-.88,0c.49.12.7.17.7.7h-.53q.17-.26.35-.53-.26-.09-.53-.18h0Zm14.03-.18q.09.35.18.7c-.36-.18-.3-.34-.18-.7h0Zm.35-.18h.35c-.03.06-.15.29-.18.35-.03-.06-.15-.29-.18-.35h0Zm22.97-.18c.03.06.15.29.18.35h-.35c.03-.06.15-.29.18-.35h0Zm-80.18.99c.87-.93,2.65-1.24,3.02.24q.17-.26.35-.53.35.26.7.53c-.29.29-.47.56-.88.35,1.3,4.2-.52,3.69-4.38,3.69.18-1.29.2-3.22,1.18-4.28h0Zm74.92-.29q-.18-.09-.35-.18c-.39.71-1.01.69-1.4,1.4-.96-.37-3.07,3-2.46,4.04-1.11.33-1.11,5.79.17,6.32q-.09.26-.17.53c.61.16.35.57,1.05.7q-.09.26-.18.53.18-.09.35-.18c.34,1.52,1.86,2.09,3.13,2.54,3.52,1.27,7.33.31,9.14-3.25-1.73.1-2.44,2.74-4.3,2.51-5.92-.71-5.42-10.17-3.48-14.03.61-1.21,3.35-2.46,4.06-.64.55,1.42-.67,2.63.11,3.92.65,1.07,3,1,3.46-.23.45-1.18-.06-2.21-.85-3.05-1.73-1.87-4.61-2.08-6.98-1.73-.51.07-1.09.33-1.32.79h0Zm-20.34.7c-1.24.07-1.8,1.3-2.54,2.26-.32.42-.25.6-.26,1.07q-.17-.09-.35-.18-.09.18-.18.35h.53v.7q-.26-.18-.53-.35c-.44,1.59-.49,3.27-.53,4.91.65.02.47,1.2.53,1.58q.26-.09.53-.18c-.24,1.41,1.15,1.56.88,2.46h.7c-.49.58.09,1.02.7,1.05q-.09.18-.18.35c.39.15.91.31,1.05.7q.18-.18.35-.35c1.27,2.01,7.19,1.6,8.59-.35q.17.09.35.18-.09-.18-.18-.35h.7q-.09-.26-.18-.53.26.18.53.35v-.7q.18.18.35.35c.15-.7.78-.73.7-1.4,1.27-.04,1.91-3.92,1.93-4.91q-.18.09-.35.18v-.35h.35v-.53q-.35.18-.7.35v-.7q.26.09.53.18c-.18-1.16.05-1.64-.88-2.11q.17-.26.35-.53c-.36-.15-.44-.67-.53-1.05q-.18.09-.35.18.09-.26.18-.53h-.53c.04-.82-.48-1.32-1.23-1.58v.7c-.31-.52-.57-1.07-.92-1.56-.23-.32-.92-.33-1.18-.37q.09-.18.17-.35-.26.18-.53.35v-.53q-.26.18-.53.35c-.42-.81-2.05-1.35-2.46-.35,1.56-.09,1.33,1.57,2.46,1.23-.46,1.7.7,4.14.7,5.97h-.35c.04,1.26.14,2.52.11,3.77-.02,1-.89,2.82-.11,3.6-.58.12-.9.78-1.29,1.22-.92,1.04-2.33.74-3.1-.16q-.18.26-.35.53v-.88c-.94-.23-1.03-2.36-1.05-3.16h-.35c.11-.96.32-.65-.35-1.05.6-.38.42-1.15-.18-1.4h.53q-.17-.09-.35-.18c.34-.21.29-.1.29-.72,0-1.34-.07-2.68-.11-4.01h.35q-.18-.35-.35-.7h.53q-.09-.61-.18-1.23.18.09.35.18c.21-.42.02-.96.17-1.4.05-.13.3-.05.39-.15.49-.52.92-1.8,1.89-1.43v-.53c-.88.05-4.43.67-4.56,1.75h0Zm-11.92-1.75c.03.06.15.29.18.35h-.35c.03-.06.15-.29.18-.35h0Zm-26.13.35c-.92-.09-1.2.41-2.1.53v.35q-.26-.09-.53-.18.09.18.17.35c-1.54-.15-3.5.49-5,.7q.03.21.07.42.45-.12.9-.24v.35h1.4q.17,1.75.35,3.51.35-.09.7-.18-.35.18-.7.35c.54.77.53.4.35,1.05q-.17-.18-.35-.35c.04,1.99.12,3.98.11,5.97,0,.91.02,1.84-.15,2.74-.22,1.17-1.74.5-2.42,1.3q4.82-.18,9.65-.35c-1.05-.29-1.83-.11-2.04-1.38-.14-.87-.04-1.77-.07-2.65h-.35v-.35q.17.09.35.18-.09-4.65-.18-9.3.18.09.35.18c.23-.72,0-.56.53-.7q-.09-.18-.18-.35c.82-.39,3.28-1.37,3.86.09.39.98-.34,2.93.7,3.07-.08.15-.24.29-.25.46-.17,3.03-.08,6.08-.3,9.1-.03.47-.13.98-.44,1.33-.27.31-.88.17-1.11.51q4.38.09,8.77.18c-.12-.49-.99-.34-1.34-.7-1.08-1.09-.73-3.01-.75-4.55-.04-2.49-.07-4.99.08-7.47.11-1.83,2.66-3.66,4.23-2.28.3.27.44.79.45,1.17.12,3.98.2,7.95.26,11.93.02,1.51-.58,1.36-2.05,1.91q4.65.09,9.29.18v-.53c-.5.05-1.35.24-1.82-.17-.54-.49-.6-1.95-.62-2.46-.05-1.35-.01-2.69-.02-4.04h-.35c.4-.26.31-.13.31-.94,0-1.69.03-3.38-.11-5.07-.42-4.96-8.87-5.22-9.49-1.01-.17,0-1.27-1.86-1.87-2.16-1.33-.64-2.8-.69-4.24-.61-1.81.1-2.72,1.36-3.89,2.59-.02-.94.16-2.01-.35-2.81q.09.18.17.35h0Zm-23.15,6.67c-1.05.98-.1,4.45.35,5.79q.09-.18.18-.35.18.09.35.18c-.85,1.43,2.26,3.3,3.24,3.86.97.55,2.16.75,3.24.88,3.48.4,5.39-1.1,7.26-3.97.35-.54.27-.7.28-1.29-.49.21-.59.89-.88,1.34-.54.84-1.18,1.61-2.07,2.08-1.02.54-1.33.19-1.62,1.15-.5-1.01-1.83-.65-2.66-1.36-.38-.33-.9-1.34-1.55-1.1.16-2.6-3.2-7.25,1.75-7.66,2.01-.17,4.03-.2,6.04-.33.1,0,.18-.05.27-.08v-.18q.35.09.7.18c-.19-1.28-.72-4.36-2.46-4.56q.09-.18.17-.35c-.73-.22-2.82-1.5-3.51-.7v-.53c-3.89.1-7.11,1.54-8.77,5.18-.14.3-.86,1.48-.35,1.84h0Zm52.26-7.55c.06.06.29.29.35.35h-.53c.03-.06.15-.29.17-.35h0Zm-1.58,0q-.09.35-.18.7c-.11-.47-.21-.51.18-.7h0Zm-1.23-.35c.06.06.29.29.35.35h-.53c.03-.06.15-.29.18-.35h0Zm2.46-.53v.35h.53c-.12.06-.58.29-.7.35.03-.12.15-.58.18-.7h0Zm-1.23-.18q.35.53.7,1.05c-.55-.28-.7-.43-.7-1.05h0Zm-.7-.18c.06.09.29.44.35.53-.09-.03-.44-.15-.53-.18.03-.06.15-.29.18-.35h0Zm.53-.53c.06.03.29.15.35.18-.09.09-.44.44-.53.53.03-.12.15-.59.18-.7h0Zm-.18-.35q-.35.09-.7.18c.18-.36.33-.29.7-.18h0Zm1.23-.88h.35c-.03.06-.15.29-.18.35-.03-.06-.15-.29-.18-.35h0Zm-1.93-.18c.12.03.58.15.7.18-.12.03-.58.15-.7.18v-.35h0Zm1.4-.53h.35v.53c-.06-.09-.29-.44-.35-.53h0Zm-1.75-.53c.09.03.44.15.53.18-.06.03-.29.15-.35.18-.03-.06-.15-.29-.18-.35h0Zm47.87-.18h.35c-.03.09-.15.44-.18.53-.03-.09-.15-.44-.18-.53h0Zm-47-.35c.37.37.29,1.23-.35,1.23.25-.43.59-.75.35-1.23h0Zm1.93-.18c.03.06.15.29.17.35h-.35c.03-.06.15-.29.17-.35h0Zm43.49-.35c.03.06.15.29.18.35h-.35c.03-.06.15-.29.18-.35h0Zm-43.66-.18c.03.06.15.29.17.35h-.35c.03-.06.15-.29.18-.35h0Zm44.37-.88c.09.03.44.15.53.18-.06.03-.29.15-.35.18-.03-.06-.15-.29-.18-.35h0Zm-44.37-.18l.35.7c-.4-.32-.55-.3-.35-.7h0Zm44.54-.35c.06.06.29.29.35.35h-.53c.03-.06.15-.29.18-.35h0Zm-4.21,0c.59.24.46.48.35,1.05-.27-.52-.37-.51,0-.88q-.18-.09-.35-.18h0Zm-40.68-.35c.09.09.44.44.53.53-.06-.03-.29-.15-.35-.18-.03.06-.15.29-.18.35v-.7h0Zm-.53-.18q-.09.35-.18.7c-.11-.47-.21-.51.18-.7h0Zm2.98-.18c.03.09.15.44.17.53-.06-.03-.29-.15-.35-.18.03-.06.15-.29.18-.35h0Zm39.11-.18q.26.44.53.88c-.46-.37-.53-.35-.53-.88h0Zm-42.26-.18c.03.06.15.29.18.35-.09.03-.44.15-.53.18.06-.09.29-.44.35-.53h0Zm-1.75-.35c.06.03.29.15.35.18-.03.06-.15.29-.18.35-.03-.09-.15-.44-.18-.53h0Zm44.19-.18c.06.06.29.29.35.35-.09.03-.44.15-.53.18.06-.03.29-.15.35-.18-.03-.06-.15-.29-.17-.35h0Zm-39.28,0c.38.22.3.27.17.7q-.09-.35-.17-.7h0Zm-3.51-.35h.88c-.09.03-.44.15-.53.18.06.09.29.44.35.53-.12-.12-.58-.59-.7-.7h0Zm1.23-.18c.06.06.29.29.35.35h-.53c.03-.06.15-.29.18-.35h0Zm-2.46-.18c.19.39-.03.49-.35.7q.18-.35.35-.7h0Zm-70.67,1.4c.52.14,1.06.23,1.57.42,1,.39,1.15,2.62,1.19,3.16.14,1.86.15,3.73.16,5.59.02,3.55,0,7.1-.08,10.65-.03,1.57-.02,3.15-.24,4.71-.11.75-1.48.37-2.24.39v.35h9.47c-.11-.46-.93-.35-1.23-.71-.96-1.14-.65-2.93-.68-4.42-.03-2.19.01-4.39.09-6.58.03-.74.08-2.07.59-2.81,1.11-1.6,3.37-1.36,3.83.58.95,3.97.6,9.17.24,13.06-.06.66-1.3.33-1.96.36v.7h9.12v-.53c-.67-.03-1.93.25-1.98-.42-.17-2.49-.08-4.99-.13-7.48h-.35c.42-1.35.34-2.82.31-4.23-.01-.55.02-.45-.31-.68.57-.36-.12-1.35-.34-1.73-.43-.76-1.21-1.4-2.02-1.71-3.11-1.21-5.1.21-7.28,2.22,0-2.95.03-5.89-.02-8.84-.02-1.18.08-2.42-.33-3.54-2.44.56-4.91,1.01-7.37,1.49h0Zm74.35-1.93c.03.06.15.29.17.35-.06.03-.29.15-.35.18.03-.09.15-.44.18-.53h0Zm-1.58,0q-.09.35-.17.7c-.44-.22-.31-.7.17-.7h0Zm-2.1-.35h.35v.53c-.06-.09-.29-.44-.35-.53h0Zm-.53,0c.06.03.29.15.35.18-.09.03-.44.15-.53.18.03-.06.15-.29.18-.35h0Zm1.93-.18c.09.06.44.29.53.35h-.53v-.35h0Zm1.05-.18c.03.12.15.59.18.7h-.35c.03-.12.15-.58.18-.7h0Zm1.05-.18c.06.03.29.15.35.18-.09.06-.44.29-.53.35h.53c-.12.15-.58.73-.7.88.06-.23.29-1.17.35-1.4h0Zm-1.4-.18h.35c-.03.06-.15.29-.18.35-.03-.06-.15-.29-.18-.35h0Zm42.61-.18c.09.03.44.15.53.18-.06.03-.29.15-.35.18-.03-.06-.15-.29-.17-.35h0Zm-42.44-.35c.03.06.15.29.18.35h-.35c.03-.06.15-.29.18-.35h0Zm1.58-.18q-.17.35-.35.7-.26-.18-.53-.35c.29-.29.47-.34.88-.35h0Zm-2.28,0c.09.03.44.15.53.18-.06.03-.29.15-.35.18-.03-.06-.15-.29-.18-.35h0Zm-1.05-.18q.18.44.35.88c-.36-.42-.57-.44-.35-.88h0Zm-1.23-.18q.09.35.18.7c-.36-.18-.3-.34-.18-.7h0Zm5.08-.18q.18.18.35.35-.18.09-.35.18.26.18.53.35-.35-.09-.7-.18c.03.57.22.64.7.88h-.35v.53q.26-.09.53-.18-.26.35-.53.7.35-.09.7-.18c-.3.2-.52.35-.88.35.15-1.19-.35-1.54-.35-2.63q.18.09.35.18v-.35h0Zm43.67-2.28h.35c-.03.06-.15.29-.17.35-.03-.06-.15-.29-.18-.35h0Zm-1.75-1.93c.03.06.15.29.18.35h-.53c.06-.06.29-.29.35-.35h0Zm-47,0c.03.09.15.44.18.53h-.35c.03-.09.15-.44.18-.53h0Zm-.53-1.05c.06.09.29.44.35.53h-.35v-.53h0Zm5.26-.35c.06.15.29.73.35.88h-.53c.03-.15.15-.73.17-.88h0Zm.35-.88q-.09.35-.17.7c-.44-.22-.31-.7.17-.7h0Zm-.53-.53h.53v.35c-.09-.06-.44-.29-.53-.35h0Zm38.23,9.3h.35c-.43,1.96.16,3.6,1.05,5.42.22.45.72.74.87,1.22.24.77.23,1.6.25,2.4.08,5.24.1,10.47.02,15.71-.02,1.29-.88,1.38-1.14,2.46.62.02,1.26-.07,1.86.07.2.05.21.47.42.46.67-.04,1.26-.54,1.93-.61,1.33-.16,2.69-.06,4.03-.09-.26-.52-1.06-.48-1.52-.84-.62-.49-.67-2.41-.67-2.83-.03-1.65.06-3.29.09-4.94.23.37.4.77.68,1.1.14.16.43.13.55.31.13.19,0,.48.11.68.96,1.76,2.16,3.37,3.07,5.16.13.25-.02.56-.02.83q-.7.09-1.4.18c.04.1,0,.27.11.29.93.15,1.88.17,2.82.17,2.36.01,4.71-.07,7.06-.11-.34-.47-1.11-.38-1.6-.7-.52-.34-.93-.83-1.32-1.32-1.04-1.33-2.03-2.71-2.96-4.12-1.25-1.9-2.76-3.68-3.59-5.79-.18-.45.51-.82.84-1.17.74-.78,1.5-1.55,2.35-2.22.93-.74,2.24-.1,2.95-1h-.7v.35c-1.96-.59-4.09-.33-6.14-.35.58.62,1.6.66,2.46.7-.02.14.03.32-.05.43-.96,1.31-1.96,2.59-3.04,3.8-.66.75-1.45,1.39-2.17,2.08.04-3.36,0-6.73.11-10.09.02-.54.05-1.11.25-1.61.25-.65.77-1.17,1.05-1.81.89-2.06,1.09-5.76.59-7.95-.24-1.04-.61-2.07-1.12-3.01-1.39-2.6-4.34-3.92-6.49-1.14-1.7,2.2-1.91,5.26-1.93,7.9h0Zm-38.23-10.53h.35c-1.2,1.61.04,3.74-.53,5.44.64-.65.64-.89.35-1.75.52,0,.57.67.7,1.05v-1.05h-.35c.65-.36.44-2.54-.35-2.81.39-.64.29-.78.18-1.58-.07.29-.08.55-.35.7h0Zm-4.91,1.05q.26-.09.53-.18v.35h-.7c.41.66.31.26,0,1.23q.26-.09.53-.18c0,.88-1.62,1-.35,2.46h-.35c-.01,1.7.04,3.4-.04,5.09-.03.54-.28,1.04-.31,1.58-.05,1.36,1.05,2.24,1.08,3.55.17,7.07.36,14.16,0,21.23-.07,1.41-2.03.54-2.66,1.36,1.03.04,2.06.15,3.09.11.38-.02.73-.29,1.12-.29,1.64.02,3.27.23,4.91.35v-.53c.42.56.66.53,1.21.14-.79-.21-1.95-.13-2.28-.87-.3-.69-.2-1.73-.87-2.07h.53v-1.58q-.26.18-.53.35c.64-.77.66-1.72.46-2.72-.07-.33-.41-.66-.29-.97q.18.18.35.35c0-5-.05-10.01.02-15.01.01-.85,1.7-3.1.5-3.41.99-.37.12-2.19.07-2.76-.1-1.12-.04-2.25-.16-3.37-.02-.15-.17-.24-.25-.36-.45.9-.09.77-.88.7.36,1.04.66,2.34-.7,2.46-.03-2.74-.04-5.47-.1-8.21,0-.32-.04-.28-.25-.39q-.09.18-.18.35-.09-.18-.18-.35-.09,4.21-.18,8.42.18-.09.35-.18c0,.5-.79.63-1.23.88.31-.57.08-1.3.07-1.95-.02-.93.07-1.86.11-2.79h-.35c.63-.43.48-1.62-.17-1.93.45-.28.35-.74.35-1.23h-.35q.17-.7.35-1.4h-.35c-.03,2.81.06,5.62-.09,8.42-.03.65-.74.62-1.14.7v-5.26q-.18.09-.35.18c.45-.77.34-.36.35-1.23q-.18.09-.35.18l.35-.35-.35-.35c.52-.67.65-1.88-.18-2.28q-.09.88-.18,1.76h0Z"/>
      <path class="cls-63" d="m478.81,164.66h.27v-.41h-.27v.41h0Zm4.14-.96h.41v.28h-.41v-.28h0Zm15.17-.69h.41v1.24q.35-.14.69-.28-.21.34-.41.69h.41v.41q-.35-.21-.69-.41v.69h-.41v-2.34h0Zm18.21-.41h.41v.41h-.41v-.41h0Zm-14.07,0h.27v2.06h-.27v-2.06h0Zm-10.62-.28h.41v1.38h-.41v-1.38h0Zm-12.28,0h.41v.69h-.41v-.69h0Zm36.97-.69h.41v.41h-.41v-.41h0Zm-47.17,0h.28v.96h-.28v-.96h0Zm33.1-.27h.27v.96h-.27v-.96h0Zm-4.14-.41h.41v.69h.28c-.14.48-.13.96-.69.96v-1.65h0Zm-6.48,0h.41v.41h-.41v-.41h0Zm38.21-.28h.41v.28h-.41v-.28h0Zm-4.28,0h.41v1.38h-.41v-1.38h0Zm-8.14,0h.27v.69h-.27v-.69h0Zm-48,0v.69h-.55c.13-.32.18-.65.55-.69h0Zm34.76-.55h.28v.83h-.28v-.83h0Zm21.38-.28h.41v.41h-.41v-.41h0Zm-9.24,0h.41v.28h-.41v-.28h0Zm-23.04,5.23h.69v-5.23h-.69v5.23h0Zm24.14-5.64h.27v.41h-.27v-.41h0Zm-13.24,0h.28v.41h-.28v-.41h0Zm-31.86,0h.41v.41h-.41v-.41h0Zm-2.21,0h.41v3.58h-.41v-3.58h0Zm19.86.41h-.69v3.17h.28c-.44.44-.26,1.05-.28,1.65h.28v.41h2.07v-1.1c.66,0,.48.9,1.24,1.1v-5.64h-.28v.41h-.96v-.83h-.69v.41h.28c-.03.49-.39.58-.48,1.1-.18,1.04-.06,2.11-.07,3.16h.28v.96h-.69v-5.64h-.28v.83h0Zm32.28-1.1h.41v.69h-.41v-.69h0Zm-43.17,0v4.27h-.27v-1.38h-.41v-.27h.41v-1.24h-.41v-1.1c.54,0,.32.1.69-.28h0Zm33.93,0v5.51h1.1v-.28h.55v-5.51h-.55v5.51h-.41v-5.51c-.37.37-.15.28-.69.28h0Zm-14.9-.55h.41v.27h-.41v-.27h0Zm24.14-.41h.41v.69h-.41v-.69h0Zm-27.73,0h.28v.41h-.28v-.41h0Zm-9.24,0h.41v.41h-.41v-.41h0Zm-2.34,0h.41v.41h-.41v-.41h0Zm-4.55,0h.41v.41h-.41v-.41h0Zm-6.21.41h-.41v5.09h.96v-3.44h.41v3.44q.62-.14,1.24-.28c.04,1.16,2.47.91,3.03.96v-5.78q-1.17.14-2.35.27v-.69h-.28v.69q-.41-.14-.83-.27-.07,1.58-.14,3.16c0-.86.43-2.72-.69-3.16v1.24h-.41v-.41q-.15-.02-.3-.04-.12-.6-.25-1.2v.41h0Zm11.45-.83h.41v.83h-.41v-.83h0Zm-16.14-.55h.41v.28h-.41v-.28h0Zm9.65.28h.28v-.55h-.28v.55h0Zm48.14,5.23c.09,0,1.21.1,1.24-.28.17-1.83.3-3.69,0-5.51-.06-.34-.64-.27-.97-.41,0,2.07-.17,4.13-.28,6.19h0Zm-57.8-6.19h.41v.41h-.41v-.41h0Zm60.69,0h-1.24v5.92h.28v-.41h.41v.41h.55c.04-.51.5-.53.57-1.06.22-1.73.11-2.84.12-4.86h-.28v-.41h-.41v.41h0Zm-5.93-.41h.41v.41h-.41v-.41h0Zm-21.38-.55h.28v1.38h-.28v-1.38h0Zm-23.17-.69v.69h-.55c.13-.32.18-.65.55-.69h0Zm23.73-.41h.41v.41h-.41v-.41h0Zm-23.03,0h.69c0,1.03.23,2.1.69,3.03h-.96v-2.34h-.41v-.69h0Zm28.69-.28h.28v1.38h-.28v-1.38h0Zm-6.21,0h.28v.96h-.28v-.96h0Zm15.17-.69h.97v3.03q-.83.21-1.65.41v-3.03h.69v-.41h0Zm-30.07,0h.28v.41h.41v.55c-.56-.22-.69-.36-.69-.96h0Zm-7.17,0h.27v.41h-.27v-.41h0Zm-8.14-.28h2.07v3.3h-2.07v-3.3h0Zm57.93,1.24h.28v-1.65h-.28v1.65h0Zm-43.59-1.65h.28v.41h.41v.69h-1.1v-.69h.41v-.41h0Zm-5.66,0h.41v.41h-.41v-.41h0Zm.41-.96h.28v.41h-.28v-.41h0Zm45.52.41h.28v-.69h-.28v.69h0Zm-5.1-.41h.41v-.28h-.41v.28h0Zm-19.31-.69h.28v.41h-.28v-.41h0Zm5.79-.28h.41v.28h-.41v-.28h0Zm-41.38,0h.28v.96h-.28v-.96h0Zm41.38-.69h.41v.41h-.41v-.41h0Zm-10.48,10.05h-.27c.01,1.14.01,2.27.03,3.41,0,.45.02.36.24.72h-.27v1.1h-.69v-5.23h-.69v.83h-.28v3.03h.28c-.25.4-.26.91-.28,1.38h.97v.28h1.24v-15.55h-.28v10.05h0Zm29.11-9.36h.28v-.96h-.28v.96h0Zm-23.86-.96h.41v.27h-.41v-.27h0Zm-23.31,0h.28v.69h-.28v-.69h0Zm22.76-.41h.28v.41h-.28v-.41h0Zm24.42-.28h.69v-.27h-.69v.27h0Zm-18.62-.27h.41v.96h-.41v-.96h0Zm-7.17,0s.23.23.28.27h-.28v.69h-.28c.05-.16.23-.8.28-.96h0Zm-20.42,0h.28v.55h-.28v-.55h0Zm31.73-.41h.28v.41h-.28v-.41h0Zm-45.52,0h.28v.41h-.28v-.41h0Zm12.83-.55h.28v1.51h-.28v-1.51h0Zm14.21-.41h2.21v3.3q-.96.14-1.93.28h1.93v6.6q-.96.21-1.93.41.35-.34.69-.69h-.69c-.39-3.28-.28-6.6-.28-9.91h0Zm-10.62,0h.83v1.38h.41v-1.38c1.29.02,1.37.07,1.65,1.38h-.28c0,.46-.07.89.28,1.24h-.28v.41h.69q-.21.28-.41.55h.41v.41q-.69-.21-1.38-.41v.41h-.28v-.41h-.41v-1.65h-.41v2.06c-.26-.46-.32-.41-.83-.41v-3.58h0Zm-1.66,0h1.38v3.58h-1.38v-3.58h0Zm8.97,0h-.41v.96h.41v8.67h.28q-.14.48-.28.96.28-.21.55-.41v.41h1.1c.08.39-.02.34.57.4,1.33.12,2.66.2,3.98.29v-6.33h-.41v-.69h.41v-.28h-.41v-.41h.41v-.28h-.41v-3.58h-3.17v10.18h-.97v.28c-1.57-.39-1.06-1.76-1.1-3.3h1.38v-.28h-1.38v-6.88h-.55v.28h0Zm24,10.18c.93-.07,1.92.12,2.79-.22,1.64-.65,1.75-3.24,1.76-4.46.03-2.16-.23-4.31-.35-6.47q-.1,1.65-.21,3.3h-.97q.48.14.97.27v3.03c-1.19.34-.63.28-1.65.28q-.14-3.44-.28-6.88v10.6q-.69.14-1.38.28-.14-3.44-.28-6.88h.69v-.41h-.69v-3.16h1.24v-.41h-1.65v11.15h0Zm-42.9-1.93h.41c-.59.4-.89,1.6.14,1.65,1.7.08,3.4,0,5.1,0v-10.87q-.14,1.65-.28,3.3h-1.65q.83.14,1.65.27v3.03h-1.52q.76.14,1.52.28v3.03h-1.65q-.21-4.95-.41-9.91h-1.1q.21,3.1.41,6.19h-2.07v-2.89h.83v-.41h-.83v-2.89h-.55v9.22h0Zm-1.24-9.49h.28v1.24h-.28v-1.24h0Zm32-.41h.28v.41h-.28v-.41h0Zm-21.52,0v.69h-.55c.13-.32.18-.65.55-.69h0Zm-1.24-.27h.28v.96h-.28v-.96h0Zm47.17,0h1.65v2.89h-.69v.41h.69v6.19h-1.38v-1.93h-.28v2.61c1.25,0,3.59.74,3.59-.96h-1.66v-2.06h.41q-.21-.14-.41-.28c.14-.09.4-.11.41-.28.13-1.88,0-3.76,0-5.64h-.41c0-.43.05-1,.41-1.24h-2.34v.28h0Zm2.9-.28h.41c0,2.06.13,4.13,0,6.19-.01.17-.28.18-.41.28h.41v.69h.28v-7.57h-.69v.41h0Zm-28.97-.41h.28v.41h-.28v-.41h0Zm13.24-.69h.28v.41h-.28v-.41h0Zm-16,0h.41v.41h-.41v-.41h0Zm0-.55h.41v.28h-.41v-.28h0Zm16-1.1h.28v1.38h-.28v-1.38h0Zm5.52-.27h.41v.96h-.41v-.96h0Zm-21.52,0h.41v.96h-.41v-.96h0Zm-7.86-.96h.41v.96h-.41v-.96h0Zm-3.59,0h.28c0,.73,0,.96-.69,1.24v-.96h.41v-.28h0Zm32.97-.41h.41v.69h-.41v-.69h0Zm-22.76,0h.28v.41h-.28v-.41h0Zm-11.86,0h.28v.69h-.28v-.69h0Zm-3.59,0h.28v.41h-.28v-.41h0Zm-13.52,0h.28v.41h-.28v-.41h0Zm-1.38-.55h.41v.96h-.41v-.96h0Zm10.9-.41h.28v.69h.41v.69c-.61,0-.6-.95-.69-1.38h0Zm42.21-.27h.41v.27h-.41v-.27h0Zm2.21.27h.41v-.69h-.41v.69h0Zm-31.59-.69h.41v1.1h-.41v-1.1h0Zm36.97-.41h.41v.41h-.41v-.41h0Zm-7.59,0h.41v.41h-.41v-.41h0Zm-20.14,0h.28v.41h-.28v-.41h0Zm-23.04,0h.28v.83h-.28v-.83h0Zm34.48,26.56q1.17-.21,2.34-.41v-26.28h-.55v8.53h-.28v-8.53h-.83v20.37h.41c-.55.36-.41,1.27-.41,1.93h.41c-.53.35-.41.11-.41.69h.41c-.53.35-.41.11-.41.69h.41v1.24h-.41v.41h.41v.96h-.69v-26.28h-.55q.07,13.35.14,26.7h0Zm-14.07-27.11h.28v.41h-.28v-.41h0Zm34.62-.28h.41v.28h-.41v-.28h0Zm-7.59,0h.41v.28h-.41v-.28h0Zm-2.07.69h.41v-.69h-.41v.69h0Zm-6.07,6.61h1.24v-7.29h-1.24v7.29h0Zm-1.38-3.03h-.28v-3.58h-.41v25.87c.77-.49.57-1.76.57-2.67,0-5.67-.1-11.34-.15-17.01h.28v.69h.96v-6.88h-.28q.14-.34.28-.69c-.79.08-.93,1.02-.94,1.67-.02.86-.01,1.73-.02,2.59h0Zm-24.14-4.27h.41v.69h-.41v-.69h0Zm-22.35,0h.28v1.24h-.28v-1.24h0Zm54.76,6.61h-.41v.28h.41v1.38h-.41v.27h.41v16.38h-.41v-7.84h-.41v8.26c.31,0,.89.1.9-.21.08-8.51-.05-17.02-.07-25.53v7.02h0Zm-1.52,18.71h.41v-10.6h.28v2.06h.41v-2.61q-.34.14-.69.28c.03-1.28.58-1.45.69-2.61q-.34.14-.69.27v-.69h.28v-8.12h-.28c0-.4,0-.66.28-.96h-.28v-1.1h-.41v-.41h.41v-.83c-.51-.07-.32.06-.55-.41q.07,12.87.14,25.73h0Zm-13.66-25.73h.28v.41h-.28v-.41h0Zm-.69,0h.41v.41h-.41v-.41h0Zm-.69,0h.41v.41h-.41v-.41h0Zm-6.62,0h.28v.69h-.28v-.69h0Zm-2.62-.41h.28v.41h-.28v-.41h0Zm-2.9.82q-.34-.21-.69-.41v8.26h.96v-8.67q-.14.41-.28.82h0Zm11.86-.82h-.28v.82h-.41c.05-.67,0-1.07.69-.82h0Zm-25.38,8.12h2.21v-8.26q-.07.27-.14.55-.41-.21-.83-.41v3.44h-.28v-3.58c-1.26.13-.94,1.28-.95,2.42-.02,1.95-.01,3.89-.02,5.84h0Zm56.28-8.67h.41v.41h-.41v-.41h0Zm-4.14,25.05h.28v-.41c.23.48.04.34.55.41v-25.05h-.83v25.05h0Zm-1.38-24.63h-.28v6.6h.55c-.01,6.22-.47,12.15-.55,18.3.66-.18.76,0,.84-.69.11-.89.19-1.79.24-2.68.07-1.31.11-2.63.12-3.94.04-6,.03-12.01.04-18.01h-.28v.96h-.41v-.96h-.28v.41h0Zm-1.38,0h-1.24v2.61h-.41v-2.61h-.55v.96h-.41v-.82h-.28v2.75h-.41v.41h.41v.27h-.41v3.58c1.27-.26,1.37-.38,1.38-1.65h.28v1.38h2.34v-7.29h-.69v.41h0Zm-7.03-.41h.41v.41h-.41v-.41h0Zm-23.31-.27h.28v.83h-.28v-.83h0Zm37.93-.41h.69v.41h-.69v-.41h0Zm-18.21,0c.25.16.31.42.41.69h-.55q.07-.34.14-.69h0Zm-1.24,0h.41v.41h-.41v-.41h0Zm-11.45,0h.97v.41h-.97v-.41h0Zm-2.62,0q.41.21.83.41v-.41h.83v.41h-.83v.69q-.28-.21-.55-.41-.14,11.97-.27,23.95v-24.63h0Zm4.41-.28c.82,0,1.33-.12,1.65.69h-.28v-.41h-.69v.41h-.28v-.41h-.41v-.28h0Zm-45.8.28h1.38v-.28h-1.38v.28h0Zm58.07-.83c0,.42-.17.46-.55.55.14-.29.21-.52.55-.55h0Zm-15.03,0h1.24v.41h-1.24v-.41h0Zm-1.38,0h.97v.41h-.97v-.41h0Zm34.21-.41h1.1v.41h-1.1v-.41h0Zm-.28.83h-.97c.31-.91.6-1.04.97,0h0Zm-4.28-.83q.35.21.69.41v-.41h1.24v.41q-.97.21-1.93.41v-.83h0Zm-2.62,0v.41h.28v-.41h1.93v.41h-.55v.41h-2.62c.2-.61.31-.83.97-.83h0Zm-9.38,0c1.12,0,2.46-.32,3.03.83h-3.03v-.83h0Zm-12.83,0h5.1v.83h.55v-.41h.41q.01.12.02.25c1.38.35,2.83.24,4.25.3q-4.48.14-8.97.28c.04-.24-.02-.23.33-.26.76-.07,1.53-.1,2.29-.15h-5.79v-.41h1.79v-.41h0Zm-21.66,1.24h.28v-1.51h-.28v1.51h0Zm38.62-1.93h2.21v.41c1.01,0,1.2.2,1.66,1.1q-.28-.21-.55-.41v.41h-.41q.21-.41.41-.83h-2.34v-.27h-.97v-.41h0Zm-8.28,0h2.34v.41h.97v.27c-.9,0-2.87.42-3.31-.69h0Zm-.69,0h.41v.69h-.41v-.69h0Zm-11.86,0v.69h-.69c.16-.4.22-.69.69-.69h0Zm-1.65,0h.69c-.25.52-.19.69-.69.69v-.69h0Zm-40.28,1.1h-.41v.41c.38,0,1.32.14,1.7-.2.36-.32.19-.9.78-.9v-.41h-2.07v1.1h0Zm66.07-1.38h1.24v.28h-1.24v-.28h0Zm-8.69,0h.41v.28h-.41v-.28h0Zm-18.35,0c.82.27.83.53.83,1.38h.41v.55c-.54,0-.57-.53-.69-.96q-.28.21-.55.41.14-.34.28-.69h-.28v-.69h0Zm29.93,0c.16-.03.25-.29.41-.27.67.08,1.29.37,1.93.55h-3.59v-.28c.41,0,.83.07,1.24,0h0Zm-11.03-.27h.41v.27h-.41v-.27h0Zm-9.79-.41h.28v.41h-.28v-.41h0Zm-9.93,0h.41v.41h-.41v-.41h0Zm-4.55,0h.28v.41h-.28v-.41h0Zm-9.52.96h.28v-.96h-.28v.96h0Zm-5.93-.96h1.93v2.48h-1.93v-2.48h0Zm-15.59,0h.41v.41h-.41v-.41h0Zm67.59-.69h.41v.41h-.41v-.41h0Zm-3.86,0h.69v.41h-.69v-.41h0Zm-7.72,0h2.62v.41h2.48v.27h-1.38v.41h.41c-.2.35-.66.33-1.05.34-.89.04-1.79.05-2.68.07.35-.39.97-.2.97-.83h1.1v-.27h-2.48v-.41h0Zm-14.07,0h4.28v.41h.41v-.41h.28v.69c.95-.94,2.66-.26,4-.27v.27h-2.07v.41c-.59.02-.72.37-1.28.48-.85.17-1.72.06-2.59.07v-.28h1.93v-.27h-.69v-.69h-4.28v-.41h0Zm-17.52,0h.41v.41h-.41v-.41h0Zm34.62-.28h1.66v.28h-1.66v-.28h0Zm-24.41,0h1.38c-.23.09-.68.03-.69.28-.22,3.94,0,7.89,0,11.84h-.28v-11.84h-.41v-.28h0Zm22.35-.27h1.1v.27h-1.1v-.27h0Zm-6.07,0h.69v.27h2.21v.28c-.76,0-2.45.34-2.9-.55h0Zm-.97,0c.09.09.46.46.55.55h-.55v-.55h0Zm-11.86,0q.62.14,1.24.27v-.27q1.31.07,2.62.14c-1.28.57-3.67.34-4.97.41v-.28h1.1v-.27h0Zm33.24-.41h.69v.41h-.69v-.41h0Zm-5.24,0h.69v.41h-.69v-.41h0Zm-1.38,0h.69v.41h-.69v-.41h0Zm-.97,0h.28v.41h-.28v-.41h0Zm-4.69-.28h.41v.28h-.41v-.28h0Zm-14,.14c.23.17.47.14.76.14v-.28h.41v.69h-1.24q.03-.28.07-.55h0Zm-18.28-.14h1.93v4.54h-1.93v-4.54h0Zm-20.41.28h-.41v13.49h.96v-8.26c-.64-.05-.53-.63-.53-1.2-.02-1.34-.01-2.68-.02-4.03h0Zm58.76-.69h.28v.41h-.28v-.41h0Zm-.69,0h.28v.41h-.28v-.41h0Zm-25.1,0h.69v.41h-.69v-.41h0Zm-37.66,0h.69v6.88q-.14-2.06-.28-4.13h-.41c.5-.5.41-1.36.41-2.06h-.41v-.69h0Zm58.07-.41h2.07v.41h-2.07v-.41h0Zm-.69,0h.41v.41h-.41v-.41h0Zm-8.14,0h1.66v.41h2.21v.69h.41v.41h-1.93v-.41h.96v-.28c-1.03,0-2.89.43-3.31-.82h0Zm-.97,0h.28v.41h-.28v-.41h0Zm-.69,0h.28v.41h-.28v-.41h0Zm-10.9,0c.42.36.55.35.55.82-.42-.35-.55-.35-.55-.82h0Zm-1.93,0h1.66v.82h-.41v-.41h-1.24v-.41h0Zm-23.86,0h.41v.41h-.41v-.41h0Zm42.62-.55h.83c.06.43.04.43.41.55h-1.66c.39-.19.41-.16.41-.55h0Zm-11.04,0q.41.21.83.41.07-.21.14-.41v.41h.41v-.41h1.65c0,.54-1.05.43-1.4.44-1.19.05-2.38.08-3.57.11.2-.02,1.93.15,1.93-.55h0Zm16.14-.28h.83v.28h-.83v-.28h0Zm-1.65,0h.41v.28h-.41v-.28h0Zm-7.45,0h.41v.28h-.41v-.28h0Zm-11.17,0h.69v.28h-.69v-.28h0Zm-.69,0h.41v.28h-.41v-.28h0Zm23.45-.41h1.24v.41h-1.24v-.41h0Zm-.96,0h.55v.41h-.55v-.41h0Zm-8,0h.41v.41h-.41v-.41h0Zm-1.93,0h1.65v.69c-.16-.05-.8-.23-.96-.28v.28h-.69v-.69h0Zm-8.97,0h.28v.41h-.28v-.41h0Zm-1.24,0h.55v.41h-.55v-.41h0Zm-.69,0h.41v.41h-.41v-.41h0Zm-38.9,0h.28v.41h-.28v-.41h0Zm53.93-.41h.41v.41h-.41v-.41h0Zm-7.17,0h.41v.41h-.41v-.41h0Zm-.97,0h.41v.41h-.41v-.41h0Zm-1.65,0h.96v.41h-.96v-.41h0Zm-11.17,0h.28v.41h-.28v-.41h0Zm-8.28,0h1.93v2.07h-1.93v-2.07h0Zm-21.24.83h.41v.69h.41c-.38.15-.4.14-.41.55.61,0,.5-.8.55-1.24h-.55v-.83h-.41v.83h0Zm20.55,6.88h3.03v-7.84h-3.03v7.84h0Zm-18.07-7.84h1.66v6.61h-1.66v-6.61h0Zm48-.41h.41v.41h-.41v-.41h0Zm-4.41,0h.55v.41h-.55v-.41h0Zm-8.41,0h.28v.41h-.28v-.41h0Zm-9.69,2.63c-.19-.79-.24-.27-.76-.68-.66-.51-.83-1.11-1-1.95.59.08.28.96.96.96v-.41h1.93v.41h-1.93c.25.52.19.69.69.69.15.87,1.66.07,1.66.96h-.69q.14.34.28.69h-.69v4.54h-.28c-.01-1.74.24-3.53-.17-5.22h0Zm19.76-2.9s.23.23.27.28h-.27v.41h-.69v-.41h.69v-.28h0Zm-6.62,0h1.24v.28h-1.24v-.28h0Zm-1.1,0s.23.23.28.28h-.28v.41h-.41v-.41h.41v-.28h0Zm-35.73,8.12c-.03-1.88.04-3.77-.08-5.65-.02-.4-.22-1.97-.93-2.27-.46-.19-.98-.14-1.48-.2,0,2.95-.19,4.57.52,7.42.19.76,1.63.65,1.96.7h0Zm48.69-8.53c-.03.49-.27.52-.69.69.16-.4.22-.69.69-.69h0Zm-24.14,0h.28v.41h-.28v-.41h0Zm-3.31,0h.28v.41h-.28v-.41h0Zm35.31-.41h.41v.41h-.41v-.41h0Zm-2.9,0h.97v.41h-.97v-.41h0Zm-45.93,5.78h-1.93v-2.62h-.41v-1.65h-.28v2.2h.28v3.72h-.28v.69h.28v.83h2.35v-.28c.27.25.46.28.83.28v-.28q1.24.14,2.48.28v-8.95h-2.48v.41h2.07v.41h-.28c.25.31.24.77.24,1.17.03,2.18.02,4.36.03,6.54-2.18,0-2.05-.18-2.21-2.48h1.24v-.27h-1.24v-5.78h-.69v5.78h0Zm-1.66-5.37h.83v-.41h-.83v.41h0Zm-.97.69h.28v-1.1h-.28v1.1h0Zm49.8-1.24q.48.07.97.14-.28.21-.55.41c-.06-.43-.04-.43-.41-.55h0Zm-9.52,0q.62.07,1.24.14h-.69v.41c-.42,0-.45-.17-.55-.55h0Zm3.45-.41h1.1v.41h-1.1v-.41h0Zm-48.83,0h.41v.41h-.41v-.41h0Zm41.1-.41h1.93v.41h-1.93v-.41h0Zm-.97,0h.28v.41h-.28v-.41h0Zm-12.69,0h1.1v.41h-1.1v-.41h0Zm-.83,0h.28v.41h-.28v-.41h0Zm-1.79,0h.41v.41h-.41v-.41h0Zm-28.69.41h-.41v.55q.48-.07.96-.14c-.08-.46-.03-.78-.55-.82v.41h0Zm50.48-.69h.41v.28h-.41v-.28h0Zm-11.45,0h.55v.28h-.55v-.28h0Zm20.69-.41h.41v.41h-.41v-.41h0Zm-57.11,0h.41v.41h-.41v-.41h0Zm-3.86,0h.28v.69h-.28v-.69h0Zm24.83-.14c.38.39.83.67.83,1.24-.73-.07-.68-.57-.83-1.24h0Zm22.35-.41h.28v.41h-.28v-.41h0Zm-.97,0h.28v.41h-.28v-.41h0Zm-4.28,0h.28v.41h-.28v-.41h0Zm-8.97,0h.69v.41h-.69v-.41h0Zm-.69,0h.28v.41h-.28v-.41h0Zm20-.41h.41v.41h-.41v-.41h0Zm-48.83,0h.83v.83c-.45-.23-.83-.29-.83-.83h0Zm44-.28h.41v.28h-.41v-.28h0Zm-42.35,0c.71.23.83.35.83,1.1h-.83l.41-.83h-.41v-.28h0Zm-2.48,1.93c.82,0,.75-.54.83-1.24v2.06q.41-.21.83-.41v.55h.28v-.96h-.28c.41-.41.28-1.12.28-1.65h-.28q.14-.34.28-.69c-1.48-.18-1.7,1.02-1.93,2.34h0Zm3.59-2.75h.41v.28h-.41v-.28h0Zm44.83-.69v.28c-.43.06-.43.04-.55.41.08-.41.09-.69.55-.69h0Zm-37.93,0h.41v.28h-.41v-.28h0Zm43.59-.41h.41v.41h-.41v-.41h0Zm-.69,0h.41v.41h-.41v-.41h0Zm-4.28,0h.41v.41h-.41v-.41h0Zm-1.93,0h.28v.41h-.28v-.41h0Zm-3.59,0h.28v.41h-.28v-.41h0Zm-36.69,1.93h.41q-.21.14-.41.28.21.69.41,1.38h.96v-2.89h-.69q.14-.34.28-.69h-.96v1.93h0Zm5.24-2.2v3.85h.97v-4.13c-.44.44-.15.28-.97.28h0Zm-3.17.28h-.41v.41h.41v.28h-.41v2.89h3.31v-4.13h-.41v.55h-.97v-.55h-.28v.55c-.32-.32-.35-.19-.83,0v-.55h-.41v.55h0Zm28.83-.96h.69v.41h.83v.28q-.76-.14-1.52-.28v-.41h0Zm-.55,0h.41v.41h-.41v-.41h0Zm-1.38,0h.97v.69c-.47-.14-.97-.13-.97-.69h0Zm-1.24,0h.55v.41h-.55v-.41h0Zm-29.66,0h.28v.41h-.28v-.41h0Zm-1.66.41h.28v-.41h-.28v.41h0Zm-4.14,1.24h-.55c-.04.99-1.34,1.89-1.52,2.89h-.69v.69h-.41c.07.51-.06.32.41.55h-.97q.14.41.28.83h-.69c.06.76-.13.52.41.83h-1.1v.83h-.55v.83h-.69v.41h-.41v.41h-.28v.28h1.93v.69h-.28v.69h-.28v7.16h-.41v-6.88h-.28c.11-.83.48-.58.69-1.24h-1.65v.27h-.41v.69h.97v.27h-1.65v.41h1.1v.27q.27-.14.55-.27c-.11.53-.1,1.11-.34,1.6-.22.44-.84.61-1,1.07-.29.82-.25,1.72-.28,2.58-.08,2.38-.02,4.76-.03,7.13h.41v.69h-.41v.69h.41v15.69h2.62v-1.24h.28c.04.66-.2,1.34.71,1.48,1.64.25,3.3.3,4.95.45v-5.5h-.97v.69h-.41v-.69h-.69v-12.25h-.28v-.96h.55v-9.77h-.28v-4.95h-.28v-.41h.28v-1.93h-.55v.83h.28v.41h-.28v1.65h-.69v-.55h.41v-1.65c-.72.28-.36,1.15-1.1,1.24v12.8h-.28v-12.39h-.28v.55h-.41c0-.94.18-.58.64-1.38.61-1.04.37-1.75,1.71-1.93.09-.69.53-.96.55-1.65h.28v-.41h.41c-.48-.23-.34-.04-.41-.55.88.06.61-.16.96.41.06-.35-.01-.77.19-1.07.27-.4.84-.52,1.15-.9.22-.26.15-.7.4-.93.18-.17.49-.09.74-.14v-.96c-1.15.03-2.27.35-2.48,1.65h0Zm53.66-1.65h.97v-.28h-.97v.28h0Zm-4.14,0h1.38v-.28h-1.38v.28h0Zm-.83,0h.55v-.28h-.55v.28h0Zm-1.93,0h1.52v-.28h-1.52v.28h0Zm-10.76-.69h2.07v.41h-2.07v-.41h0Zm-2.48,0h1.65v.41h-1.65v-.41h0Zm-1.1,0h.41v.41h-.41v-.41h0Zm-30.9.41h1.66v-.41h-1.66v.41h0Zm44.83-.69h.41v.28h4.83l-.28.69h.69v.41h-.69v.28h-.41v-.28h-.55v.28q-1.65-.14-3.31-.28v.28h-1.38v-.28h-.55v.28c-.36,0-.39-.03-.69-.28v.28c-.36,0-.39-.03-.69-.28q-.14.14-.28.28v-.28h-1.1v.28h-.97v-.28h-.96v-.41h5.24v.41c.47,0,.52-.28.69-.69h-7.73v-.41h7.73v-.28h0Zm-23.73-.14c-.16.25-.42.31-.69.41.18-.35.29-.68.69-.41h0Zm-3.31-.14h2.34v.28h-2.34v-.28h0Zm-12.55.28h.69v-.28h-.69v.28h0Zm-5.1,0h1.66v-.28h-1.66v.28h0Zm16.28-.69h.41v.41h-.41v-.41h0Zm8.28-.28h.69v.28h-.69v-.28h0Zm-3.17,0c.41.25.69.28.41.69-.25-.16-.31-.42-.41-.69h0Zm29.52-.41h.69v.41h-.69v-.41h0Zm-1.24,0h.28v.41h-.28v-.41h0Zm-3.31,0h.28v.41h-.28v-.41h0Zm-.97,0h.28v.41h-.28v-.41h0Zm-1.38,0h1.1v.41h-1.1v-.41h0Zm-.55,0h.28v.41h-.28v-.41h0Zm-3.03,0h2.62v.41h-2.62v-.41h0Zm-1.38,0h.28v.41h-.28v-.41h0Zm-.96,0h.41v.41h-.41v-.41h0Zm-1.66,0h.41v.41h-.41v-.41h0Zm-2.62,0h.28v.41h-.28v-.41h0Zm-21.79.41h.28v-.41h-.28v.41h0Zm-5.93,0h.41v-.41h-.41v.41h0Zm-5.24.28c.23-.23.37-.28.69-.28v.28c1.2,0,1.67-.88.55-.96v.28c-.67-.33-.87.17-1.24.69h0Zm50.76-1.24h.55v.28h-.55v-.28h0Zm-2.76,0h.41v.28h-.41v-.28h0Zm-3.17,0h.41v.28h-.41v-.28h0Zm-3.86,0h2.21v.28h-2.21v-.28h0Zm-3.72,0h.41v.28h-.41v-.28h0Zm-2.07,0h1.38v.28h-1.38v-.28h0Zm-2.21,0h1.93v.28h-1.93v-.28h0Zm-1.93,0h1.65v.28h-1.65v-.28h0Zm-1.1,0h.83v.28h-.83v-.28h0Zm-1.65,0h.41v.28h-.41v-.28h0Zm-6.9,0q.69.14,1.38.28v-.28h1.24v.28h.41v-.28h1.24q0,.08-.02.17c-.24.05-4.26.12-4.26.8h-.28v-.41h-.96v.69h-.69c.6-.84.9-.96,1.93-.96v-.28h0Zm3.03-.83h.28v.41h-.28v-.41h0Zm-1.65,0h1.24v.41h-1.24v-.41h0Zm-1.66,0h.55v.41h-.55v-.41h0Zm-.96,0h.69v.41h-.69v-.41h0Zm-1.24,0h.28v.41h-.28v-.41h0Zm-.83,0h.41v.41h-.41v-.41h0Zm-1.66,0h.69v.41h-.69v-.41h0Zm-.97,0h.69v.41h-.69v-.41h0Zm-1.24,0c.93,0,1.02.21,1.24,1.1-.84-.19-1.24-.2-1.24-1.1h0Zm-3.31,0h.28v.83h-.28v-.83h0Zm-2.62.41h-.41c0,.97-.97.68-.97,1.65.62-.21.89-.93,1.38-.96v-.69h.28v-.41h-.28v.41h0Zm-4,.41h.28q-.14.62-.28,1.24c1.02,0,.69-.77.69-1.65h-.41v-.41q-.14.41-.28.83h0Zm-3.03-.41h1.1v.41c.4-.31.53-.34.55-.83h-1.65v.41h0Zm33.66-.69c.36.31.19.23.97.24,1.7.03,3.4.02,5.1.03v-.28h.55v.28h5.24v.41h-20.14v.41h.83v.28h-1.38q.14-.34.28-.69h-1.38v-.41h9.93v-.28h0Zm-26.07.28c.76,0,.21,1.1.97,1.1v.69c.5,0,.44.17.69.69h-3.59v.28h-.69v.28h5.24c-.26-.43-2.56-3.3-2.62-3.3v.28h0Zm40.28-.55h.41v.28h-.41v-.28h0Zm-1.24,0h.55v.28h-.55v-.28h0Zm-1.52,0h.69v.28h-.69v-.28h0Zm-1.52,0h.41v.28h-.41v-.28h0Zm-9.24,0h.55v.28h-.55v-.28h0Zm-2.34,0h.69v.28h-.69v-.28h0Zm-16.14,0h.41v.28h-.41v-.28h0Zm-3.59,0h1.65v.28h-1.65v-.28h0Zm-8.28.28v.28h.41v.41h-.41v.41h.41v.28h.27v-1.1h.28c-.32-.32-.19-.35,0-.83-.46.04-.44.55-.96.55h0Zm23.86-.96h1.24v.41h-1.24v-.41h0Zm-1.1,0h.69v.41h-.69v-.41h0Zm-14.9,0h.41v.41h-.41v-.41h0Zm-1.66,0h.41v.41h-.41v-.41h0Zm4.41-.41h.28v.41h-.28v-.41h0Zm21.79-.27h1.66v.27h-1.66v-.27h0Zm-22.21-.28h.69v.28h-.69v-.28h0Zm-.69,0h.41v.28h-.41v-.28h0Zm-11.86.96h-.97v.69c1.57-.21,1.63-.18,2.4-1.27.38-.54.6-.27.64-1.07h-1.38c0,.88-1.1.64-.69,1.65h0Zm2.07-2.06h.96v-.27h-.96v.27h0Zm18.07-.55c.49.38,1.09.11,1.66,0v.28c.4,0,.66,0,.96-.28v.55h-2.9q.14-.27.27-.55h0Zm-.96,0h.28v.55h-.28v-.55h0Zm-.97,0c.09.09.46.46.55.55h-.55v-.55h0Zm-13.79,1.65c-.63,0-.6.96-.69,1.38h.28v-.41h.41v.69h.41v-3.3h-.41v1.65h0Zm-2.34-2.06h-.41v.41h1.65v-.69h-1.24v.28h0Zm2.34,0h.41v-.69h-.41v.69h0Zm1.24-.28h-.28v-.69h-.41v.96h.69v.41h-.69q.21.14.41.28c-.55.36-.41,1.27-.41,1.93h.41v.41c.98-1.23.55-3.11.55-4.68h-.28v1.38h0Zm34.35-1.65h.97v.27h-.97v-.27h0Zm-4,0h.41v.27h-.41v-.27h0Zm-.96,0h.55v.27h-.55v-.27h0Zm-1.38,0h1.1v.27h-1.1v-.27h0Zm-5.24,0h1.38v.27h-1.38v-.27h0Zm-1.66,0h1.38v.27h-1.38v-.27h0Zm-5.65,0h.41v.27h-.41v-.27h0Zm-.69,0h.41v.27h-.41v-.27h0Zm-5.24,0h.41v.27h-.41v-.27h0Zm23.86-.96h.28v.41h-.28v-.41h0Zm-3.45,0h.41v.41h-.41v-.41h0Zm-3.31,0h.41v.41h-.41v-.41h0Zm-1.65,0h.69v.41h-.69v-.41h0Zm-.55,0h.28v.41h-.28v-.41h0Zm-.55,0h.28v.41h-.28v-.41h0Zm-2.48,0h1.38v.41h-1.38v-.41h0Zm-1.93,0h.28v.41h-.28v-.41h0Zm-1.38,0h1.1v.41h-1.1v-.41h0Zm-.55,0h.28v.41h-.28v-.41h0Zm-4.69-.28h.69v.28h-.69v-.28h0Zm-1.65,0h.41v.28h-.41v-.28h0Zm-6.9-1.1h.28v.41h-.28v-.41h0Zm-.69,0h.41v.41h-.41v-.41h0Zm-3.86,0h.55v.41c-.37,0-.83-.25-1.1,0-.88.8-1.38,1.93-2.07,2.89.41,0,.89.21,1.24,0,.53-.32.78-.96,1.17-1.45.44.16,1.21.03,1.31.48.39,1.84,0,3.76,0,5.64h.41v-4.68h1.1v-.41c.09.23.03.68.28.69,4.41.13,8.83-.28,13.24-.28,2.67,0,5.33.18,8,.28v.41l-22.07.14c-.05,1.47-.43,2.96-.14,4.4.11.54.83.73,1.24,1.1v-1.38h.41c0,.78-.17,1.58,0,2.34.07.32.46.46.69.69q.14-2.34.28-4.68c0,1.65-.21,3.32,0,4.95.03.27.46.28.69.41-.55.41-1.43.59-1.66,1.24-.39,1.13,0,2.39,0,3.58h1.24c-.5,1-.55,2.19-.55,3.3l.55-.55v1.24q-.28-.14-.55-.28v.69h.55c-.32.67-.47,1.49-.28,2.2q.14-.83.28-1.65v21.47h.41q-.21.48-.41.96-.14-7.98-.28-15.96c-1.34,1.52-.5,2.22-1.17,4.13q-.1-2.06-.21-4.13h-.97v3.44q-.14-2-.28-3.99c-.42,0-.66.57-.83.96q-.16-.25-.33-.49c-.26.16-.75.19-.78.49-.24,2.56,0,5.14,0,7.71h.97v-1.38c.14.4.05,1.01.43,1.2.65.34,1.46.11,2.19.17,0-.7.08-1.57-.41-2.06q.35-.34.69-.69v3.03h-6.9c-.11-5.42-.06-10.85-.33-16.27-.07-1.32-.73-2.68-.36-3.96h.41v-2.48h-.41q.21-.48.41-.96h-.69q-.14.48-.28.96v-4.27h-.41v1.38h-.69v2.2h.41c-.14.14-.41.22-.41.41-.13,5.69,0,11.38,0,17.07q-.14-10.05-.28-20.09-.14,1.17-.28,2.34h-.69v1.79c-1.02-.33-.68.01-.96-1.1v4.4h1.24v1.1h.41v.55h-.41v.83h.41c-.14.09-.4.11-.41.28-.13,1.42-.12,2.85,0,4.27.02.19.28.28.41.41h-.41v2.61q-.34-.21-.69-.41v.55c-.32,0-.67.13-.97,0-.19-.08-.18-.37-.28-.55v.55h-.83v8.12h2.48q.14-2.68.28-5.37v5.37h.97v-3.72h.41c.03,1.1-.08,2.2.09,3.29.06.37.56.59.58.97.05.88-.71,2.14.02,2.63h-.41c0,.85-.19.56.41.96h-.41v.69h.41c0,.85.19.56-.41.96h.41c0,.7.08,1.57-.41,2.06h.97v.69h-.55q-.21.83-.41,1.65h.41v.96q.28-.34.55-.69v6.19h.41q-.21,1.17-.41,2.34h1.38q.14-.48.28-.96v1.65h.41v-.69c.09.23.03.64.28.69,1.08.21,2.21,0,3.31,0q.14-3.1.28-6.19h.41v6.19h1.24v-1.65h.41v1.65h.55v-10.18h.41v10.18h2.35v-4.54h-.41q-.24-.69-.48-1.38-.24,2.61-.48,5.23-.14-20.71-.27-41.42.14,11.49.27,22.98h.97v-3.3h.41v3.3h2.21v-8.67c-.39.17-.97.4-.97.82q-.14-.41-.28-.82h-.69v-.55q-.35.28-.69.55v-1.24q.48.21.97.41v-8.53h-.97v-.83h1.38v-6.05q.14,3.03.28,6.05h.97q-.14-2.2-.28-4.4c.93,0,1.1,0,1.1.96h-.41v3.44h.69q.14-1.65.28-3.3.35.45.69.89c-.71.35-.58,1.49-.69,2.27q.97.28,1.93.55c-.18.92-.55,1.82-.55,2.75,0,2.35.46,4.67.55,7.02,0,.17-.18.28-.28.41q-.28-.21-.55-.41v.82h-.83v7.84h2.35l.28-4.27c0,1.42-.27,2.87,0,4.27.08.39.64.46.96.69v-1.24h.41q.14,10.18.28,20.37,1.17.14,2.34.28.14-1.79.28-3.58v3.58h1.1q.14-4.4.28-8.81c.01,1.88-.11,3.76.03,5.63.09,1.18.21,2.93,1.33,3.29.53.17,1.11.11,1.67.16q.14-2.27.28-4.54v4.27h1.66v-19.68q.14,9.7.28,19.4c.68-.07,1.95.13,2.18-.92.36-1.68.57-3.41.58-5.13.05-6.97-.27-13.95-.41-20.92h-.69v4.54h-.41v-4.54h-.55v9.77h-.41v-9.77h-.55v.96q-.28-.41-.55-.83v26.15h-.41c0-8.58.09-17.16,0-25.73,0-.76-.49-.55-.96-.55v-.41h5.52q-.83-.14-1.66-.28v-.41h8.97v-.41h1.38v1.1q-.34-.14-.69-.28v6.88q.35-.14.69-.28c-.14,4.49-.2,8.99-.41,13.49-.01.25-.18.46-.28.69-.36-.9-.03-.69-.96-.69v.96q-.48-.48-.97-.96v5.92q.14-.21.28-.41.48.21.97.41.21-.55.41-1.1.14.34.27.69.57-.15,1.13-.29-.08-13.07-.16-26.13h2.9v25.73c.55,0,1.12.13,1.65,0,.29-.07.4-.49.69-.55.2-.04.37.18.55.28v-25.46q-.17.55-.35,1.1c-.19-.43-.42-1.1-.9-1.1v25.46h-.41v-25.05h-.83q.07-.55.14-1.1c-1.03-.26-2.14-.11-3.17.14-.16.04-.18.28-.28.41q-.14-.21-.28-.41.25-.33.5-.67.51.2,1.02.39v-.41c.84,0,.59-.2.9.41.11-.23.09-.65.34-.69,1.68-.26,3.4-.09,5.1-.14q-1.79.41-3.59.83.48.14.97.27v.41h1.66v-.41c2.82-.47,5.7-.52,8.55-.69v.41h-.83v24.63q-.07-12.32-.14-24.63h-.69c.01,8.28-.55,16.61.41,24.84q.97-.31,1.93-.62c0-8.07.14-16.15,0-24.22,0-.2-.28-.27-.41-.41h1.38v.41h-.69v24.22q.53-.05,1.06-.11c.27-2.31.73-4.6.81-6.92.21-5.87.04-11.74.06-17.61,1.04-.14,2.26-.12,3.03-.83h-.69c-.03-.33.12-.74-.09-1-.39-.49-1.15-.59-1.57-1.07-.58-.67-.9-1.54-1.35-2.3q-.29.19-.58.38c0-2.52-2.29-3.09-3.72-4.68-.15-.17.14-.51,0-.69-1.18-1.47-2.26-3.14-3.86-4.13-.67-.41-1.56.3-2.34.28-.92-.03-1.82-.28-2.73-.42q.4-.27.8-.54h-.97v-.69c1.11,0,2.24,0,3.31.28l-.41.69h2.07q-.69-.14-1.38-.28v-.41h.69v-.55h-.69v-.69h-1.38v-.41h.69q-.34-.14-.69-.28.21-.34.41-.69h-5.1v-.41h4.28c-.41-.55-.56-1.55-1.24-1.65-3.23-.48-6.53,0-9.79,0q4.62-.14,9.24-.27v-.55c-12.55,0-25.11-.18-37.66,0-.29,0-.46.37-.69.55v-1.38h.97v.41h.69v-.41c.37.55,1.27.41,1.93.41v-.41c.58.58.22.41,1.1.41v-.41c.09.14.11.41.28.41,5.42.14,10.85,0,16.28,0v-.41h-6.35c.25-.18.45-.54.76-.55,7.01-.18,14.02,0,21.04,0-.14-.23-.15-.68-.41-.69-4.92-.22-9.84,0-14.76,0v-.41c4.63-.84,9.41-.04,14.11-.19.18,0,.16-.33.24-.49-.36-.11-.82-.06-1.09-.33-.38-.38-.33-1.07-.71-1.46-.16-.17-.46,0-.69,0v-.69c-6.71-.23-13.42-.61-20.14-.69-5.38-.06-10.76.18-16.14.28h0Z"/>
      <text class="cls-1" transform="translate(464.37 194.7)"><tspan x="0" y="0">WWW</tspan></text>
      <text class="cls-17" transform="translate(482.07 194.7)"><tspan x="0" y="0">.</tspan></text>
      <text class="cls-18" transform="translate(484.45 194.7)"><tspan x="0" y="0">HEMLOCKHOUSEPGH.COM</tspan></text>
      <text class="cls-15" transform="translate(426.02 185.65)"><tspan x="0" y="0">IRREVERENT</tspan></text>
      <text class="cls-2" transform="translate(476.87 185.65)"><tspan x="0" y="0" xml:space="preserve"> FOOD AND COCKT</tspan></text>
      <text class="cls-15" transform="translate(549.38 185.65)"><tspan x="0" y="0">AIL</tspan></text>
      <text class="cls-21" transform="translate(562.69 185.65)"><tspan x="0" y="0">S</tspan></text>
      <text class="cls-22" transform="translate(43.55 50.56)"><tspan x="0" y="0">BEVERAGE</tspan></text>
      <text class="cls-20" transform="translate(87.84 50.56)"><tspan x="0" y="0">S</tspan></text>
      <text class="cls-39" transform="translate(43.55 77.38)"><tspan x="0" y="0">F</tspan></text>
      <text class="cls-59" transform="translate(48.5 77.38)"><tspan x="0" y="0">OUNT</tspan></text>
      <text class="cls-59" transform="translate(70.75 77.38)"><tspan x="0" y="0">AIN SOD</tspan></text>
      <text class="cls-51" transform="translate(105.7 77.38)"><tspan x="0" y="0">A $4</tspan></text>
      <text class="cls-32" transform="translate(43.5 89.39)"><tspan x="0" y="0">Coke, Diet Coke, Ginger Ale, Unsweetened Tea</tspan></text>
      <text class="cls-59" transform="translate(43.55 107.06)"><tspan x="0" y="0">ORANGE </tspan></text>
      <text class="cls-44" transform="translate(80.74 107.06)"><tspan x="0" y="0">JUICE $4</tspan></text>
      <text class="cls-29" transform="translate(43.55 124.72)"><tspan x="0" y="0">COFFEE $3.5</tspan></text>
      <text class="cls-59" transform="translate(43.55 139.56)"><tspan x="0" y="0">LIMON</tspan></text>
      <text class="cls-55" transform="translate(71.06 139.56)"><tspan x="0" y="0">ATA</tspan></text>
      <text class="cls-45" transform="translate(86.02 139.56)"><tspan x="0" y="0" xml:space="preserve"> $4.5</tspan></text>
      <text class="cls-25" transform="translate(43.55 154.4)"><tspan x="0" y="0">BLOOD ORANGE SOD</tspan></text>
      <text class="cls-41" transform="translate(129.13 154.4)"><tspan x="0" y="0">A $4.5</tspan></text>
      <text class="cls-39" transform="translate(43.55 169.23)"><tspan x="0" y="0">J</tspan></text>
      <text class="cls-28" transform="translate(47.55 169.23)"><tspan x="0" y="0">ARRITOS $5</tspan></text>
      <text class="cls-58" transform="translate(43.55 184.07)"><tspan x="0" y="0">MEXICAN COKE $5</tspan></text>
      <text class="cls-25" transform="translate(43.55 198.9)"><tspan x="0" y="0">TEA</tspan></text>
      <text class="cls-45" transform="translate(59.12 198.9)"><tspan x="0" y="0" xml:space="preserve"> $3.5</tspan></text>
      <text class="cls-39" transform="translate(43.55 213.73)"><tspan x="0" y="0">T</tspan></text>
      <text class="cls-28" transform="translate(48.43 213.73)"><tspan x="0" y="0">OPO CHICO $4.5</tspan></text>
      <text class="cls-39" transform="translate(43.55 228.57)"><tspan x="0" y="0">A</tspan></text>
      <text class="cls-59" transform="translate(49.05 228.57)"><tspan x="0" y="0">SSORTED IMPORTED SOFT</tspan></text>
      <text class="cls-40" transform="translate(158.61 228.57)"><tspan x="0" y="0" xml:space="preserve"> DRINKS $4 (INQUIRE WITH YOUR SERVER</tspan></text>
      <text class="cls-39" transform="translate(335.16 228.57)"><tspan x="0" y="0">)</tspan></text>
      <text class="cls-13" transform="translate(43.5 255.4)"><tspan x="0" y="0">Conser</tspan></text>
      <text class="cls-12" transform="translate(74.79 255.4)"><tspan x="0" y="0">va</tspan></text>
      <text class="cls-5" transform="translate(84.36 255.4)"><tspan x="0" y="0">s </tspan></text>
      <text class="cls-57" transform="translate(91.69 255.4)"><tspan x="0" y="0">Add </tspan></text>
      <text class="cls-34" transform="translate(109.81 255.4)"><tspan x="0" y="0">toasted Red Fife bread</tspan></text>
      <text class="cls-52" transform="translate(208.3 255.4)"><tspan x="0" y="0" xml:space="preserve"> for $1</tspan></text>
      <text class="cls-50" transform="translate(43.5 270.24)"><tspan x="0" y="0">Av</tspan></text>
      <text class="cls-57" transform="translate(52.77 270.24)"><tspan x="0" y="0">ailable la</tspan></text>
      <text class="cls-57" transform="translate(95.12 270.24)"><tspan x="0" y="0">te night until bar close</tspan></text>
      <text class="cls-61" transform="translate(198.61 270.24)"><tspan x="0" y="0">s</tspan></text>
      <text class="cls-25" transform="translate(43.55 297.07)"><tspan x="0" y="0">RAMIREZ</tspan></text>
      <text class="cls-62" transform="translate(81.65 297.07)"><tspan x="0" y="0" xml:space="preserve"> CODFISH IN SPICY OLIVE OIL &amp; GARLIC  </tspan></text>
      <text class="cls-42" transform="translate(257.18 297.07)"><tspan x="0" y="0">PORTUGAL</tspan></text>
      <text class="cls-33" transform="translate(301.41 297.07)"><tspan x="0" y="0" xml:space="preserve">  $1</tspan></text>
      <text class="cls-39" transform="translate(318.38 297.07)"><tspan x="0" y="0">4</tspan></text>
      <text class="cls-25" transform="translate(43.55 311.9)"><tspan x="0" y="0">BRIOS</tspan></text>
      <text class="cls-53" transform="translate(69.9 311.9)"><tspan x="0" y="0">A G</tspan></text>
      <text class="cls-59" transform="translate(83.91 311.9)"><tspan x="0" y="0">ARFISH IN SPIC</tspan></text>
      <text class="cls-48" transform="translate(150.3 311.9)"><tspan x="0" y="0">Y </tspan></text>
      <text class="cls-59" transform="translate(158.42 311.9)"><tspan x="0" y="0">OLIVE OIL</tspan></text>
      <text class="cls-45" transform="translate(199.7 311.9)"><tspan x="0" y="0" xml:space="preserve">  </tspan></text>
      <text class="cls-42" transform="translate(208 311.9)"><tspan x="0" y="0">PORTUGAL</tspan></text>
      <text class="cls-33" transform="translate(252.23 311.9)"><tspan x="0" y="0" xml:space="preserve">  $1</tspan></text>
      <text class="cls-39" transform="translate(269.2 311.9)"><tspan x="0" y="0">6</tspan></text>
      <text class="cls-39" transform="translate(43.55 326.74)"><tspan x="0" y="0">C</tspan></text>
      <text class="cls-59" transform="translate(49.28 326.74)"><tspan x="0" y="0">ARDUME OCTOPUS IN TOMA</tspan></text>
      <text class="cls-29" transform="translate(165.48 326.74)"><tspan x="0" y="0">TO SAUCE  </tspan></text>
      <text class="cls-42" transform="translate(215.12 326.74)"><tspan x="0" y="0">PORTUGAL</tspan></text>
      <text class="cls-33" transform="translate(259.34 326.74)"><tspan x="0" y="0" xml:space="preserve">  $1</tspan></text>
      <text class="cls-39" transform="translate(276.32 326.74)"><tspan x="0" y="0">4</tspan></text>
      <text class="cls-39" transform="translate(43.55 341.58)"><tspan x="0" y="0">C</tspan></text>
      <text class="cls-59" transform="translate(49.28 341.58)"><tspan x="0" y="0">ARDUME SARDINES IN TOMA</tspan></text>
      <text class="cls-29" transform="translate(168.89 341.58)"><tspan x="0" y="0">TO SAUCE  </tspan></text>
      <text class="cls-42" transform="translate(218.53 341.58)"><tspan x="0" y="0">PORTUGAL</tspan></text>
      <text class="cls-33" transform="translate(262.76 341.58)"><tspan x="0" y="0" xml:space="preserve">  $1</tspan></text>
      <text class="cls-39" transform="translate(279.73 341.58)"><tspan x="0" y="0">1</tspan></text>
      <text class="cls-59" transform="translate(43.55 356.41)"><tspan x="0" y="0">MANNA</tspan></text>
      <text class="cls-25" transform="translate(74.17 356.41)"><tspan x="0" y="0" xml:space="preserve"> SARDINE </tspan></text>
      <text class="cls-31" transform="translate(117.12 356.41)"><tspan x="0" y="0">PA</tspan></text>
      <text class="cls-26" transform="translate(127.65 356.41)"><tspan x="0" y="0">TE  </tspan></text>
      <text class="cls-42" transform="translate(146.02 356.41)"><tspan x="0" y="0">PORTUGAL</tspan></text>
      <text class="cls-33" transform="translate(190.24 356.41)"><tspan x="0" y="0" xml:space="preserve">  $1</tspan></text>
      <text class="cls-39" transform="translate(207.22 356.41)"><tspan x="0" y="0">0</tspan></text>
      <text class="cls-25" transform="translate(43.55 371.24)"><tspan x="0" y="0">PORTHOS TUNA</tspan></text>
      <text class="cls-40" transform="translate(108.39 371.24)"><tspan x="0" y="0" xml:space="preserve"> FILLETS IN OLIVE OIL  </tspan></text>
      <text class="cls-42" transform="translate(209.13 371.24)"><tspan x="0" y="0">PORTUGAL</tspan></text>
      <text class="cls-33" transform="translate(253.36 371.24)"><tspan x="0" y="0" xml:space="preserve">  $1</tspan></text>
      <text class="cls-39" transform="translate(270.34 371.24)"><tspan x="0" y="0">5</tspan></text>
      <text class="cls-40" transform="translate(43.55 386.08)"><tspan x="0" y="0">NERO BLACK</tspan></text>
      <text class="cls-40" transform="translate(96.8 386.08)"><tspan x="0" y="0" xml:space="preserve"> SWORDFISH FILLETS IN OLIVE OIL  </tspan></text>
      <text class="cls-42" transform="translate(251.11 386.08)"><tspan x="0" y="0">PORTUGAL</tspan></text>
      <text class="cls-33" transform="translate(295.34 386.08)"><tspan x="0" y="0" xml:space="preserve">  $1</tspan></text>
      <text class="cls-39" transform="translate(312.31 386.08)"><tspan x="0" y="0">9</tspan></text>
      <text class="cls-59" transform="translate(43.55 400.92)"><tspan x="0" y="0">LA</tspan></text>
      <text class="cls-40" transform="translate(53.84 400.92)"><tspan x="0" y="0" xml:space="preserve"> ROSE SMOKED SARDINES IN OLIVE OIL  </tspan></text>
      <text class="cls-42" transform="translate(227.51 400.92)"><tspan x="0" y="0">PORTUGAL</tspan></text>
      <text class="cls-33" transform="translate(271.73 400.92)"><tspan x="0" y="0" xml:space="preserve">  $1</tspan></text>
      <text class="cls-39" transform="translate(288.71 400.92)"><tspan x="0" y="0">3</tspan></text>
      <text class="cls-59" transform="translate(43.55 415.76)"><tspan x="0" y="0">MINER</tspan></text>
      <text class="cls-30" transform="translate(71.38 415.76)"><tspan x="0" y="0">VA</tspan></text>
      <text class="cls-40" transform="translate(81.9 415.76)"><tspan x="0" y="0" xml:space="preserve"> CODFISH IN OLIVE OIL &amp; GARLIC  </tspan></text>
      <text class="cls-42" transform="translate(229.08 415.76)"><tspan x="0" y="0">PORTUGAL</tspan></text>
      <text class="cls-33" transform="translate(273.31 415.76)"><tspan x="0" y="0" xml:space="preserve">  $1</tspan></text>
      <text class="cls-39" transform="translate(290.29 415.76)"><tspan x="0" y="0">4</tspan></text>
      <text class="cls-25" transform="translate(43.55 430.58)"><tspan x="0" y="0">BRIOS</tspan></text>
      <text class="cls-53" transform="translate(69.9 430.58)"><tspan x="0" y="0">A </tspan></text>
      <text class="cls-59" transform="translate(78.13 430.58)"><tspan x="0" y="0">GOURMET</tspan></text>
      <text class="cls-40" transform="translate(119.03 430.58)"><tspan x="0" y="0" xml:space="preserve"> HORSE-MACKEREL IN OLIVE OIL  </tspan></text>
      <text class="cls-42" transform="translate(264.19 430.58)"><tspan x="0" y="0">PORTUGAL</tspan></text>
      <text class="cls-33" transform="translate(308.41 430.58)"><tspan x="0" y="0" xml:space="preserve">  $1</tspan></text>
      <text class="cls-39" transform="translate(325.38 430.58)"><tspan x="0" y="0">5</tspan></text>
      <text class="cls-59" transform="translate(43.55 445.42)"><tspan x="0" y="0">MANNA</tspan></text>
      <text class="cls-25" transform="translate(74.17 445.42)"><tspan x="0" y="0" xml:space="preserve"> SALMON </tspan></text>
      <text class="cls-31" transform="translate(114.99 445.42)"><tspan x="0" y="0">PA</tspan></text>
      <text class="cls-26" transform="translate(125.52 445.42)"><tspan x="0" y="0">TE  </tspan></text>
      <text class="cls-42" transform="translate(143.89 445.42)"><tspan x="0" y="0">PORTUGAL</tspan></text>
      <text class="cls-45" transform="translate(188.12 445.42)"><tspan x="0" y="0" xml:space="preserve">  $8</tspan></text>
      <text class="cls-59" transform="translate(43.55 460.26)"><tspan x="0" y="0">JUPITER SARDINES IN ORGANIC OLIVE OIL</tspan></text>
      <text class="cls-45" transform="translate(221.21 460.26)"><tspan x="0" y="0" xml:space="preserve">  </tspan></text>
      <text class="cls-42" transform="translate(229.52 460.26)"><tspan x="0" y="0">PORTUGAL</tspan></text>
      <text class="cls-33" transform="translate(273.74 460.26)"><tspan x="0" y="0" xml:space="preserve">  $1</tspan></text>
      <text class="cls-39" transform="translate(290.72 460.26)"><tspan x="0" y="0">8</tspan></text>
      <text class="cls-59" transform="translate(43.55 475.09)"><tspan x="0" y="0">MANNA</tspan></text>
      <text class="cls-25" transform="translate(74.17 475.09)"><tspan x="0" y="0" xml:space="preserve"> CODFISH </tspan></text>
      <text class="cls-31" transform="translate(117.1 475.09)"><tspan x="0" y="0">PA</tspan></text>
      <text class="cls-26" transform="translate(127.62 475.09)"><tspan x="0" y="0">TE  </tspan></text>
      <text class="cls-42" transform="translate(146 475.09)"><tspan x="0" y="0">PORTUGAL</tspan></text>
      <text class="cls-45" transform="translate(190.23 475.09)"><tspan x="0" y="0" xml:space="preserve">  $8</tspan></text>
      <text class="cls-39" transform="translate(43.55 489.93)"><tspan x="0" y="0">S</tspan></text>
      <text class="cls-59" transform="translate(49.03 489.93)"><tspan x="0" y="0">ANT</tspan></text>
      <text class="cls-53" transform="translate(65.13 489.93)"><tspan x="0" y="0">A C</tspan></text>
      <text class="cls-55" transform="translate(79.09 489.93)"><tspan x="0" y="0">AT</tspan></text>
      <text class="cls-59" transform="translate(88.6 489.93)"><tspan x="0" y="0">ARINA</tspan></text>
      <text class="cls-25" transform="translate(114.91 489.93)"><tspan x="0" y="0" xml:space="preserve"> TUNA IN TOMA</tspan></text>
      <text class="cls-29" transform="translate(178.15 489.93)"><tspan x="0" y="0">TO SAUCE  </tspan></text>
      <text class="cls-42" transform="translate(227.8 489.93)"><tspan x="0" y="0">PORTUGAL</tspan></text>
      <text class="cls-33" transform="translate(272.02 489.93)"><tspan x="0" y="0" xml:space="preserve">  $1</tspan></text>
      <text class="cls-39" transform="translate(288.99 489.93)"><tspan x="0" y="0">0</tspan></text>
      <text class="cls-59" transform="translate(43.55 504.76)"><tspan x="0" y="0">GOOD BO</tspan></text>
      <text class="cls-48" transform="translate(81.44 504.76)"><tspan x="0" y="0">Y </tspan></text>
      <text class="cls-25" transform="translate(89.56 504.76)"><tspan x="0" y="0">HO</tspan></text>
      <text class="cls-48" transform="translate(101.46 504.76)"><tspan x="0" y="0">T </tspan></text>
      <text class="cls-25" transform="translate(109 504.76)"><tspan x="0" y="0">TUNA</tspan></text>
      <text class="cls-39" transform="translate(131.3 504.76)"><tspan x="0" y="0"> </tspan></text>
      <text class="cls-31" transform="translate(134.08 504.76)"><tspan x="0" y="0">PA</tspan></text>
      <text class="cls-25" transform="translate(144.6 504.76)"><tspan x="0" y="0">TE </tspan></text>
      <text class="cls-39" transform="translate(157.41 504.76)"><tspan x="0" y="0"></tspan></text>
      <text class="cls-42" transform="translate(160.25 504.76)"><tspan x="0" y="0">PORTUGAL</tspan></text>
      <text class="cls-33" transform="translate(204.47 504.76)"><tspan x="0" y="0" xml:space="preserve">  $7</tspan></text>
      <text class="cls-59" transform="translate(43.55 519.59)"><tspan x="0" y="0">GOOD BO</tspan></text>
      <text class="cls-48" transform="translate(81.44 519.59)"><tspan x="0" y="0">Y </tspan></text>
      <text class="cls-25" transform="translate(89.56 519.59)"><tspan x="0" y="0">TUNA</tspan></text>
      <text class="cls-39" transform="translate(111.87 519.59)"><tspan x="0" y="0"> </tspan></text>
      <text class="cls-31" transform="translate(114.65 519.59)"><tspan x="0" y="0">PA</tspan></text>
      <text class="cls-25" transform="translate(125.17 519.59)"><tspan x="0" y="0">TE </tspan></text>
      <text class="cls-39" transform="translate(137.97 519.59)"><tspan x="0" y="0"></tspan></text>
      <text class="cls-42" transform="translate(140.81 519.59)"><tspan x="0" y="0">PORTUGAL</tspan></text>
      <text class="cls-33" transform="translate(185.04 519.59)"><tspan x="0" y="0" xml:space="preserve">  $7</tspan></text>
      <text class="cls-59" transform="translate(43.55 534.43)"><tspan x="0" y="0">MINER</tspan></text>
      <text class="cls-30" transform="translate(71.38 534.43)"><tspan x="0" y="0">VA</tspan></text>
      <text class="cls-40" transform="translate(81.9 534.43)"><tspan x="0" y="0" xml:space="preserve"> SARDINES WITH PEPPERS </tspan></text>
      <text class="cls-39" transform="translate(196.62 534.43)"><tspan x="0" y="0"></tspan></text>
      <text class="cls-42" transform="translate(199.46 534.43)"><tspan x="0" y="0">PORTUGAL</tspan></text>
      <text class="cls-33" transform="translate(243.69 534.43)"><tspan x="0" y="0" xml:space="preserve">  $1</tspan></text>
      <text class="cls-39" transform="translate(260.67 534.43)"><tspan x="0" y="0">3</tspan></text>
      <text class="cls-5" transform="translate(43.5 564.09)"><tspan x="0" y="0">Bread Service $5</tspan></text>
      <text class="cls-5" transform="translate(43.5 578.93)"><tspan x="0" y="0">Side of Fries $6</tspan></text>
      <text class="cls-5" transform="translate(43.5 608.61)"><tspan x="0" y="0">AFTER HOURS FOOD:</tspan></text>
      <text class="cls-57" transform="translate(43.5 623.44)"><tspan x="0" y="0">Frid</tspan></text>
      <text class="cls-61" transform="translate(61.13 623.44)"><tspan x="0" y="0">ay</tspan></text>
      <text class="cls-47" transform="translate(70.45 623.44)"><tspan x="0" y="0">s &amp; Sa</tspan></text>
      <text class="cls-57" transform="translate(95.09 623.44)"><tspan x="0" y="0">turd</tspan></text>
      <text class="cls-61" transform="translate(115.36 623.44)"><tspan x="0" y="0">ay</tspan></text>
      <text class="cls-57" transform="translate(124.69 623.44)"><tspan x="0" y="0">s When </tspan></text>
      <text class="cls-50" transform="translate(157.2 623.44)"><tspan x="0" y="0">Av</tspan></text>
      <text class="cls-57" transform="translate(166.45 623.44)"><tspan x="0" y="0">ailable: </tspan></text>
      <text class="cls-10" transform="translate(202.14 623.44)"><tspan x="0" y="0">Spicy Tuna Onigiri ($7)</tspan></text>
      <text class="cls-32" transform="translate(299.46 623.44)"><tspan x="0" y="0" xml:space="preserve"> &amp; </tspan></text>
      <text class="cls-5" transform="translate(309.56 623.44)"><tspan x="0" y="0">Veget</tspan></text>
      <text class="cls-10" transform="translate(333.38 623.44)"><tspan x="0" y="0">arian Onigiri ($6)</tspan></text>
      <text class="cls-5" transform="translate(43.5 638.27)"><tspan x="0" y="0">NEW</tspan></text>
      <text class="cls-32" transform="translate(61.17 638.27)"><tspan x="0" y="0" xml:space="preserve"> Snacks and Chips (Inquire with your bartender) </tspan></text>
      <text class="cls-38" transform="translate(274.36 638.27)"><tspan x="0" y="0">$4</tspan></text>
      <text class="cls-60" transform="translate(43.5 727.28)"><tspan x="0" y="0">*</tspan></text>
      <text class="cls-35" transform="translate(48.06 727.28)"><tspan x="0" y="0">CONSUMING RA</tspan></text>
      <text class="cls-46" transform="translate(113.76 727.28)"><tspan x="0" y="0">W </tspan></text>
      <text class="cls-36" transform="translate(124.28 727.28)"><tspan x="0" y="0">OR UNDERCOOKED MEA</tspan></text>
      <text class="cls-54" transform="translate(222.47 727.28)"><tspan x="0" y="0">TS, POUL</tspan></text>
      <text class="cls-35" transform="translate(260.06 727.28)"><tspan x="0" y="0">TR</tspan></text>
      <text class="cls-37" transform="translate(270.7 727.28)"><tspan x="0" y="0">Y,</tspan></text>
      <text class="cls-27" transform="translate(278.09 727.28)"><tspan x="0" y="0" xml:space="preserve"> SEAFOOD, SHELLFISH, OR EGGS MA</tspan></text>
      <text class="cls-24" transform="translate(429.34 727.28)"><tspan x="0" y="0">Y </tspan></text>
      <text class="cls-49" transform="translate(437.47 727.28)"><tspan x="0" y="0">INCREA</tspan></text>
      <text class="cls-35" transform="translate(469.23 727.28)"><tspan x="0" y="0">SE </tspan></text>
      <text class="cls-60" transform="translate(482.6 727.28)"><tspan x="0" y="0">Y</tspan></text>
      <text class="cls-35" transform="translate(488 727.28)"><tspan x="0" y="0">OUR RISK</tspan></text>
      <text class="cls-35" transform="translate(528.61 727.28)"><tspan x="0" y="0" xml:space="preserve"> OF</tspan></text>
      <text class="cls-60" transform="translate(541.16 727.28)"><tspan x="0" y="0"> </tspan></text>
      <text class="cls-60" transform="translate(43.55 739.28)"><tspan x="0" y="0">F</tspan></text>
      <text class="cls-27" transform="translate(48.5 739.28)"><tspan x="0" y="0">OODBORNE ILLNESS, ESPECIALL</tspan></text>
      <text class="cls-56" transform="translate(183.78 739.28)"><tspan x="0" y="0">Y </tspan></text>
      <text class="cls-36" transform="translate(191.91 739.28)"><tspan x="0" y="0">IF </tspan></text>
      <text class="cls-43" transform="translate(202.78 739.28)"><tspan x="0" y="0">YOU HA</tspan></text>
      <text class="cls-35" transform="translate(233.95 739.28)"><tspan x="0" y="0">VE CERT</tspan></text>
      <text class="cls-36" transform="translate(268.56 739.28)"><tspan x="0" y="0">AIN MEDICAL</tspan></text>
      <text class="cls-35" transform="translate(324.06 739.28)"><tspan x="0" y="0" xml:space="preserve"> CONDITIONS</tspan></text>
      <text class="cls-60" transform="translate(379.47 739.28)"><tspan x="0" y="0">.</tspan></text>
      <text class="cls-23" transform="translate(43.55 754.12)"><tspan x="0" y="0">A </tspan></text>
      <text class="cls-19" transform="translate(51.79 754.12)"><tspan x="0" y="0">GRAUITY</tspan></text>
      <text class="cls-14" transform="translate(88.84 754.12)"><tspan x="0" y="0" xml:space="preserve"> OF 20% WILL BE ADDED TO </tspan></text>
      <text class="cls-7" transform="translate(207.59 754.12)"><tspan x="0" y="0">PA</tspan></text>
      <text class="cls-4" transform="translate(218.62 754.12)"><tspan x="0" y="0">R</tspan></text>
      <text class="cls-3" transform="translate(224.45 754.12)"><tspan x="0" y="0">TIES OF 7 OR MORE. EACH T</tspan></text>
      <text class="cls-11" transform="translate(342.33 754.12)"><tspan x="0" y="0">ABLE MA</tspan></text>
      <text class="cls-9" transform="translate(379 754.12)"><tspan x="0" y="0">Y </tspan></text>
      <text class="cls-11" transform="translate(387.12 754.12)"><tspan x="0" y="0">SPLIT</tspan></text>
      <text class="cls-11" transform="translate(411.65 754.12)"><tspan x="0" y="0" xml:space="preserve"> THEIR CHECK NO MORE THAN </tspan></text>
      <text class="cls-4" transform="translate(541.44 754.12)"><tspan x="0" y="0">6 </tspan></text>
      <text class="cls-6" transform="translate(43.55 766.12)"><tspan x="0" y="0">WA</tspan></text>
      <text class="cls-3" transform="translate(56.06 766.12)"><tspan x="0" y="0">YS. CORKAGE OF OUTSIDE WINE IS $16 AND </tspan></text>
      <text class="cls-6" transform="translate(243.23 766.12)"><tspan x="0" y="0">AV</tspan></text>
      <text class="cls-19" transform="translate(253.54 766.12)"><tspan x="0" y="0">AILABLE </tspan></text>
      <text class="cls-8" transform="translate(291.75 766.12)"><tspan x="0" y="0">AT</tspan></text>
      <text class="cls-16" transform="translate(301.78 766.12)"><tspan x="0" y="0" xml:space="preserve"> SERVERS DISCRETION</tspan></text>
      <text class="cls-4" transform="translate(401.55 766.12)"><tspan x="0" y="0">.</tspan></text>
    </g>
  </g>
</svg>